<?xml version="1.0" encoding="utf-8"?>
<!-- Generator: Adobe Illustrator 24.0.1, SVG Export Plug-In . SVG Version: 6.00 Build 0)  -->
<svg version="1.1" xmlns="http://www.w3.org/2000/svg" xmlns:xlink="http://www.w3.org/1999/xlink" x="0px" y="0px"
	 viewBox="0 0 501 341" style="enable-background:new 0 0 501 341;" xml:space="preserve">
<style type="text/css">
	.st0{fill:#F8DB94;}
	.st1{fill:#231F20;}
	.st2{font-family:'Bender-Bold';}
	.st3{font-size:44.2271px;}
	.st4{fill:none;stroke:#231F20;stroke-width:4.4671;stroke-miterlimit:10;}
	.st5{fill-rule:evenodd;clip-rule:evenodd;fill:#605753;}
	.st6{fill-rule:evenodd;clip-rule:evenodd;fill:#FFFFFF;}
	.st7{fill:#FFCA00;}
	.st8{fill:#19181B;}
	.st9{fill:#00A686;}
</style>
<g id="Layer_1">
</g>
<g id="Layer_37">
	<path class="st0" d="M27.9,277.8h388.6c13.3,0,24.1-10.8,24.1-24.1V37c0-13.3-10.8-24.1-24.1-24.1H27.9C14.5,12.9,3.7,23.7,3.7,37
		v216.7C3.7,267,14.5,277.8,27.9,277.8z"/>
	<g>
		<g>
			<text transform="matrix(1 0 0 1 178.7969 87.1157)" class="st1 st2 st3">2</text>
		</g>
		<circle class="st4" cx="190.1" cy="73.3" r="28.3"/>
	</g>
	<g>
		<path class="st5" d="M386.2,133.9l-0.9,0.2c-1.1,1-3.5,1.3-4.9,2.2c-24.4,16-47.8,32.6-71.5,49c-6.7,4.6-15.3,8-20.6,13.4
			c-0.2,0.1-0.4,0.2-0.6,0.3c-1,0.5-1.5,1.4-1.5,2.3c-0.2,0.2-0.3,0.4-0.5,0.7c-0.4,1.9,0.7,3.7,1.7,5c1.9,0.3,4.2-1,6.8-0.7
			c1.4,3.6,1.9,8.7,6,8c-0.7,25.1,1.6,52,0.6,77c-1.4,2.5-1.9,5.5-3.5,7.8c-1.3-0.6-3.1-0.4-4.3,0.6c-1,2.1,0.4,5.5-1.2,7.3
			c-3.2,0.2-5.9-0.4-9.7,0.9c-0.6,5.7-2.8,10.6-1.7,17.3c33.5,4.2,70.1,3.4,106.3,3.2c35.6,0,72,1.9,108.2-1.3
			c1.9-4-1.1-11-0.4-15.8c-2.1-2.3-5.3-1.9-4.1-6.5c-1.5-0.8-3.7-0.5-5.3-1.2c0.7-3.3-1.8-6.5-4.9-5.8c-0.4-25.5,0.5-52.7,1-78.9
			c5.5-1,2.2-7.5,7.9-8.4c0.1-3.1,2.2-5.1,1.9-8.4c-16.1-13.4-34-24-49.7-38C424.3,151.4,404.5,143.9,386.2,133.9z M339.3,280.8
			c-1.6,4.8-3.6,9.3-4.4,14.5c-3,0.1-5.3-1-8.2-1c2.8-1.9,2.1-12.5-3.2-11.1c-0.5-23.1,0.1-45.4-1.1-68.9c4.1-0.7,3.3-4.4,4.8-6.7
			c3-0.3,5.6,0,8.4-0.1c0.1,2.8,1.2,9.3,4.7,8.8C340.1,237.9,340,259.5,339.3,280.8z M382.6,285.1c-2.2,3-2.3,7.4-2.6,11.6
			c-6.1,0.2-11.6-0.6-17.9-0.1c-0.8-25.7,1.1-49.8,0.8-75.2c0.1-1.5,0.1-3.1,0.2-4.6c1.2-0.3,2.5-0.5,2.9-1.2c0.7-2.9,2.3-5.3,3-8.2
			c2.6,0.1,5.4-0.1,8-0.1c0.1,0.5,0.2,0.9,0.4,1.4c0,1.8,0.2,3.7,0.9,5.9c0.6,1.9,3.3,0.2,4.7,0.8
			C382.6,238.4,382.3,261.6,382.6,285.1z M425.4,285c-3.9,2.6-4.1,7.4-5.1,11.7c-3.3,0.4-6-0.2-9-0.3c1.7-4.3,0.8-9.9-4.4-9.9
			c-1.2-23.9,0-46.3-1.4-70.3c4.7-1.3,3.3-6.3,6.4-8.5c3.9-0.1,7.1,1.1,11.1,0.7c0.7,3.7,1.6,7,4,8
			C426.6,239.3,425.6,261.9,425.4,285z M463.5,219.3c-0.6,22.4-0.8,45-0.1,68.2c-4.5,0.6-3.9,7.1-6.5,10.1c-2.5,0.4-4.2-0.5-6.9,0.2
			c-0.8-4.7,0.1-10.4-3.6-12.5c0.8-22.2,1.5-44.6,0.7-67.9c3.2-1.4,3.5-4.6,4.7-7.1c2.3-0.1,4.3,0.4,6.6,0.4
			C459,215.3,460.5,218.6,463.5,219.3z"/>
		<path class="st6" d="M475,195.6c-4.4-2.4-8.2-5.7-12.5-8.4c-7.6-6.9-15.8-12.6-24-18.5c-14.9-14.1-34.8-19.9-51.5-31.1
			c-0.1-1-1.3,0.4-1.3,0.8c-18.4,9.4-32.4,21.4-48.9,31.9c-8.1,5.4-16.5,10.5-24.4,16c-5.4,3.8-12.4,8-18.6,11.5c-1.8,1-6,2-4.7,5.1
			c0.9,2.8,5.4-0.5,7.5,0.1c29.9,3.4,64.5-1.1,95.6,0.3c24.1-0.2,46.4,2.6,70,3.2c3.7,0.5,7.7,0.4,11.6,0.6c3.4-0.9,9.7,2.2,11-1.7
			C485.9,200.4,478,198.8,475,195.6z M387.7,200.7c-14.6,0.4-28.8,0.1-44,1.4c-7.6,0.7-15,1-21.8,0.4c-6.8-0.4-15,1.5-18.9-3.8
			c3.3-6.8,13.7-9.3,19.3-14.7c7-4.4,13.7-9,21.7-12.8c13.3-9.4,27.2-18.4,41.6-27.2c0.8-0.1,0.7-0.6,1.3-0.8
			c7.8,0.6,16.4,9.7,22.7,13.3c14.7,9.1,30.7,16.1,44.1,27.4c6.5,5.2,16.4,8.1,18.8,17.8C445.7,201.7,416.3,200,387.7,200.7z"/>
		<path class="st6" d="M387.5,153.5c-20,14.2-42.2,27.2-65.4,39.5c40.9-0.5,81.9-1.2,121.9-0.2c-16.3-10.9-33.5-26-50.6-37.8
			C390.9,155.4,390.6,152.2,387.5,153.5z"/>
		<path class="st6" d="M299.2,211.1c4.6-0.6,8.2,0.6,13.2-0.8c3-0.3,10.2,2.2,9.9-2.4c-9.2,1.6-17.8-1.3-25.1-0.8
			C298.2,207.9,298.8,209.3,299.2,211.1z"/>
		<path class="st6" d="M302.9,214.1c0.7,23.2,1,46.1,2.2,69.6c1.5-0.5,2.2,0.3,3.9-0.5c-0.3-17-2.2-35.7-3.1-53
			c-0.3-5.7,0.5-11.6-1.6-16.5C303.9,213.9,303.4,214,302.9,214.1z"/>
		<path class="st6" d="M307.4,216c0.7,10.9,1.2,22.6,1.9,33.9c0.7,11.5,1,23.2,3.8,33.4c2.2-1.5,0.6-5.3,0.5-8.1
			c-0.1-20.4-0.6-41.1-0.1-61.2c-2.1,0.1-4,0-6.3,0.6C307.2,215.1,307.3,215.5,307.4,216z"/>
		<path class="st6" d="M339.9,212.5c7,0.9,15,0.3,22.5,0.4c0.7-2,2.1-3.5,2-6c-8.7,0.4-17.3,0.5-26.1,1
			C338.8,209.5,339.6,210.4,339.9,212.5z"/>
		<path class="st6" d="M315.7,215.4c-0.2,17.2-0.2,34.5,0.4,52.2c0,2.9,0,5.9,0.2,8.9c0.4,2.6-1.2,7.2,2.2,6.9
			c3.1-1.1,0.8-5.4,1.6-7.8c-0.3-9-0.1-17.7,0-26.4c-0.3-11.9-0.5-23.7-0.2-35.3c-1.2-0.2-2.9,0.4-4,0
			C316,214.5,315.4,214.7,315.7,215.4z"/>
		<path class="st6" d="M342.9,216.7c0.1,0.5,0.2,0.9,0.3,1.4c1.1,22.5-1.2,43,0.2,65.6c-0.4,1.5-2.1,2.2-2,4c2-0.5,3.3,0.4,5.4-0.3
			c-0.1-23.5-1.3-47.6-1.1-70.9C344.5,217.2,344.2,216,342.9,216.7z"/>
		<path class="st6" d="M380.6,212.4c8.2-0.2,16.3-0.1,24.4,0c0.2-1.8,1.4-3.2,1.8-4.9c-9.1,0-17.4-1.1-27.3,0.3
			C379.9,209.3,380.3,210.8,380.6,212.4z"/>
		<path class="st6" d="M348.3,218.4c-0.5,11.4,0.4,23.7,0.2,35.3c0.6,9.2,0.8,18,0.6,26.7c1,2.8-1.1,7,1.9,7.5
			c1.9-11,1.3-23.2,1.3-35.2c0-12.2-0.3-24.4,0.6-36c-1.4-0.1-3,0.2-4.5,0.1C348.5,217.5,348,217.6,348.3,218.4z"/>
		<path class="st6" d="M354.7,218.3c0.2,20.7,0.7,41.7-0.2,61.8c1.3,2.6-2,7.9,2.3,7.4c2.6-0.6,1.4-4.5,1.3-6.8
			c-0.2-8.8,0.3-19.1,0.8-27.1c-0.3-12.6,1.1-24.1,0.9-36.6c-1.5-0.4-3.3-0.2-5-0.3C355,217.4,354.9,217.8,354.7,218.3z"/>
		<path class="st6" d="M385.4,215.7c0.1,0.5,0.2,0.9,0.3,1.4c0,17.2,0.7,35.2,0.4,52.2c-0.1,5.6-1.5,11.7,1.1,16.7
			c0.7-23.3,1.2-46.7,1.1-70.4C387,216.2,386.5,215.4,385.4,215.7z"/>
		<path class="st6" d="M390.4,286.1c2.2,0.3,4.5,0.4,7,0.3c-0.2-23.4-1-47.2-1.5-70.8c-1.8,0.2-3.2-0.4-5.4,0.3
			C391.7,240.1,390.1,262.5,390.4,286.1z"/>
		<path class="st6" d="M398.3,217.5c-0.6,11.2,0.9,23.7,1.3,35.5c-0.3,8-0.1,18.2,0,26.4c0,2.5-0.9,6.5,1.9,7.5
			c2.9-1.2,0.6-5.5,1.6-7.9c-0.7-3.5-0.1-6.2-0.3-9.4c0.5-17.7-0.3-36.1,0.2-53.8c-1.7,0.2-3-0.4-4.9,0.2
			C398.1,216.5,398.2,217,398.3,217.5z"/>
		<path class="st6" d="M427.3,211.8c3.3,0.5,6.8,0.7,10.5,0.4c3-0.4,8.4,2.3,9.6-1.4c-6-2.1-13.6-1.7-20.9-1.8
			C426.8,210,427.1,210.9,427.3,211.8z"/>
		<path class="st6" d="M429.9,216.2c0.1,0.5,0.2,0.9,0.3,1.4c-0.2,17.2-0.5,34.3-0.7,51.4c0.3,5-2,12.6,0.5,16.3
			c2.9-2.4,0-11.7,0.9-16.6c0.3-5.8,0-12,0.6-17.6c-0.2-6-0.7-12.3-0.5-18.3c0.1-6.1,1.9-12.2-0.2-16.9
			C430.5,216,430.2,216.1,429.9,216.2z"/>
		<path class="st6" d="M434.2,217.6c-1.1,10.8-0.5,22.6-0.6,34c0.8,10.8-2,23.9,1.3,33.5c1.8-9,0.5-23.4,2.1-33.9
			c0-12.1,1.2-23.5,1.8-35.3c-1.7,0.4-2.9-0.1-4.4,0.1C434.4,216.7,433.9,216.9,434.2,217.6z"/>
		<path class="st6" d="M462.3,214.6c3.6,0.6,10.1,2.1,13.2-0.8c0.2,0.6,0.3,1.3,0.5,1.9c1.4-0.1,2.6,0.1,4,0
			c0.4-1.5,1.6-2.5,1.4-4.3c-6.8,0.1-13.4-0.2-20-0.5C461.7,212.1,462,213.4,462.3,214.6z"/>
		<path class="st6" d="M441.3,216.3c-0.6,22.9-3.4,46.7-2.3,69.3c1.5-0.8,2,0.3,3.4-0.3c1.7-10.7,0.9-22.9,1.5-34.2
			c-0.9-11.8,1.4-23.9-0.1-34.8C442.7,216.7,442.6,215.6,441.3,216.3z"/>
		<path class="st6" d="M465.9,219.2c0.1,0.6-0.4,0.8-0.1,1.5c0.8,11.8,0.6,23,0.5,34.2c0,5.1,0,11,0.2,16.9c0.1,5.7-0.1,12.2,1,16.2
			c0.9-15.7,0.8-35.4,0.1-52.3c-0.3-5.1,1.2-13.3-0.6-16.8C466.6,219.1,466.3,219.2,465.9,219.2z"/>
		<path class="st6" d="M471,288.2c1.9-5.5,0.7-11.4,0.8-17.1c0.2-17.2,1.2-35.1,2.2-51.8c-1.3-0.5-3-0.4-4.6-0.4
			C471.1,242.7,470,264.8,471,288.2z"/>
		<path class="st6" d="M477,219.5c-0.5,0.1-0.7-0.2-1.1-0.2c0.1,0.6-0.4,0.8-0.1,1.5c-0.8,10.9-0.1,22.8-1.2,33.6
			c0.7,10.8-1.7,24.3,0.8,33.6c1.7-18.6,0.9-42,2.3-61.3C477.5,224.7,479.9,219.4,477,219.5z"/>
		<path class="st6" d="M304.6,287.4c0.2,1.7-0.4,3,0.2,4.9c6.6,0.2,14.1,2.1,20.2,1c-2.2-2.1,0.7-4.6-0.3-7.4
			C318.1,286.2,311.6,286.3,304.6,287.4z"/>
		<path class="st6" d="M471.2,301.1c-11.3-0.3-22.8-0.2-34-0.6c-44.6-1.5-91.4,0.6-133.6-4.9c-1.1,0.1-0.2,1.5-1.1,1.8
			c-0.6,2.6,2.8,1.4,3.9,1.5c12.7,1.6,26.9,1.4,38.5,2.9c31.4-1.1,60.9,1,91.8,0.8c7.4-0.1,15.3,0.2,23,0.3
			c7.6,0.1,15.5,1.5,21.8-0.4C480.2,298.4,474.6,301.5,471.2,301.1z"/>
		<path class="st6" d="M339,295.8c6.2,0.1,12.1,0.6,18.5,0.4c0.5-1.8,0-4.3,0.5-6.1C351.8,292.1,338.6,286.6,339,295.8z"/>
		<path class="st6" d="M481.5,306.5c-2.8,0.9-3.9-1.1-6.2-1c-57.5-0.6-115.7-0.2-171.9-2.9c-2,0.5-4.2,1.2-5.7,0.9
			c-0.5,0.3-0.8,0.8-0.6,1.6c0.1,0.5,0.2,0.9,0.3,1.4c31.2,1.3,62.7,2,95.3,0.9c16,0,31.8,0.2,47.8,0.2c7.6,0.7,15.8,0.3,23.6,0.7
			c7-0.1,16.6,2.4,22.7-0.6C487.3,305.8,483,307.1,481.5,306.5z"/>
		<path class="st6" d="M286.3,312.3c-0.5,3.2-1.8,5.8-1.7,9.4c66.6,4.2,136.9,2,205.7,2.6c0.3-3.5-0.4-7.7,0.3-11
			c-33.1-1.8-66.9-2.4-101-2C355.4,311.6,320.1,310.7,286.3,312.3z"/>
		<path class="st6" d="M384.5,296.5c7.4-0.1,14.6,0.1,22.3-0.5c0.4-2.1,1.6-3.8,1.4-6.3c-7.6-0.2-15.7,0.4-23-0.3
			C385.8,292.3,384.4,293.9,384.5,296.5z"/>
		<path class="st6" d="M424.4,297.1c7.2-0.2,13.9,0.3,21,0.3c-0.3-3.2,0.2-6,0.3-9c-6.5,0.5-12.8,0.5-19.2,0.8
			C426,292,424.8,294.3,424.4,297.1z"/>
		<path class="st6" d="M461.9,297.9c4.8-0.2,8.9,0.7,13.9,0c0.5-2,0.6-4.2,1-6.2C470.2,292,461.6,289.9,461.9,297.9z"/>
		<path class="st6" d="M468.4,198.7c-12.4-10.8-25.6-20.2-39.7-28c-7.1-3.9-13.9-8.3-20.9-12.3c-6.6-4.1-13.5-11-20.1-13
			c-26.3,17.5-54.3,34-79.7,52c4.6,3.4,11.9,2.3,18.5,2.4c6.6,0.3,13.6-0.1,20.7-0.6c41.6-2.2,81.4-1.3,120.9,0
			c0.5-0.2,0.9,0.5,0.9-0.2C468.6,199.1,468.4,199.2,468.4,198.7z M438.6,197.1c-5.4-1-12-0.1-17.2-1.2c-12,0.3-23.9,0.4-36.1,0.9
			c-22.4-2.1-48.4,1.7-70.1-1.6c8.2-9.6,24.5-14.2,35.9-21.8c12.2-7,22-15.5,33.7-22.7c0.9-0.2,0.8-0.8,1.8-0.9
			c4.1-0.4,6.1,2.7,9.7,3.1c15.1,9.9,29,21.6,43.7,32c5.1,3.9,13,3.1,15.7,11.1C450.9,199.8,444.5,195.7,438.6,197.1z"/>
	</g>
	<g>
		<g>
			<path class="st7" d="M54.7,269.1c-0.1-0.6-1.5-1.3-1.5-0.4c0,1.5,0.5,3,1.1,4.4c0.7,1.7,1.3,3.4,2,5c0.2,0.5,1.8,0.9,1.5,0.1
				C56.8,275.3,55,272.3,54.7,269.1z"/>
			<path class="st7" d="M60.9,278.1c0.1-0.1-0.3-0.7-0.4-0.9c-0.2-0.4-0.4-0.8-0.6-1.2c-0.4-0.8-0.9-1.7-1.3-2.5
				c-0.8-1.6-1.5-3.1-2-4.8c-0.2-0.6-1.6-1.2-1.3-0.2c0.5,2,1.4,3.9,2.3,5.7c0.5,1,1,2,1.5,3c0.3,0.7,0.6,1.6,1.3,1.9
				c0.3,0.1,0.8,0.2,0.9-0.2c0,0,0-0.1,0-0.1C61.4,278.5,61.1,278.3,60.9,278.1z"/>
			<path class="st7" d="M59.2,269.2c-0.3-0.6-1.7-1-1.4-0.1c1.3,3.1,2.6,6.2,3.9,9.4c0.2,0.6,1.8,0.7,1.5-0.1
				C62,275.3,60.6,272.3,59.2,269.2z"/>
			<path class="st7" d="M61.5,269.4c-0.2-0.6-1.6-1.1-1.4-0.1c1,3.5,2.9,6.7,4.4,9.9c0.3,0.6,1.9,0.7,1.5-0.1
				C64.5,275.9,62.6,272.7,61.5,269.4z"/>
			<path class="st7" d="M64.4,270.6c-0.3-0.5-1.7-0.7-1.3,0.1c2,3.2,4.1,6.4,6.3,9.5c0.2,0.3,0.7,0.5,1,0.5c0.3,0,0.7-0.2,0.5-0.6
				C68.6,277,66.4,273.9,64.4,270.6z"/>
			<path class="st7" d="M67.2,269c-0.4-0.6-1.7-0.8-1.2,0.2c2.2,3.8,4.6,7.6,7,11.3c0.3,0.5,2,0.5,1.5-0.1
				C72,276.6,69.5,272.8,67.2,269z"/>
			<path class="st7" d="M71.4,269.7c-0.3-0.5-1.7-0.8-1.3,0c1.6,3.1,3.2,6.2,4.7,9.2c0.3,0.5,1.9,0.6,1.5-0.2
				C74.9,275.7,73.2,272.7,71.4,269.7z"/>
			<path class="st7" d="M77.1,275.5c-0.8-1.5-1.5-3-2.3-4.5c-0.2-0.3-0.6-0.7-0.9-0.7c-0.3,0-0.6,0.2-0.4,0.6
				c0.7,1.5,1.4,2.9,2.1,4.4c0.7,1.5,1.3,3.2,2.3,4.5c0.3,0.4,1.7,0.6,1.4-0.1C78.7,278.2,77.8,276.8,77.1,275.5z"/>
			<path class="st7" d="M79.6,275.1c-0.8-1.2-1.6-2.5-2.3-3.7c-0.3-0.5-1.8-0.8-1.4,0c0.8,1.3,1.6,2.7,2.4,4
				c0.8,1.4,1.6,2.9,2.7,4.1c0.3,0.3,1.8,0.6,1.4-0.2C81.6,277.8,80.5,276.5,79.6,275.1z"/>
			<path class="st7" d="M79.5,270.1c-0.4-0.6-1.8-0.6-1.2,0.3c2.2,3,4.2,6.2,6.5,9.1c0.2,0.3,0.7,0.5,1.1,0.4c0.3,0,0.7-0.3,0.4-0.6
				C84.2,276.2,81.8,273.2,79.5,270.1z"/>
			<path class="st7" d="M84,270.1c-0.3-0.6-1.7-0.8-1.2,0.1c1.6,3.2,3.1,6.5,4.9,9.6c0.3,0.5,1.9,0.6,1.5-0.2
				C87.6,276.4,85.7,273.2,84,270.1z"/>
			<path class="st7" d="M89.8,275c-0.9-1.5-1.7-3-2.5-4.5c-0.3-0.6-1.8-0.9-1.4,0c0.7,1.5,1.5,3,2.3,4.5c0.8,1.5,1.6,3.2,2.6,4.5
				c0.3,0.4,1.7,0.5,1.4-0.3C91.6,277.7,90.6,276.4,89.8,275z"/>
			<path class="st7" d="M93,274.8c-1.1-1.6-2.1-3.2-3-4.8c-0.3-0.5-1.8-0.8-1.4,0.1c0.9,1.6,1.7,3.1,2.7,4.7
				c0.9,1.5,1.9,3.3,3.1,4.5c0.3,0.3,1.8,0.4,1.4-0.3C95,277.5,93.9,276.2,93,274.8z"/>
			<path class="st7" d="M93.5,270.4c-0.3-0.5-1.9-0.7-1.4,0.1c1.6,2.6,3.2,5.3,5.1,7.6c0.3,0.4,1.9,0.3,1.5-0.3
				C97.2,275.3,95.2,272.9,93.5,270.4z"/>
			<path class="st7" d="M99,274.5c-0.8-1.5-1.6-3-2.4-4.5c-0.2-0.3-0.6-0.6-1-0.6c-0.3,0-0.7,0.1-0.5,0.5c0.8,1.6,1.6,3.2,2.4,4.8
				c0.8,1.5,1.4,3.3,2.4,4.7c0.3,0.4,1.8,0.5,1.5-0.2C100.8,277.6,99.8,276.1,99,274.5z"/>
			<path class="st7" d="M99.6,269.8c-0.3-0.4-1.7-0.8-1.3,0.1c1.5,3.1,3.4,5.9,5.4,8.7c0.4,0.5,1.9,0.2,1.4-0.5
				C103.1,275.4,101.3,272.6,99.6,269.8z"/>
			<path class="st7" d="M107.9,277.1c-0.5-0.3-0.9-1.2-1.3-1.6c-0.5-0.7-1-1.4-1.5-2.1c-1-1.5-2.1-3-3-4.5c-0.3-0.5-1.9-0.7-1.4,0.1
				c1,1.6,2,3.3,3.1,4.9c0.5,0.8,1.1,1.6,1.6,2.4c0.5,0.7,0.9,1.4,1.7,1.7C107.8,278.1,108.8,277.5,107.9,277.1z"/>
			<path class="st7" d="M110,276.2c-0.6-1.2-1.6-2.3-2.3-3.4c-0.8-1.2-1.5-2.4-2.2-3.7c-0.2-0.3-0.6-0.6-1-0.6
				c-0.3,0-0.7,0.1-0.5,0.5c0.7,1.3,1.3,2.6,2.1,3.9c0.7,1.2,1.5,2.7,2.5,3.7C108.9,276.8,110.4,276.9,110,276.2z"/>
			<path class="st7" d="M108.2,272.3c0.2,0.4,1.8,0.7,1.6,0c-0.4-1.5-1.2-2.9-1.8-4.3c-0.2-0.6-1.8-0.8-1.5,0
				C107,269.3,107.4,271,108.2,272.3z"/>
		</g>
		<g>
			<path class="st7" d="M54.2,298.6c-0.2-0.6-1.6-1-1.3-0.1c0.9,2.5,1.9,4.9,3.7,6.8c0.6,0.7,1.7,0.2,0.9-0.6
				C55.9,303,55.1,300.8,54.2,298.6z"/>
			<path class="st7" d="M55.2,296.7c-0.2-0.3-0.6-0.8-1-0.7c-0.4,0.1-0.4,0.4-0.2,0.8c1.5,2.9,3,5.9,4.7,8.7
				c0.3,0.5,1.9,0.9,1.4-0.1C58.7,302.4,56.9,299.5,55.2,296.7z"/>
			<path class="st7" d="M58.8,297.7c-0.3-0.5-1.7-0.8-1.3,0c1.2,2.4,2.3,4.8,3.3,7.3c0.2,0.4,0.6,0.7,1,0.7c0.3,0,0.8-0.1,0.6-0.5
				C61.3,302.7,60.1,300.2,58.8,297.7z"/>
			<path class="st7" d="M62.2,298.6c-0.2-0.6-1.7-1.1-1.4-0.1c0.9,2.6,1.7,5.1,2.7,7.6c0.2,0.6,1.9,0.8,1.6,0
				C64.1,303.5,63.1,301.1,62.2,298.6z"/>
			<path class="st7" d="M66.6,302.3c-0.6-1.1-1.2-2.3-1.9-3.3c-0.3-0.4-1.8-0.7-1.5,0.2c0.6,1.2,1.3,2.4,1.9,3.6
				c0.6,1.1,1.1,2.4,1.9,3.4c0.3,0.4,1.8,0.7,1.5-0.2C68,304.6,67.2,303.4,66.6,302.3z"/>
			<path class="st7" d="M70.8,303.2c-0.9-1.3-1.9-2.7-3.1-3.8c-0.3-0.3-1.3-0.4-1,0.3c0.5,1.3,1.7,2.4,2.4,3.5
				c0.9,1.3,1.6,2.7,2.5,3.9c0.3,0.4,1.8,0.6,1.5-0.2C72.5,305.6,71.6,304.4,70.8,303.2z"/>
			<path class="st7" d="M71.1,299.6c-0.4-0.6-1.8-0.7-1.2,0.3c1.6,2.6,3.3,5.3,5.2,7.6c0.2,0.3,0.7,0.5,1.1,0.4
				c0.2,0,0.6-0.3,0.4-0.6C74.9,304.6,72.9,302.2,71.1,299.6z"/>
			<path class="st7" d="M76.5,303.4c-1-1.2-1.9-2.5-2.9-3.6c-0.4-0.4-1.8-0.6-1.3,0.3c0.9,1.4,1.9,2.6,2.9,3.9
				c0.9,1.1,1.7,2.3,2.7,3.2c0.3,0.3,2,0.4,1.4-0.3C78.5,305.6,77.4,304.6,76.5,303.4z"/>
			<path class="st7" d="M75.9,299.5c-0.5-0.4-1.7-0.4-1,0.5c0.9,1.2,1.8,2.2,2.7,3.4c1,1.3,1.9,2.6,2.9,3.9c0.4,0.5,2,0.4,1.5-0.3
				C80.3,304.2,78.2,301.7,75.9,299.5z"/>
			<path class="st7" d="M80,299.8c-0.3-0.3-1.6-0.5-1.1,0.3c0.8,1.3,1.7,2.4,2.6,3.6c0.8,1.2,1.6,2.5,2.5,3.6c0.4,0.5,2,0.5,1.5-0.3
				C83.9,304.5,82,302,80,299.8z"/>
			<path class="st7" d="M85.6,303.4c-0.9-1.2-1.7-2.4-2.6-3.5c-0.3-0.5-1.8-0.6-1.3,0.2c0.9,1.3,1.8,2.7,2.7,4
				c0.8,1.2,1.6,2.4,2.6,3.4c0.3,0.3,1.9,0.6,1.5-0.2C87.7,305.9,86.6,304.7,85.6,303.4z"/>
			<path class="st7" d="M88.7,303.3c-0.9-1.2-1.8-2.4-2.7-3.6c-0.4-0.6-1.9-0.7-1.2,0.3c1.8,2.5,3.4,5.2,5.5,7.5
				c0.3,0.3,0.7,0.5,1,0.4c0.2,0,0.6-0.3,0.4-0.6C90.8,305.9,89.7,304.6,88.7,303.3z"/>
			<path class="st7" d="M89.9,300.2c-0.2-0.2-0.6-0.6-1-0.4c-0.3,0.1-0.3,0.5-0.1,0.7c0.6,1.1,1.5,2.1,2.2,3.1
				c0.9,1.2,1.6,2.6,2.5,3.8c0.3,0.4,1.9,0.6,1.5-0.2C93.6,304.8,91.8,302.2,89.9,300.2z"/>
			<path class="st7" d="M92.9,300.2c-0.3-0.5-1.8-0.7-1.3,0.2c1.3,2.3,2.7,4.7,4.4,6.6c0.3,0.4,1.9,0.4,1.4-0.3
				C96.1,304.5,94.4,302.4,92.9,300.2z"/>
			<path class="st7" d="M97.4,302.9c-0.7-1.2-1.4-2.3-2.3-3.3c-0.6-0.6-1.7-0.2-0.9,0.6c0.9,1,1.4,2.3,2.2,3.5
				c0.7,1.1,1.5,2.2,2.4,3.1c0.3,0.3,0.7,0.5,1.1,0.4c0.2,0,0.6-0.3,0.4-0.6C99.3,305.3,98.2,304.2,97.4,302.9z"/>
			<path class="st7" d="M100.5,302.4c-0.8-1.3-1.7-2.5-2.6-3.7c-0.4-0.5-2-0.7-1.4,0.2c0.8,1.2,1.6,2.5,2.4,3.7
				c0.8,1.2,1.4,2.8,2.4,3.9c0.3,0.3,1.8,0.8,1.5-0.1C102.3,305,101.3,303.6,100.5,302.4z"/>
			<path class="st7" d="M99.8,298.1c-0.4-0.6-1.8-0.7-1.2,0.3c1.7,2.5,3.2,5.3,5,7.7c0.3,0.4,1.9,0.5,1.4-0.3
				C103.6,303.1,101.6,300.7,99.8,298.1z"/>
			<path class="st7" d="M102.7,298.1c-0.4-0.5-2-0.7-1.4,0.2c1.7,2.6,3.5,5.3,5.7,7.5c0.4,0.4,1.9,0.2,1.4-0.5
				C106.4,302.9,104.4,300.6,102.7,298.1z"/>
			<path class="st7" d="M108.2,301.3c-0.9-1.2-1.8-2.4-2.6-3.7c-0.3-0.6-1.9-0.8-1.4,0.1c1.5,2.5,3.1,5.3,5.2,7.3
				c0.4,0.3,1.9,0.3,1.4-0.5C110,303.4,109.1,302.4,108.2,301.3z"/>
			<path class="st7" d="M111.1,301.7c-0.8-1.5-1.7-3-2.5-4.4c-0.3-0.6-2-0.7-1.5,0.1c0.8,1.5,1.5,3.1,2.4,4.5
				C109.8,302.5,111.5,302.4,111.1,301.7z"/>
		</g>
		<path class="st8" d="M142.4,294.3c-1.6-5.5-3.9-10.6-6.7-15.6c-2.4-4.2-5.1-8.2-8.4-11.7c-2-2.2-4.5-4.7-7.4-5.8
			c-1.7-0.6-3.4-0.2-4.5,1c-0.2-0.1-0.4,0-0.7,0.1c-1.4,0.6-2.8,1.8-3.8,2.9c-1.4,1.4-1.2,2.7-0.9,4.6c0.3,1.8,0.6,3.5,1.1,5.3
			c0.3,1.2,0.6,2.4,1,3.6c0,0.1,0,0.2,0.1,0.3c0.3,1.1,0.7,2.1,1,3.2c0,0.1,0.1,0.2,0.1,0.3c0.3,0.9,0.7,1.8,1,2.7
			c1.2,2.9,2.5,5.8,4.1,8.5c-0.1,0.2-0.2,0.3-0.3,0.5c-0.3,0.5,0.7,1.1,1.2,0.9c0.4,0.5,0.7,1,1.1,1.5c0,0.1-0.1,0.1-0.1,0.2
			c-0.3,0.4,0.5,1,1.1,1c1,1.2,2,2.3,3.2,3.3c1.3,1.3,2.7,2.6,4,3.9c0.3,0.3,0.5,0.5,0.8,0.8c0.1,0.2,0.4,0.4,0.7,0.5
			c0.8,0.6,1.6,1.1,2.5,1.3c0.8,0.2,1.5-0.5,0.7-0.9c0,0,0.1,0,0.1-0.1c0.9-1,1.7-2,2.2-3.2c0.2,0.2,0.5,0.3,0.7,0.5
			c-0.4,0.7-0.9,1.5-1.5,2.1c-0.2,0.2-0.1,0.4,0,0.5c-0.1,0.1-0.3,0.1-0.4,0.2c-0.2-0.1-0.5,0-0.6,0.2c0,0,0,0,0,0
			c-0.2,0.4,0.3,0.8,0.8,0.9c0,0,0,0,0,0c0,0,0,0,0,0c0.2,0.1,0.4,0.1,0.5,0c2-0.8,3.8-2.1,5.6-3.4c0.1,0,0.1-0.1,0.1-0.2
			C144.3,302.7,143.3,297.3,142.4,294.3z M111.1,267.3c0.2,0,0.3-0.1,0.4-0.2c0.8-1.2,1.9-1.8,2.9-2.6c-0.1,0.3-0.1,0.5-0.1,0.8
			c0,0,0,0,0,0c-1,1.4-2,2.8-2.8,4.2C111.3,268.8,111.2,268,111.1,267.3z M112.1,272.9c-0.1-0.5-0.2-1-0.3-1.5
			c0.2,0.1,0.4,0,0.5-0.1c0.7-1.2,1.4-2.4,2.2-3.6c0.1,0.3,0.1,0.7,0.2,1C113.8,270.1,112.8,271.5,112.1,272.9z M113,276.8
			c-0.1-0.4-0.2-0.8-0.3-1.3c0,0,0,0,0-0.1c0.7-1.6,1.5-3.2,2.5-4.6c0.2,0.8,0.4,1.6,0.7,2.4c-0.3-0.1-0.6-0.1-0.7,0.1
			C114.4,274.4,113.7,275.6,113,276.8z M114.1,280.5c-0.2-0.5-0.3-1-0.5-1.5c0.8-1.5,1.7-3,2.7-4.5c0.1,0.2,0.1,0.4,0.2,0.5
			c0.2,0.5,0.3,1,0.5,1.5C115.9,277.8,115,279.1,114.1,280.5z M114.8,282.5c0.8-1.5,1.8-2.9,2.9-4.1c0.1,0.3,0.3,0.6,0.4,0.9
			c-1.2,1.2-2.2,2.6-2.9,4.2C115,283.2,114.9,282.8,114.8,282.5z M116.1,285.7C116.1,285.7,116.1,285.7,116.1,285.7
			c0.6-1.8,1.5-3.5,2.7-4.8c0.1,0.3,0.3,0.5,0.4,0.8c-1,1.4-2,2.9-2.9,4.5C116.2,286,116.1,285.9,116.1,285.7z M117.8,289.6
			c-0.2-0.5-0.5-1-0.7-1.5c0.8-1.6,1.8-3.3,2.8-4.8c0.3,0.6,0.6,1.2,1,1.8C119.7,286.6,118.7,288,117.8,289.6z M119.2,292.4
			c-0.2-0.3-0.4-0.7-0.6-1c0.8-1.7,1.8-3.3,3-4.7c0.1,0.2,0.3,0.5,0.4,0.7C121.2,289,120.2,290.7,119.2,292.4z M121.2,295.5
			c-0.3-0.5-0.7-1-1-1.5c1-1.7,1.9-3.4,2.9-5.1c0.3,0.5,0.6,1,1,1.5C123.1,292.1,122.2,293.8,121.2,295.5z M122.8,297.6
			c-0.2-0.2-0.4-0.4-0.5-0.6c1-1.7,1.9-3.4,2.8-5.1c0.1,0.2,0.3,0.4,0.4,0.6c-0.1,0-0.2,0.1-0.2,0.2
			C124.4,294.3,123.6,295.9,122.8,297.6z M124.5,299.4c-0.2-0.2-0.3-0.3-0.5-0.5c0.8-1.7,1.6-3.4,2.5-5.1c0.3,0.4,0.6,0.8,0.9,1.2
			c-0.4-0.4-1.2-0.7-1.3-0.2C125.6,296.4,125.1,297.9,124.5,299.4z M126.2,301L126.2,301c-0.2-0.2-0.3-0.3-0.4-0.4
			c0.7-1.7,1.3-3.4,1.8-5.1c0-0.1,0-0.3-0.1-0.4c0.3,0.4,0.6,0.7,0.9,1.1c-0.1,0-0.1,0.1-0.2,0.2c-0.6,1.3-1.1,2.6-1.7,3.9
			C126.4,300.5,126.2,300.8,126.2,301z M128.3,303.1c-0.2-0.2-0.5-0.5-0.7-0.7c0,0,0.1-0.1,0.1-0.2c0-0.1-0.1-0.2-0.1-0.3
			c0.1-0.1,0.3-0.6,0.3-0.6c0.5-1.3,1-2.5,1.6-3.8c0.4,0.4,0.7,0.9,1.1,1.3c-0.2,0-0.3,0.1-0.4,0.2
			C129.4,300.3,128.7,301.6,128.3,303.1z M130,304.7c-0.1-0.1-0.3-0.2-0.4-0.4c0,0,0,0,0,0c0.1,0,0.1-0.1,0.1-0.2
			c0.4-1.5,1-2.9,1.8-4.2c0.1,0.1,0.3,0.3,0.4,0.4c0,0-0.1,0.1-0.1,0.2C131.3,301.9,130.7,303.4,130,304.7z M132.1,305.9
			c-0.1,0.1-0.1,0.2-0.1,0.4c-0.3-0.2-0.5-0.3-0.8-0.5c0.8-1.4,1.5-2.7,2-4.2c0.4,0.4,0.8,0.7,1.2,1
			C133.7,303.8,133,305,132.1,305.9z M130.7,296.5c-1.7-2.1-3.3-4.2-4.9-6.4c0-0.1-0.1-0.2-0.2-0.3c-1.7-2.5-3.2-5.1-4.6-7.9
			c0.1-0.1,0.2-0.3,0.3-0.4c0.3-0.3-0.4-0.9-1-1c-0.3-0.6-0.6-1.2-0.8-1.8c-0.2-0.5-0.4-1.1-0.7-1.6c0,0,0,0,0.1-0.1
			c0.3-0.3-0.1-0.8-0.5-1c-1-2.8-1.8-5.6-2.4-8.5c-0.4-1.9-0.7-6,2.4-5.2c1.2,0.3,2.4,1,3.4,1.8c1.5,1.1,2.8,2.4,4,3.7
			c3.3,3.6,6.1,7.7,8.6,11.9c2.4,4.2,4.5,8.6,6,13.2c0.6,1.9,1.2,3.8,1.4,5.8c0.2,1.4,0.2,3.5-0.9,4.6c-0.2,0.2-0.5,0.3-0.7,0.4
			c-0.2,0-0.3,0-0.5,0c-1.3-0.1-2.8-1.3-3.6-1.8C134,300.4,132.3,298.4,130.7,296.5z M137.9,304.7c0.1,0,0.2,0.1,0.4,0.1
			c-0.2,0.2-0.4,0.3-0.7,0.5C137.6,305.1,137.8,304.9,137.9,304.7z"/>
		<g>
			<path class="st8" d="M61.6,257C61.6,257,61.6,257,61.6,257c0,0,0.1,0,0.3,0C61.8,257,61.8,257,61.6,257
				C61.7,257,61.7,257,61.6,257z"/>
			<g>
				<path class="st8" d="M66.7,279.7c-0.3-0.4-1.8-0.6-1.4,0.2c0.5,1.2,1.2,2.3,1.8,3.5c0.6,1.1,1.1,2.4,1.9,3.3
					c0.3,0.4,1.7,0.7,1.4-0.2c-0.4-1.2-1.2-2.3-1.8-3.5C67.9,281.9,67.4,280.7,66.7,279.7z"/>
				<path class="st8" d="M112.1,277.2c-0.2-0.6-0.9-0.4-1.3-0.7c-0.6-0.3-1.8,0.8-1.2,1.1c0.2,0.1,0.9,0.2,1,0.3
					c0.1,0.1,0,0.5,0,0.6c0,0.6,0,1.1,0,1.7c-0.4-0.7-0.8-1.4-1.2-2.1c-0.3-0.5-1.9-0.7-1.5,0.1c0.8,1.5,1.5,3,2.3,4.4
					c0.1,0.1,0.2,0.2,0.4,0.3c0,0.3,0,0.5,0,0.8c0,0.1,0,0.1,0,0.2c-0.5-0.7-1.1-1.3-1.6-2c-0.9-1.2-1.8-2.4-2.5-3.6
					c-0.1-0.2-0.4-0.3-0.7-0.4c1-0.2,1.9-0.6,2.8-1c0.6-0.3,1.3-0.8,1.5-1.4c0.2-0.5,0.1-1.2,0.1-1.7c0-1.9,0-3.8,0-5.7
					c0-0.2-0.2-0.3-0.4-0.3c0-0.1,0-0.1-0.1-0.2c-0.1-0.1-0.2-0.2-0.3-0.3c0.3-0.2,0.6-0.5,0.7-0.9c0.2-0.5,0.1-1.2,0.1-1.7
					c0-1.9,0-3.8,0-5.7c0-0.1,0-0.2-0.1-0.2c-0.3-0.8-1.4-1.3-2.3-1.6c-2.2-0.7-4.7-1.1-7-1.4c-2.6-0.3-5.1-0.6-7.7-0.7
					c-5.3-0.3-10.6-0.4-15.9-0.3c-3.4,0.1-6.8,0.3-10.1,0.5c-1.4,0.1-2.8,0.2-4.2,0.4c-0.7,0.1-2.2,0.2-2.2,1.3
					c0,0.4,0.5,0.3,0.8,0.1c0,0,0,0,0,0c0.3-0.2,0.6-0.5,0.6-0.8c0,0.5-0.1,0.7-0.3,0.8c0.1,0,0.2,0,0.2,0c0.5-0.1,0.9-0.1,1.4-0.2
					c1.2-0.1,2.4-0.2,3.5-0.3c2.1-0.1,4.2-0.3,6.4-0.4c9.3-0.4,18.9-0.3,28.1,1.1c1.9,0.3,4,0.5,5.8,1.3c0.4,0.2,0.8,0.4,1.1,0.6
					c0.4,0.4,0.4,0.7-0.1,0.9c-0.5,0.3-1.1,0.4-1.7,0.5c-0.2,0-0.4,0-0.5,0.1c-0.1,0-0.2,0-0.3,0.1c-0.4,0.1-0.8,0.2-1.3,0.3
					c-0.5-0.4-1.7-0.5-1.3,0.2c0,0,0,0,0,0c-0.5,0.1-1.1,0.2-1.6,0.3c-0.5-0.4-1.7-0.5-1.3,0.2c-0.4,0.1-0.8,0.1-1.2,0.2
					c0-0.1-0.1-0.1-0.2-0.2c-0.4-0.6-1.8-0.6-1.2,0.3c0,0,0,0,0,0.1c-0.3,0-0.6,0.1-0.9,0.1c-0.4-0.4-1.6-0.4-1.3,0.1
					c-1.2,0.1-2.4,0.2-3.6,0.3c-2.4,0.2-4.8,0.3-7.2,0.3c-0.2,0-0.4,0-0.5,0c-2,0-4-0.1-6-0.2c-4.8-0.2-9.6-0.3-14.4-0.9
					c-0.8-0.1-1.6-0.2-2.4-0.3c-0.2-0.1-0.3-0.1-0.5-0.1c-0.7-0.1-1.5-0.2-2.2-0.3c-0.3-0.3-1-0.5-1.2-0.2c-0.7-0.2-1.4-0.3-2-0.6
					c-0.1,0-0.1-0.1-0.2-0.1c-0.2-0.3-0.6-0.6-0.9-0.5c0,0,0,0-0.1,0c-0.3-0.2-0.6-0.5-0.4-0.8c0.3-0.4,1.5-0.7,2-0.8
					c1.1-0.3,2.3-0.6,3.4-0.8c0.7-0.1,1.3-1.4,0.2-1.2c-1.2,0.2-7.5,1.1-7.1,3.5c0,1.7,0,3.3,0,5c0,1.1-0.3,2.2,0.7,2.9
					c0.1,0.1,0.2,0.1,0.3,0.2c-0.4,0.1-1.1,0.5-1.1,1c0,1.7,0,3.4,0,5c0,1.1-0.3,2.2,0.7,2.9c0.5,0.3,1,0.6,1.5,0.8
					c-0.7,1.1-0.5,2.4-0.4,3.7c0.1,0.9,0,1.8,0,2.7c0,0.4-0.1,0.9,0.1,1.3c0,0.1,0.1,0.1,0.1,0.2c-0.1,0-0.3,0.1-0.5,0.2
					c-0.2,0.2-0.5,0.4-0.7,0.6c-0.1,0-0.2,0.1-0.2,0.2c-0.3,0.4-0.6,0.8-0.6,1.3c0,0.7,0,1.4,0,2.1c0,1.5-0.2,3.1,0,4.6
					c0.2,1.6,2.4,2.1,3.7,2.4c1.9,0.5,4,0.7,5.9,0.9c2.3,0.3,4.7,0.4,7.1,0.5c0.2,0.3,0.6,0.5,1,0.4c0.2,0,0.5-0.1,0.5-0.3
					c0.7,0,1.4,0.1,2.1,0.1c0.3,0.4,1.6,0.5,1.6,0.1c3.8,0.1,7.5,0.3,11.3,0.2c3.9-0.1,7.9-0.3,11.8-0.7c0.9-0.1,1.9-0.2,2.8-0.3
					c0.4,0.1,0.8,0.1,0.9-0.1c2.1-0.3,4.2-0.7,6.2-1.4c1.1-0.4,2.5-1.1,2.6-2.4c0-0.6,0-1.2,0-1.9c0-1.7,0-3.4,0-5
					c0-0.7-1.5,0-1.5,0.7c0,0,0,0.1,0,0.1c-0.1-0.3-0.3-0.6-0.4-0.9c0.9-0.2,1.8-0.5,2.5-1c0.5,0,0.9-0.2,0.7-0.6
					c0.4-0.4,0.5-0.8,0.5-1.3c0-0.9,0-1.9,0-2.8c0-1.1,0-2.2,0-3.2C112.1,277.7,112.1,277.4,112.1,277.2z M105.1,278.5
					c1.4,2.3,2.8,4.8,4.7,6.7c-0.3,0.1-0.6,0.2-0.9,0.3c-1.8-2.2-3.6-4.3-5.2-6.6c-0.1-0.2-0.4-0.3-0.7-0.4c0.7-0.1,1.4-0.2,2.1-0.4
					C105,278.2,105,278.3,105.1,278.5z M103.6,286.6c-0.5-1.2-1.4-2.4-2.1-3.5c-0.8-1.2-1.6-2.4-2.5-3.6c-0.1-0.2-0.4-0.3-0.6-0.4
					c0.4,0,0.8-0.1,1.2-0.1c0,0.1,0.1,0.2,0.1,0.2c1.6,2.4,3,4.9,4.7,7.2c-0.1,0-0.3,0.1-0.3,0.1
					C103.9,286.6,103.7,286.6,103.6,286.6z M104.9,295.7c-1.7-2.4-3.4-5-5-7.5c0.5-0.1,1.1-0.1,1.6-0.2c0.8,1.3,1.5,2.5,2.3,3.7
					c0.5,0.8,1.1,1.6,1.6,2.4c0.3,0.5,0.6,0.9,0.9,1.2C105.9,295.5,105.4,295.6,104.9,295.7z M101.1,296.4c-0.6-1.3-1.4-2.6-2.1-3.9
					c-0.7-1.3-1.4-2.6-2.1-3.9c0.6,0,1.1-0.1,1.7-0.2c1.4,2.7,3,5.2,4.7,7.6C102.6,296.2,101.8,296.3,101.1,296.4z M92.8,287.6
					c-0.8-1.3-1.8-2.4-2.7-3.6c-0.9-1.2-1.8-2.3-2.7-3.5c-0.4-0.6-1.8-0.7-1.2,0.3c1.6,2.3,3.2,4.8,5,6.9c-0.5,0-0.9,0-1.4,0.1
					c0,0,0,0,0,0c-0.8-1.3-1.8-2.4-2.7-3.6c-0.8-1.1-1.7-2.3-2.5-3.4c-0.3-0.5-1.8-0.6-1.3,0.2c0.9,1.3,1.7,2.6,2.6,3.9
					c0.7,1,1.4,2.1,2.3,3.1c-0.4,0-0.9,0-1.3,0c0,0,0-0.1-0.1-0.1c-1.5-2.5-3.3-5-5.3-7.1c-0.3-0.3-1.6-0.5-1.1,0.3
					c0.8,1.2,1.7,2.3,2.5,3.5c0.8,1.1,1.5,2.3,2.3,3.4c-0.5,0-1,0-1.4,0c-0.1-0.1-0.1-0.1-0.2-0.2c0-0.1,0-0.2-0.1-0.2
					c-1.7-2.6-3.7-5.1-5.9-7.1c-0.5-0.4-1.6-0.4-1,0.5c0.8,1.1,1.8,2.2,2.6,3.3c1,1.2,1.9,2.5,2.8,3.8c0,0,0,0,0.1,0.1
					c-0.4,0-0.8,0-1.2,0c0.1-0.1,0.1-0.2-0.1-0.4c-0.8-1.2-1.8-2.2-2.7-3.4c-0.9-1.2-1.8-2.4-2.8-3.5c-0.3-0.4-1.8-0.6-1.2,0.3
					c0.8,1.3,1.8,2.6,2.8,3.8c0.8,1.1,1.7,2.2,2.6,3.2c0,0,0,0,0.1,0.1c-0.1,0-0.3,0-0.4,0c-0.3-0.1-0.7-0.2-0.9,0c0,0,0,0,0,0
					c-1.7-2.5-3.6-4.9-5.3-7.4c-0.4-0.6-1.8-0.7-1.2,0.3c1.5,2.4,3.1,4.9,4.9,7.1c-0.6,0-1.1,0-1.7-0.1c0,0,0-0.1,0-0.2
					c-0.6-1.3-1.5-2.5-2.3-3.7c-0.9-1.3-1.8-2.6-3-3.7c-0.3-0.3-1.3-0.4-1,0.3c0.5,1.2,1.6,2.3,2.4,3.4c0.8,1.2,1.5,2.5,2.4,3.7
					c-0.8,0-1.5-0.1-2.3-0.1c-0.4-0.2-1-0.3-1.1-0.1c-0.9-0.1-1.9-0.2-2.8-0.3c0-0.1-0.1-0.1-0.1-0.2c0,0,0-0.1-0.1-0.1
					c0-0.1,0-0.1,0-0.2c-0.9-2.4-1.9-4.8-2.8-7.3c0-0.1-0.1-0.1-0.1-0.2c1.3,0.1,2.5,0.2,3.8,0.3c8.3,0.6,16.7,0.7,25.1,0.1
					c1.5-0.1,3-0.2,4.5-0.4c-0.1,0.1-0.1,0.3,0.1,0.5c0.8,1.2,1.6,2.4,2.3,3.6c0.6,1,1.2,2.3,1.9,3.3c-0.4-0.3-1-0.4-1.2-0.1
					c-0.7-1-1.6-1.9-2.2-2.9c-0.7-1.1-1.3-2.3-2.3-3.2c-0.6-0.6-1.7-0.2-0.9,0.6c0.9,0.9,1.4,2.3,2.1,3.4c0.6,1,1.3,2,2.1,2.8
					c-0.3,0-0.7,0.1-1,0.1c-1.4-2.1-3-4.2-4.4-6.3c-0.3-0.5-1.7-0.7-1.3,0.2c1.2,2.2,2.5,4.4,4.1,6.2c-0.4,0-0.7,0.1-1.1,0.1
					c-1.3-2.3-2.9-4.6-4.7-6.5c-0.2-0.2-0.6-0.6-0.9-0.4c-0.3,0.1-0.3,0.4-0.1,0.7c0.6,1.1,1.5,2,2.2,3c0.7,1.1,1.4,2.2,2.1,3.2
					C93.9,287.6,93.3,287.6,92.8,287.6z M89.1,297.3c-1.4-2.8-3-5.5-4.5-8.3c0.5,0,1.1,0,1.6,0c0.6,1.3,1.3,2.6,2,3.8
					c0.8,1.4,1.5,3.1,2.6,4.4C90.2,297.3,89.6,297.3,89.1,297.3z M86.4,297.2c-1.9-2.8-4-5.5-6.1-8.2c1,0,2,0,3,0
					c1.4,2.8,2.7,5.6,4.2,8.3c-0.4,0-0.7,0-1.1,0C86.4,297.3,86.4,297.3,86.4,297.2z M92.2,297.1c-0.7-1.4-1.6-2.8-2.4-4.1
					c-0.8-1.3-1.5-2.6-2.2-3.9c0.5,0,1.1,0,1.6,0c0.7,1.2,1.4,2.5,2.1,3.7c0.9,1.5,1.8,3.1,3,4.4c-0.7,0.1-1.4,0.1-2.1,0.1
					C92.3,297.1,92.2,297.1,92.2,297.1z M79.2,297.4c-0.6-1.4-1.4-2.7-2.1-4c-0.8-1.5-1.5-3-2.3-4.5c0.3,0,0.7,0,1,0
					c-0.1,0.1,0,0.2,0.1,0.4c0.8,1.3,1.6,2.7,2.4,4c0.8,1.4,1.6,2.9,2.7,4.1c0,0,0,0,0,0C80.4,297.4,79.8,297.4,79.2,297.4z
					 M70.7,288.7c1.4,2.8,2.8,5.5,4.3,8.3c0.1,0.1,0.2,0.3,0.4,0.3c-0.5,0-1,0-1.5-0.1c-1.9-2.9-3.8-5.8-5.7-8.7
					C69,288.5,69.8,288.6,70.7,288.7z M76.4,296.8c-1.3-2.7-2.8-5.4-4.3-8c0.5,0,1,0.1,1.5,0.1c0.7,1.4,1.3,2.9,2,4.3
					c0.7,1.4,1.3,2.9,2.1,4.2c-0.5,0-1,0-1.4,0C76.4,297.2,76.5,297.1,76.4,296.8z M61,296.2c-0.1,0-0.1-0.1-0.2-0.1
					c0.1-0.1-0.3-0.7-0.4-0.9c-0.2-0.4-0.4-0.8-0.6-1.2c-0.4-0.8-0.9-1.7-1.3-2.5c-0.8-1.6-1.5-3.1-2-4.8c0-0.1-0.1-0.2-0.2-0.3
					c0.5,0.2,1,0.3,1.5,0.4c0,0.1,0,0.1,0.1,0.2c1.3,3.1,2.6,6.1,3.8,9.2C61.5,296.2,61.2,296.2,61,296.2z M57.7,295.7
					c-1.1-2.8-2.7-5.6-3-8.6c0-0.1-0.1-0.3-0.2-0.4c0.1-0.1,0.3-0.2,0.3-0.2c0.3-0.2,0.4-0.4,0.4-0.6c0.1,0.1,0.2,0.1,0.3,0.2
					c-0.2,0-0.3,0.2-0.2,0.5c0.5,2,1.4,3.9,2.3,5.7c0.5,1,1,2,1.5,3c0.1,0.3,0.2,0.5,0.4,0.8C58.8,295.9,58.3,295.8,57.7,295.7z
					 M56.4,284.7c-0.7-0.5-0.4-1.4-0.4-2.2c0-0.4,0-0.9,0-1.3c0.7,1.6,1.5,3.2,2.7,4.5C57.8,285.5,57,285.1,56.4,284.7z M63.2,296.3
					c-1.3-3.1-2.6-6.1-4-9.1c0.3,0.1,0.7,0.1,1,0.2c0.9,3.2,2.6,6.2,4.1,9.2c-0.4,0-0.7-0.1-1.1-0.1
					C63.3,296.4,63.3,296.4,63.2,296.3z M62.2,286c-1.2-2.7-2.7-5.3-4.3-7.8c0.2,0,0.4,0.1,0.6,0.1c0.4,0.1,0.8,0.1,1.2,0.2
					c1.2,2.3,2.2,4.7,3.2,7.1c0.1,0.4,0.5,0.7,0.9,0.7c0.3,0,0.7-0.1,0.6-0.5c-1-2.4-2.1-4.8-3.3-7.1c0.6,0.1,1.1,0.2,1.7,0.2
					c0,0.1,0,0.1,0,0.2c0.8,2.5,1.7,5,2.7,7.4c0,0.1,0.1,0.2,0.2,0.3c-1.2-0.1-2.3-0.3-3.5-0.5C62.3,286.3,62.3,286.2,62.2,286z
					 M105.9,286.2c-1.5-2.5-3.4-4.9-5-7.3c0,0-0.1-0.1-0.1-0.1c0.5-0.1,0.9-0.1,1.4-0.2c-0.1,0.1-0.1,0.2,0.1,0.4
					c1.4,2.1,2.9,4.4,4.6,6.3c-0.3,0-0.5,0.2-0.4,0.5c0,0.1,0.1,0.2,0.1,0.3C106.3,286.2,106.1,286.2,105.9,286.2z M108.8,260.9
					c0,0.7,0,1.4,0,2.1c-0.3-0.5-0.7-1.1-1-1.6C108.1,261.3,108.5,261.1,108.8,260.9z M106.4,261.8c0.6,1.2,1.3,2.4,2,3.5
					c0.1,0.1,0.2,0.2,0.4,0.3c0,0.3,0,0.6,0,0.9c0,0,0,0,0,0c-0.5-0.6-1.1-1.2-1.6-1.9c-0.7-0.8-1.3-1.7-1.9-2.6
					C105.6,262,106,261.9,106.4,261.8z M103.9,262.3c1.1,1.7,2.2,3.4,3.6,4.9c-0.3,0.1-0.6,0.2-0.9,0.3c-1.4-1.6-2.8-3.2-4.1-4.9
					C102.9,262.5,103.4,262.4,103.9,262.3z M101.1,262.8c1.2,1.7,2.5,3.5,3.9,5c-0.5,0.1-0.9,0.2-1.3,0.2c-1.1-1.8-2.5-3.4-3.7-5.1
					C100.3,263,100.7,262.9,101.1,262.8z M98.6,263.2c1.2,1.7,2.3,3.5,3.5,5.2c-0.2,0-0.5,0.1-0.7,0.1c-0.5-1-1.2-1.9-1.8-2.8
					c-0.6-0.8-1.1-1.6-1.7-2.4C98.2,263.3,98.4,263.2,98.6,263.2z M96.5,263.4c0.6,0.8,1.1,1.6,1.7,2.5c0.6,0.9,1.1,1.9,1.7,2.8
					c-0.3,0-0.7,0.1-1,0.1c-0.7-0.9-1.5-1.7-2.2-2.7c-0.6-0.9-1.1-1.8-1.8-2.6C95.4,263.6,95.9,263.5,96.5,263.4z M93.5,263.7
					c0.9,0.9,1.3,2.1,2,3.1c0.5,0.7,1,1.5,1.6,2.1c-0.3,0-0.6,0.1-0.9,0.1c-1.2-1.8-2.6-3.5-3.9-5.3
					C92.8,263.8,93.2,263.7,93.5,263.7z M91.1,263.9c1,1.8,2.2,3.7,3.6,5.3c-0.2,0-0.3,0-0.5,0c-0.2,0-0.3,0-0.5,0
					c-1.1-1.9-2.6-3.7-4.1-5.3C90.1,264,90.6,263.9,91.1,263.9z M88.3,264.1c0.6,1,1.4,1.9,2.1,2.8c0.6,0.8,1.2,1.7,1.7,2.5
					c-0.5,0-1.1,0.1-1.6,0.1c-0.7-1-1.6-1.9-2.3-2.9c-0.7-0.8-1.3-1.6-1.9-2.4C87,264.1,87.6,264.1,88.3,264.1z M84.9,264.1
					c1.3,1.8,2.6,3.7,4,5.4c-0.4,0-0.9,0-1.3,0c-0.7-1-1.6-2-2.4-2.9c-0.6-0.8-1.3-1.7-1.9-2.5C83.8,264.1,84.3,264.1,84.9,264.1z
					 M81.9,264.1c0.7,1.1,1.5,2.1,2.2,3.1c0.6,0.8,1.2,1.6,1.8,2.4c-0.4,0-0.8,0-1.1,0c-1.2-2-2.7-3.9-4.3-5.6
					C80.9,264.1,81.4,264.1,81.9,264.1z M78.9,264c0.7,1,1.5,2,2.2,2.9c0.7,0.9,1.3,1.8,1.9,2.7c-0.5,0-1,0-1.4,0
					c-1.4-2-3.1-4-4.9-5.8C77.5,263.9,78.2,264,78.9,264z M75.1,263.8c0.8,0.9,1.6,1.8,2.4,2.7c0.8,1,1.6,2.1,2.4,3.1
					c-0.3,0-0.6,0-1,0c-0.8-1.1-1.8-2-2.6-3c-0.8-0.9-1.6-1.9-2.4-2.8C74.3,263.8,74.7,263.8,75.1,263.8z M72.4,263.7
					c0.8,1.2,1.7,2.3,2.6,3.4c0.7,0.8,1.4,1.7,2.1,2.5c-0.4,0-0.8,0-1.1,0c-1.4-2-3-3.9-4.5-5.9C71.8,263.7,72.1,263.7,72.4,263.7z
					 M70.1,263.6c1.3,2,2.7,4.1,4.2,5.9c-0.5,0-1,0-1.5-0.1c-0.6-1.1-1.3-2.1-2.1-3c-0.7-1-1.5-2-2.4-2.9
					C69,263.5,69.5,263.6,70.1,263.6z M66.9,263.4c0.6,1.1,1.6,2.1,2.3,3.1c0.7,0.9,1.3,1.9,1.9,2.9c-0.2,0-0.4,0-0.6,0
					c-0.7,0-1.3-0.1-2-0.1c0-0.1,0-0.2,0-0.3c-0.4-1.2-1.2-2.2-1.8-3.3c-0.5-0.8-0.9-1.6-1.4-2.4C65.9,263.3,66.4,263.3,66.9,263.4z
					 M63.6,263.1c0.5,1,1.1,1.9,1.6,2.9c0.6,1,1.1,2.2,1.9,3.1c-0.7-0.1-1.3-0.1-2-0.2c-0.8-2-1.6-3.9-2.4-5.9
					C63,263,63.3,263,63.6,263.1z M61.4,262.8c0.7,2,1.4,3.9,2.2,5.9c-0.3,0-0.6-0.1-0.9-0.1c0-0.1,0-0.1,0-0.2
					c-0.8-2-1.8-3.8-2.7-5.7C60.4,262.7,60.9,262.8,61.4,262.8z M58.4,262.4c1,1.9,1.8,3.8,2.7,5.7c0,0.1,0.1,0.1,0.1,0.2
					c-0.1,0-0.1,0-0.2,0c-0.3,0-0.5-0.1-0.8-0.1c-1-2.1-2.2-4.1-3.5-6.1C57.3,262.3,57.9,262.4,58.4,262.4z M54.2,261.3
					c0.3,0.1,0.6,0.3,1,0.4c1.1,2.1,2.3,4.2,3.5,6.2c-0.3-0.1-0.5-0.1-0.8-0.2c-1.5-1.5-2.3-3.6-3.1-5.5c-0.1-0.2-0.3-0.3-0.5-0.5
					C54.2,261.6,54.2,261.5,54.2,261.3z M54.2,264.4c0-0.2,0-0.3,0-0.5c0.5,1.2,1.1,2.3,1.9,3.3c-0.3-0.1-0.5-0.2-0.7-0.3
					c-0.4-0.2-1-0.5-1.1-0.9C54,265.5,54.2,264.9,54.2,264.4z M54.2,275.1c-0.1-0.5,0-1.2,0-1.7c0-1.8,0-3.6,0-5.3c0,0,0,0,0,0
					c1.3,0.7,3,0.9,4.4,1.2c3.1,0.6,6.3,0.9,9.4,1.2c7.4,0.6,14.8,0.6,22.1,0.3c0.2,0.1,0.4,0.1,0.6,0.1c0.1,0,0.2-0.1,0.3-0.2
					c0.7,0,1.3-0.1,2-0.1c0,0,0,0,0,0c0.4,0.2,1.2,0.3,1.3-0.1c1.4-0.1,2.8-0.2,4.1-0.4c0.2,0,0.3,0.1,0.5,0c0.1,0,0.2-0.1,0.3-0.1
					c0.5-0.1,1.1-0.1,1.6-0.2c0.4,0.2,1.1,0.2,1.1-0.2c0.3,0,0.6-0.1,0.9-0.1c0.2,0,0.3-0.1,0.5-0.1c0.4,0.1,0.8,0,0.9-0.2
					c0.6-0.1,1.2-0.2,1.7-0.4c0,0,0,0,0,0c0.4,0.3,1.8,0.2,1.4-0.4c0.3-0.1,0.6-0.3,0.9-0.4c0,0,0,0,0.1,0.1
					c0.1,0.1,0.4,0.2,0.7,0.2c-0.2,0.2-0.3,0.4-0.3,0.6c0,1.5,0,3.1,0,4.6c0,0.7,0,1.4,0,2.2c0,0.1,0,0.1,0,0.1c0,0,0,0,0,0
					c0.1-0.1,0,0-0.2,0.1c-1.4,0.8-3.4,1.1-5.1,1.4c-3,0.5-6.1,0.8-9.2,1.1c-7.9,0.6-15.8,0.6-23.7,0.1c-3.2-0.2-6.3-0.5-9.5-1
					c-1.9-0.3-4-0.6-5.8-1.4C54.9,275.8,54.3,275.5,54.2,275.1z M56.5,277.9c1.4,2.7,2.8,5.5,4.4,8.2c0,0,0,0,0,0.1
					c-0.3-0.1-0.6-0.1-0.9-0.2c0.1-0.2,0-0.4-0.3-0.6c-1.5-1.6-2.4-3.8-3.2-5.9c-0.1-0.2-0.4-0.4-0.7-0.5c0-0.4,0.1-0.7,0.2-1.1
					C56.2,277.9,56.3,277.9,56.5,277.9z M54.2,293.4c0-0.8,0-1.6,0-2.4c0-0.1,0-0.3,0-0.4c0.1,0.2,0.1,0.4,0.2,0.5
					c0.6,1.4,1.1,2.8,1.7,4.2c-0.5-0.2-1-0.4-1.4-0.8C54.2,294.2,54.2,293.8,54.2,293.4z M66,296.7c-1.5-2.9-3.3-5.9-4.3-9
					c1.3,0.2,2.6,0.4,3.9,0.5c0.4,0,0.8,0.1,1.2,0.1c1.8,3,3.6,5.9,5.5,8.8c-0.7,0-1.4-0.1-2.1-0.1c-2-2.8-3.9-5.6-5.7-8.5
					c-0.3-0.5-1.7-0.7-1.3,0.1c1.7,2.8,3.5,5.5,5.4,8.2c-0.6,0-1.2-0.1-1.8-0.1C66.4,296.8,66.2,296.7,66,296.7z M82.5,297.4
					c0-0.1,0-0.1-0.1-0.2c-0.8-1.5-1.9-2.8-2.8-4.2c-0.8-1.2-1.6-2.5-2.3-3.7c-0.1-0.1-0.2-0.2-0.4-0.3c0.7,0,1.3,0,2,0.1
					c2,2.8,3.9,5.7,6,8.4c0,0,0,0,0,0C84.1,297.4,83.3,297.4,82.5,297.4z M95.9,296.9C95.9,296.9,95.9,296.9,95.9,296.9
					c-0.9-1.5-2-2.8-2.9-4.2c-0.8-1.3-1.6-2.5-2.4-3.8c0.6,0,1.2-0.1,1.8-0.1c1.5,2.4,3,5,4.8,7.2c0.3,0.4,1.9,0.3,1.5-0.3
					c-1.5-2.4-3.3-4.7-4.9-7c0.5,0,1.1-0.1,1.6-0.1c0.7,1.3,1.3,2.7,2,4c0.6,1.3,1.2,2.6,1.9,3.9c-0.2,0-0.3,0-0.5,0.1
					C97.9,296.7,96.9,296.8,95.9,296.9z M108.1,294.9c-0.1,0-0.2,0.1-0.3,0.1c-0.5-0.3-0.9-1.1-1.2-1.6c-0.5-0.7-1-1.4-1.5-2.1
					c-0.8-1.1-1.6-2.3-2.3-3.4c0.5-0.1,1-0.2,1.6-0.2c0.5,1.1,1.1,2.1,1.7,3.1c0.7,1.2,1.5,2.7,2.5,3.7c0,0,0,0,0.1,0.1
					C108.5,294.6,108.4,294.7,108.1,294.9z M108.8,291.2c0,0.3,0,0.7,0,1c-0.4-0.5-0.8-1-1.1-1.6c-0.7-1.1-1.3-2.2-1.9-3.3
					c0.4-0.1,0.8-0.2,1.2-0.3c0.4,1.1,0.7,2.2,1.3,3.1c0.1,0.1,0.3,0.2,0.5,0.3C108.8,290.8,108.8,291,108.8,291.2z"/>
				<path class="st8" d="M111.4,297.6c0-0.3,0-0.7,0-1c-0.1-0.5-0.5-0.7-0.9-1.1c-0.4-0.5-1.8,0.4-1.4,0.9c0.2,0.3,0.7,0.5,0.8,0.8
					c0.1,0.2,0,0.6,0,0.9c0,1,0,2,0,3.1c0,0.9,0,1.8,0,2.7c0,0.1,0,0.6,0,0.4c0,0.1,0.1,0-0.1,0.1c0,0-0.3,0.2-0.5,0.3
					c-0.3,0.2-0.7,0.3-1.1,0.4c-1,0.3-2.1,0.6-3.1,0.8c-3,0.6-6.2,0.9-9.2,1.1c-8.2,0.6-16.5,0.7-24.8,0.2c-3.4-0.2-6.7-0.5-10-1
					c-2.1-0.3-4.3-0.6-6.2-1.5c-0.4-0.2-1.1-0.5-1.2-0.9c-0.2-0.5,0-1.2,0-1.7c0-1.9,0-3.7,0-5.6c0-0.7-1.5,0-1.5,0.7
					c0,1.7,0,3.5,0,5.2c0,1.2-0.3,2.3,0.8,3c1.6,1.1,3.8,1.4,5.6,1.7c3.4,0.6,6.8,0.9,10.3,1.2c8.6,0.6,17.4,0.6,26-0.1
					c3.3-0.2,6.6-0.6,9.9-1.2c1.8-0.4,4-0.7,5.6-1.8c1.4-1,1.1-2.3,1.1-3.8C111.4,300,111.4,298.8,111.4,297.6z"/>
			</g>
		</g>
		<g>
			<path class="st9" d="M91.3,220.1c-0.2-0.3-0.7-0.6-1.1-0.5c-0.3,0-0.5,0.3-0.3,0.6c0.4,0.5,0.8,1.1,1.1,1.6
				c0.3,0.6,0.6,1.2,1,1.8c0.2,0.3,1.5,0.7,1.3,0C93.1,222.3,92.1,221.1,91.3,220.1z"/>
			<path class="st9" d="M92.2,218.4c-0.2-0.6-1.7-1.1-1.4-0.2c0.6,1.6,1.4,3.3,2.4,4.6c0.2,0.3,0.6,0.5,1,0.5c0.3,0,0.5-0.3,0.3-0.6
				C93.7,221.3,92.8,220,92.2,218.4z"/>
			<path class="st9" d="M92.9,217.1c-0.2-0.3-0.6-0.7-0.9-0.6c-0.4,0.1-0.4,0.4-0.2,0.7c1.3,2.1,2.7,4.1,4.6,5.7
				c0.3,0.2,0.7,0.5,1.1,0.3c0.3-0.2,0.3-0.5,0-0.7C95.8,220.8,94.2,219.1,92.9,217.1z"/>
			<path class="st9" d="M96.8,218.8c-1-1.1-2-2.3-2.8-3.5c-0.4-0.6-1.8-0.7-1.2,0.2c1.8,2.6,3.9,5.1,6.3,7.1c0.5,0.4,1.7,0.2,1-0.5
				C99,221,97.8,220,96.8,218.8z"/>
			<path class="st9" d="M97.2,211.9c-0.5-0.6-1.8-0.5-1.1,0.4c2.2,2.8,4.4,5.6,6.7,8.4c0.1,0.1,0.1,0.1,0.2,0.2
				c-0.2-0.1-0.5-0.1-0.7,0c-0.2-0.2-0.5-0.5-0.6-0.6c-0.3-0.3-0.7-0.7-1-1c-0.6-0.6-1.2-1.3-1.8-2c-1.1-1.3-2.2-2.7-3.1-4.2
				c-0.2-0.3-0.6-0.7-1-0.6c-0.4,0.1-0.4,0.4-0.2,0.7c1.3,2.1,2.8,4.1,4.5,6c0.8,0.9,3,3.9,4.6,2.7c0.3-0.3,0-0.7-0.5-0.9
				c0.6,0.2,1.4,0,0.9-0.6C101.8,217.5,99.5,214.7,97.2,211.9z"/>
			<path class="st9" d="M99.7,210.5c-0.6-0.6-1.6-0.3-0.9,0.5c2.3,2.5,4.4,5.1,6.4,7.8c0.4,0.5,1.9,0.5,1.3-0.3
				C104.4,215.7,102.1,213,99.7,210.5z"/>
			<path class="st9" d="M107,214.9c-1.2-1.7-2.6-3.2-4-4.8c-0.4-0.5-1.7-0.3-1,0.4c1.3,1.4,2.4,2.9,3.6,4.5c0.6,0.8,1.1,1.5,1.6,2.3
				c0.5,0.8,0.9,1.6,1.6,2.3c0.2,0.3,1.6,0.6,1.3-0.1C109.4,217.8,108.1,216.3,107,214.9z"/>
			<path class="st9" d="M108.9,214.3c-0.9-1.3-1.7-2.6-2.6-3.8c-0.3-0.5-1.7-0.6-1.3,0.1c0.8,1.2,1.6,2.5,2.4,3.7
				c0.8,1.2,1.5,2.5,2.4,3.6c0.4,0.4,1.8,0.8,1.4-0.2C110.6,216.5,109.7,215.4,108.9,214.3z"/>
			<path class="st9" d="M110.6,213.7c-0.8-1-1.6-2-2.4-2.9c-0.2-0.2-0.7-0.6-1-0.5c-0.3,0.1-0.3,0.5-0.1,0.7
				c0.8,0.9,1.5,1.9,2.2,2.8c0.7,0.9,1.3,2,2,2.9c0.3,0.4,1.7,0.6,1.2-0.2C112,215.5,111.3,214.6,110.6,213.7z"/>
			<path class="st9" d="M111,209.9c-0.4-0.6-1.7-0.7-1.2,0.2c0.9,1.6,1.8,3.2,2.8,4.8c0.3,0.5,1.8,0.7,1.3-0.2
				C113.1,213.1,112,211.5,111,209.9z"/>
			<path class="st9" d="M113.4,211.2c-0.2-0.3-0.7-0.6-1.1-0.4c-0.4,0.1-0.3,0.5-0.1,0.7c0.6,0.9,1.2,1.7,1.8,2.6
				c0.2,0.3,0.6,0.6,1.1,0.5c0.3,0,0.5-0.3,0.3-0.6C114.8,212.9,114.1,212.1,113.4,211.2z"/>
			<path class="st9" d="M116.3,211.5c-0.4-0.4-0.7-0.8-1.1-1.2c-0.2-0.3-0.7-0.5-1.1-0.4c-0.4,0.1-0.3,0.5-0.1,0.7
				c0.4,0.4,0.7,0.9,1.1,1.3c0.2,0.3,0.7,0.5,1.1,0.4C116.6,212.1,116.5,211.8,116.3,211.5z"/>
		</g>
		<g>
			<path class="st9" d="M91.4,207.1c-0.4-0.6-1.6-0.9-1.2,0.1c0.7,1.6,1.7,3.2,2.7,4.5c0.3,0.4,1.7,0.7,1.3-0.1
				C93.3,210,92.3,208.6,91.4,207.1z"/>
			<path class="st9" d="M92.5,198.4c-0.1-0.4-0.4-0.7-0.8-0.8c-0.3-0.1-0.7-0.1-0.7,0.3c0.3,1.4,0.6,2.8,1,4.2
				c-0.5-0.2-1.1-0.2-0.9,0.4c0.8,2.4,1.8,4.9,3.1,7.1c0.3,0.4,1.8,0.7,1.4,0c-0.3-0.6-0.6-1.2-0.9-1.8c0.5,0.2,1.2,0.2,1-0.3
				C94.4,204.5,93.2,201.6,92.5,198.4z"/>
			<path class="st9" d="M95.3,201.6c-0.7-1.7-1.3-3.4-1.9-5.1c-0.2-0.6-1.6-1.1-1.3-0.2c0.5,1.7,1.1,3.4,1.7,5
				c0.6,1.6,1.2,3.3,2.1,4.7c0.2,0.4,1.7,0.9,1.4,0.1C96.7,204.7,95.9,203.2,95.3,201.6z"/>
			<path class="st9" d="M95,195.4c-0.2-0.5-1.7-0.9-1.4-0.2c0.4,1.3,0.9,2.5,1.3,3.8c0.4,1.3,0.8,2.6,1.4,3.8c0.2,0.4,1.6,0.8,1.4,0
				C97,200.3,95.9,197.8,95,195.4z"/>
			<path class="st9" d="M96.8,193.5c-0.1-0.3-0.5-0.7-0.9-0.7c-0.3,0-0.6,0.2-0.4,0.5c0.7,1.9,1.3,4,2.2,5.8c0.2,0.4,1.6,1,1.4,0.1
				C98.6,197.3,97.6,195.3,96.8,193.5z"/>
			<path class="st9" d="M98.8,192.7c-0.1-0.3-0.6-0.6-0.9-0.6c-0.2,0-0.6,0.1-0.5,0.4c0.3,0.9,0.5,1.9,0.9,2.8
				c0.1,0.4,0.5,0.6,0.9,0.7c0.3,0,0.7-0.1,0.6-0.4C99.5,194.6,99.2,193.6,98.8,192.7z"/>
			<path class="st9" d="M100.2,191.8c-0.2-0.3-0.6-0.6-1-0.6c-0.4,0-0.3,0.5-0.2,0.7c0.2,0.3,0.6,0.6,1,0.6
				C100.4,192.5,100.3,192.1,100.2,191.8z"/>
		</g>
		<g>
			<path class="st9" d="M53.5,208.6c1.5,0.7,3,1.4,4.5,2.1c0.8,0.4,1-0.6,0.3-1c-1.5-0.7-3.1-1.4-4.6-2.2
				C52.7,207.1,52.7,208.2,53.5,208.6z"/>
			<path class="st9" d="M52.8,210.5c2.4,0.7,4.7,1.3,7.1,2c0.3,0.1,0.7,0,0.8-0.4c0-0.4-0.5-0.6-0.8-0.7c-2.5-0.6-4.9-1.4-7.3-2.1
				c-0.3-0.1-0.6,0.1-0.6,0.4C52,210.2,52.5,210.4,52.8,210.5z"/>
			<path class="st9" d="M61.7,214.8c1.1,0.2,0.8-0.9-0.1-1c-3.1-0.4-6.1-1.1-9.1-1.9c-0.3-0.1-0.6,0.1-0.6,0.4
				c0,0.4,0.6,0.6,0.9,0.7C55.8,213.8,58.7,214.3,61.7,214.8z"/>
			<path class="st9" d="M53.4,215.6c3.7,1.1,7.5,2,11.4,2.6c0.3,0.1,0.7-0.1,0.7-0.4c0-0.4-0.6-0.5-0.9-0.6
				c-3.8-0.7-7.5-1.6-11.1-2.7C52.4,214.3,52.5,215.4,53.4,215.6z"/>
			<path class="st9" d="M54.4,217c-1-0.4-0.9,0.7-0.1,1c2.1,0.8,4.3,1.5,6.5,2.1c2.1,0.5,4.3,0.7,6.3,1.4c0.3,0.1,0.9,0.2,1.1-0.1
				c0.2-0.3-0.1-0.6-0.4-0.7c-1.8-0.8-4.1-0.9-6-1.4C59.2,218.7,56.8,217.9,54.4,217z"/>
			<path class="st9" d="M61.2,222.8c1.4,0.4,2.8,0.8,4.2,1.1c1.3,0.3,3.1,0.4,4.3,1.2c0.3,0.2,0.8,0.3,1.2,0.1
				c0.3-0.2,0.4-0.5,0.1-0.7c-1.2-0.7-2.6-0.9-3.9-1.2c-1.5-0.3-2.9-0.7-4.3-1.1c-3.1-0.9-6.2-1.9-9.3-3.1c-0.9-0.4-1.3,0.6-0.4,0.9
				C55.6,221,58.4,222,61.2,222.8z"/>
			<path class="st9" d="M71,226.8c0.7,0.3,1.9-0.4,0.9-0.8c-5.9-2.4-12.5-1.7-18.6-3.7c-1-0.3-0.9,0.8-0.1,1
				C59,225.1,65.3,224.4,71,226.8z"/>
			<path class="st9" d="M72.4,228.7c0.3,0.1,0.9,0.1,1-0.2c0.2-0.3-0.2-0.6-0.5-0.7c-3.2-0.9-6.5-1.3-9.8-1.6
				c-3.1-0.3-6.3-0.5-9.1-1.9c-0.9-0.4-1.4,0.4-0.5,0.9c2.8,1.4,5.8,1.8,8.9,2C65.8,227.4,69.1,228,72.4,228.7z"/>
			<path class="st9" d="M73.5,229.2c-5.2-2.1-11.1-0.5-16.4-1.9c-1.1-0.3-0.8,0.8,0,1c5.2,1.4,10.6,0,15.7,1.7
				C73.4,230.3,74.4,229.6,73.5,229.2z"/>
			<path class="st9" d="M74.7,232.8c0.2-0.3,0.1-0.6-0.3-0.7c-5.3-1.7-11.1-0.9-16.3-3.1c-0.3-0.1-0.7-0.1-0.8,0.3
				c-0.1,0.4,0.5,0.7,0.7,0.8c5,2,10.5,1.4,15.5,2.9C73.8,233,74.4,233.1,74.7,232.8z"/>
			<path class="st9" d="M76.2,233.8c-5.5-0.9-12,0.7-16.8-2.7c-0.7-0.5-1.7,0-0.8,0.7c5.1,3.6,11.4,2,17.2,3
				C76.6,234.9,77.3,233.9,76.2,233.8z"/>
			<path class="st9" d="M76.8,237.3c-1.5-0.2-3.1-0.4-4.6-0.7c1.6,0.1,3.1,0.1,4.7,0.1c0.3,0,0.8-0.1,0.7-0.6
				c-0.1-0.4-0.8-0.5-1.1-0.5c-3.9,0.4-8.2-0.4-11.9-1.5c-1.1-0.3-0.9,0.8,0,1c1.8,0.5,3.7,0.9,5.6,1.2c-0.1,0.1-0.1,0.2-0.1,0.3
				c0.1,0.4,0.6,0.6,0.9,0.7c2,0.4,3.9,0.6,5.9,0.9C78,238.5,77.7,237.4,76.8,237.3z"/>
		</g>
		<path class="st8" d="M119.1,185.4c0-0.2-0.2-0.3-0.4-0.4c0.2-0.3-0.1-0.7-0.8-0.6c-7.9,1.7-16.2,3.5-23.1,8.2
			c-0.5,0.3-1,0.7-1.5,1.1c-0.2,0-0.3,0.1-0.4,0.2c0,0,0,0.1-0.1,0.1c-4.8,3.9-8.4,9.3-8.7,15.6c-0.2,4.8,1.3,9.4,3.4,13.6
			c-3.3,5.9-5.2,12.4-6.2,19.1c-0.3-0.9-0.6-1.9-1-2.8c0-0.1,0-0.1,0-0.2c-0.9-3.2,0-6.6,0.4-9.8c0.4-3.4,0.2-6.8-1-10
			c-1.1-3.3-2.8-6.8-5.3-9.2c-2.4-2.3-5.5-3.3-8.6-4.2c-4.4-1.3-8.8-2.6-13.2-3.8c-0.6-0.2-1.6,0.4-1,0.8c-0.1,0.1-0.1,0.2-0.1,0.3
			c0.1,3.4,0.1,6.7,0.2,10.1c0.1,3,0.2,6.1,1.1,9c0.9,3.1,2.7,5.7,4.8,8.1c1.9,2.1,3.9,4,6.3,5.5c2.7,1.7,5.6,2.7,8.7,2.9
			c2,0.4,4.1,0.7,6.1,0.9c0,0.1,0.1,0.2,0.1,0.3c0,0,0,0,0,0c1.8,4.5,1.3,9.1,1.3,13.9c0,1.7-0.8,4.2-0.5,5.9
			c0.1,0.5,2.6,0.3,2.6-0.4c0.1-3.1-0.1-6.1,0-9.2c0.1-2.9,0.3-5.8,0.8-8.6c0.8-5.4,2.3-10.7,4.6-15.6c0.3-0.7,0.7-1.3,1-2
			c3.7-0.2,7.4-1,10.9-1.8c3.6-0.8,7.2-2,10.3-3.8c3-1.8,5.6-4.3,7.2-7.4c0.3-0.6,0.6-1.2,0.9-1.8c0.1,0,0.2,0,0.3,0
			c0.9-0.1,0.9-0.9,0.1-1c0.9-2.5,1.5-5.2,1.7-7.9C120.6,195.4,120,190.3,119.1,185.4z M63.1,206.7c3.2,1,6.8,1.8,9.5,4
			c2.7,2.2,4.4,5.6,5.6,8.8c1.3,3.3,1.7,6.6,1.3,10.1c-0.2,1.8-0.5,3.5-0.7,5.2c-0.1,1.3-0.1,2.6,0,3.9c-0.1,0-0.2,0-0.3,0
			c0.2-0.1,0.3-0.3,0.1-0.5c-3.5-4.9-6.5-10.1-9.4-15.3c-1.4-2.5-3.1-4.6-5-6.7c-1.8-2-3.3-4.2-4.8-6.4c-1.5-2.1-3.1-4.1-5-5.8
			C57.3,204.9,60.2,205.8,63.1,206.7z M73.2,238c-0.1,0-0.1,0-0.2,0c-0.1,0-0.3,0-0.4-0.1c-0.1,0-0.2,0-0.3,0
			c-4.9-0.5-9.3-4-12.6-7.5c-2.2-2.3-4-4.9-5.1-7.9c-0.9-2.8-1.1-5.8-1.2-8.8c-0.1-3.2-0.2-6.3-0.2-9.5c3.6,3.4,5.9,7.7,9.1,11.4
			c1.9,2.2,3.8,4.3,5.2,6.8c1.4,2.5,2.8,5.1,4.3,7.6c1.7,2.9,3.5,5.7,5.4,8.4c0,0,0,0,0.1,0.1C75.9,238.4,74.5,238.3,73.2,238z
			 M115.9,185.9c-7.1,4.3-12.8,10.7-17.6,18c0.6-5.3,1.6-10.9,5.8-14.4c0.1-0.1,0.2-0.2,0.2-0.3c0.4-0.1,0.8-0.3,1.2-0.4
			C108.9,187.5,112.4,186.7,115.9,185.9z M101.1,190.4c-3.4,4.2-4.1,9.9-4.5,15.2c0,0.2,0.1,0.4,0.3,0.5c-1.3,2.1-2.5,4.3-3.7,6.5
			c0,0,0,0,0,0.1c0,0-0.1,0-0.1,0c-0.3,0.1-0.3,0.3-0.2,0.5c-0.3,0.5-0.5,1-0.8,1.5c-0.9-6.8-1.1-14.1,2.4-20.3c0,0,0-0.1,0-0.1
			C96.5,192.8,98.8,191.5,101.1,190.4z M88.5,201.2c0.9-1.5,1.9-2.8,3-4c-2.3,6.2-2.1,13.1-0.6,19.5c0,0.1,0.1,0.2,0.1,0.3
			c-0.9,1.8-1.7,3.7-2.5,5.5c-1.5-3.5-2.6-7.3-2.7-11.1C85.8,207.7,86.7,204.2,88.5,201.2z M110.2,217.2c-2.8,1.9-6,3-9.3,3.9
			c-3.6,0.9-7.3,1.7-11,1.9c1.4-3.1,2.8-6.2,4.4-9.2c1.7-0.9,3.5-1.7,5.4-2.2c2-0.6,4.2-0.9,6.3-1.1c3.5-0.3,7-0.7,10.5-1
			C115.1,212.6,113,215.3,110.2,217.2z M116.9,208.4c-4,0.4-7.9,0.7-11.9,1.1c-2.1,0.2-4.2,0.5-6.2,1.1c-1.2,0.3-2.3,0.8-3.5,1.2
			c3.9-7.2,8.5-13.9,14.2-19.3c2.4-2.3,5-4.3,7.8-5.9c0.4-0.3,0-0.7-0.5-0.9c0.2,0,0.4-0.1,0.6-0.1
			C118.4,193.2,119.8,201.1,116.9,208.4z"/>
	</g>
</g>
</svg>
