<?xml version="1.0" encoding="utf-8"?>
<!-- Generator: Adobe Illustrator 24.0.1, SVG Export Plug-In . SVG Version: 6.00 Build 0)  -->
<svg version="1.1" xmlns="http://www.w3.org/2000/svg" xmlns:xlink="http://www.w3.org/1999/xlink" x="0px" y="0px"
	 viewBox="0 0 501 341" style="enable-background:new 0 0 501 341;" xml:space="preserve">
<style type="text/css">
	.st0{fill:#C4D82E;}
	.st1{fill:#231F20;}
	.st2{font-family:'Bender-Bold';}
	.st3{font-size:41.6075px;}
	.st4{fill:none;stroke:#231F20;stroke-width:4.4671;stroke-miterlimit:10;}
	.st5{fill:#FFFFFF;}
	.st6{fill:#C6C6C6;}
</style>
<g id="Layer_1">
</g>
<g id="Layer_37">
	<path class="st0" d="M29.1,268.3H392c13.3,0,24.1-10.8,24.1-24.1V43.1C416,29.8,405.3,19,392,19H29.1C15.8,19,5,29.8,5,43.1v201.1
		C5,257.5,15.8,268.3,29.1,268.3z"/>
	<g>
		<g>
			<text transform="matrix(1 0 0 1 169.7368 88.9043)" class="st1 st2 st3">3</text>
		</g>
		<circle class="st4" cx="180.4" cy="75.9" r="26.6"/>
	</g>
	<g>
		<g>
			<path class="st5" d="M288.8,224.5c0.4,2.6,1.1,5.1,1.9,6.7c1.8,4,6.1,8.1,11,8.1c2.5,0,4.7-1.1,6.5-3.2
				c5.4-6.2,3.6-19.2-1.6-25.1c-2.3-2.7-5.5-4.2-8.6-4.2c-2.8,0-5.2,1.4-6.5,3.8c-2.5,2.3-3.2,6.3-3.1,10.3
				c-0.1,0.3-0.2,0.6-0.4,0.8c-0.3,0.7-0.2,1.5,0.3,2.2C288.5,224.2,288.6,224.4,288.8,224.5z M302.8,214.5c0.1,0.1,0.2,0.2,0.2,0.3
				c-0.2,0-0.3,0.1-0.5,0.2C302.7,214.8,302.7,214.6,302.8,214.5z M297.2,232.9C297.2,232.9,297.2,232.9,297.2,232.9
				C297.2,232.9,297.2,232.9,297.2,232.9C297.2,232.9,297.2,232.9,297.2,232.9z"/>
			<path class="st5" d="M485.7,299.1c5-10,9.2-18.6,9.2-30.2c0-1.2,0-2.4,0-3.7c0.1-8.7,0.3-19.5-5.9-25.8
				c-2.8-2.9-6.7-4.6-10.7-4.6c-4,0-7.6,1.7-10.2,4.7c-5.9,7-8.7,17.6-10.8,27.6c-0.8-0.9-1.6-1.8-2.4-2.8c0.1-0.1,0.1-0.2,0.1-0.3
				c2.8-7.1,4.2-14.4,4.4-22.6c0.1-5.8-0.2-12.2-5.4-15.4c-0.9-0.6-1.8-0.9-2.7-1.2c2-1.1,3.9-2.9,5.2-4.5
				c3.4-4.4,7.3-14.7,1.8-19.8c-1.5-1.4-3.3-2.2-5.2-2.2c-1.6,0-3.3,0.5-4.8,1.6c-0.4,0.1-0.7,0.2-1,0.5c-0.3,0.4-0.7,0.8-1,1.1
				c-1.3,1.3-2.2,2.8-2.8,4.5c-2.7,5.6-3.3,11.6-1.6,16.1c0.8,2.2,2.1,3.2,3.3,3.7c-5.2,3-8.9,10.8-10.7,16
				c-5.9-2.2-11.9-2.3-18.2-2.4c-1.2,0-2.4,0-3.6,0c0.7-6.2-3-13.5-7.4-17.2c-2.7-2.3-6-3.6-9.7-3.9c1-0.4,2-0.9,2.9-1.6
				c2.6-2,4.2-5.3,4.6-9.2c0-0.3,0-0.6,0.1-1c1.2,0,2.4,0,3.5,0c0,0,0,0,0,0c5.6,0,11.4-0.2,16.9-0.4c0.8,0,1.6-0.1,2.5-0.1
				c0,0,0,0,0,0c0,0,0,0,0,0c4.1-0.1,8.2-0.2,12.3-0.3c1.1,0,1.9-0.8,1.9-2c0.2-0.3,0.3-0.6,0.3-0.9c0.3-5.3,0.5-10.7,0.6-15.9
				c0.4-10.8,0.8-22,1.9-32.9c0.3-0.3,0.4-0.7,0.5-1.2c0-1.1-0.7-1.9-1.8-2c-18.3-1.3-34.4-1.9-49.3-1.9c-15.4,0-29.5,0.7-43,2
				c-0.7,0.1-1.2,0.5-1.5,1.1c-0.2,0.3-0.3,0.6-0.4,1c-0.4,14.2,0.1,28.7,0.5,42.8c0.1,3.4,0.2,6.9,0.3,10.3c0,0.1,0,0.2,0,0.3
				c0.1,0.9,0.7,1.5,1.5,1.6c0.1,0,0.3,0.1,0.5,0.1c0,0,0,0,0,0c0.2,0,0.3,0,0.4-0.1c8.5,0,17.1-0.3,25.5-0.5l3.9-0.1c0,0,0,0,0,0
				c0.1,1.1,0.3,2.1,0.7,3c0.8,2.4,2.4,4.4,4.3,5.9c-0.1,0.6,0,1.1,0.3,1.6c0.5,0.8,1.3,1.3,2.3,1.3c-0.5,0.2-1.1,0.4-1.6,0.6
				c-6,2.5-10.7,8.1-12.5,15c0,0-0.7,2.5-0.6,4.7c-3.8,0.1-7.6,0.1-11.2,0.2c-0.3,0-0.5,0-0.8,0c-0.8,0-1.7,0-2.6,0
				c-1,0-2-0.1-3-0.1c-3.6,0-7.5,0.3-10.4,2.4c-1.1-6.8-4.1-15.1-10.1-16.4c2-0.1,4-1,5.7-2.6c4.5-4.2,5.9-14.4,2.9-19.7
				c-1.5-2.6-4.2-4.2-7.3-4.2c-2.7,0-5.2,1.3-6.7,3.4c-3.9,4-4.1,12.3-2.9,16.6c0.9,3.3,3.3,5.7,6.3,6.3c-1.9,0.1-3.9,0.9-6,2.2
				c-5.1,3.3-8,9.2-8.6,17.3c-0.4,5.6,0.4,12.3,2.2,18.7c-1.5,1.2-2.9,2.4-4.4,3.6c-1.2-6.4-3.2-12.5-9.2-16.2
				c-2.3-1.4-4.6-2.1-6.9-2.1c-3.5,0-6.9,1.7-10.1,5.1c-10.5,11-15.5,29.1-12.8,46.4c-0.3,0.3-0.5,0.6-0.8,0.8
				c-6.4,7-6,13.3-3.4,20.6c0.4,1,1.3,1.6,2.3,1.6c0.1,0,0.1,0,0.1,0c0.1,0,0.1,0,0.2,0c0.1,0,0.2,0,0.2,0c0,0.1,0.1,0.1,0.1,0.2
				c0.5,0.7,1.4,1.1,2.2,1.1c0.8,0,1.5-0.4,1.9-1.1c5.5,0.3,11.6,0.4,18.7,0.4c0,0,0,0,0,0c5,0,10.1-0.1,15-0.1
				c4.9-0.1,9.9-0.1,14.9-0.1h0.3c9.5,0,19.1,0.1,28.5,0.1c8.7,0.1,17.3,0.1,26,0.1c17.6,0,35.6,0.1,52.9,0.2l0.5,0
				c4.8,0,9.6,0.1,14.4,0.2c5.7,0.1,11.7,0.2,17.5,0.2c8.8,0,16-0.2,22.7-0.6c0.1,0,0.1,0,0.2,0c0.4,0.2,0.8,0.3,1.2,0.3
				c1.1,0,1.9-0.7,2.2-1.8c1.5-6,0.2-11.7-4.2-17.5C489.2,303.2,487.5,301.1,485.7,299.1z M276.7,318.2c-0.3-1.2-0.6-2.3-0.7-3.4
				c0.7,0,1.3,0.1,2,0.1C277.6,316.1,277.1,317.1,276.7,318.2z M295.1,255.8c-1.7,1.9-3.5,3.8-5.3,5.9
				C291.3,259.4,293.1,257.3,295.1,255.8z M292.7,266.6c0.6-0.7,1.2-1.3,1.7-1.9c2.5-2.9,5.1-5.8,7.6-8.6l0.9-1c0,0,0.1-0.1,0.1-0.1
				c0.1,0,0.2,0.1,0.3,0.2c-5.7,6.4-10.9,12.4-15.6,18.1C288.9,270.8,290.9,268.7,292.7,266.6z M283.1,276.7
				c0.4,0.2,0.9,0.4,1.3,0.4c0.1,0,0.1,0,0.2,0c-0.8,1-1.6,1.9-2.3,2.9C282.6,278.8,282.8,277.7,283.1,276.7z M280.7,296.8
				c0-0.7,0-1.3,0-2c0.4,0.3,1,0.5,1.5,0.5C281.7,295.9,281.2,296.3,280.7,296.8z M286.9,319.6c-0.1,0-0.1,0-0.2,0
				c0.1-0.2,0.1-0.5,0.2-0.7c0.3-1.2,0.6-2.3,1-3.5c0.1,0,0.1,0,0.2,0C287.7,316.7,287.2,318.1,286.9,319.6z M292.9,319.5
				c-0.2,0-0.4,0-0.6,0c0.4-1.4,0.8-2.7,1.4-4c0.2,0,0.3,0,0.5,0C293.6,316.9,293.2,318.2,292.9,319.5z M289.9,288.6
				c1.5-1.6,3-3.3,4.5-5c0,0.2,0.1,0.5,0.2,0.7c0,0.1,0.1,0.2,0.1,0.3C293.1,285.9,291.5,287.2,289.9,288.6z M300.3,319.5
				c-0.4,0-0.8,0-1.2,0c-0.2,0-0.5,0-0.7,0c0.4-1.3,0.8-2.6,1.2-4c0,0,0,0,0,0c0.6,0,1.2,0,1.8,0
				C300.9,316.8,300.5,318.2,300.3,319.5z M306.4,319.5c-0.3,0-0.6,0-0.8,0c0.4-1.4,0.8-2.7,1.5-3.9c0-0.1,0.1-0.1,0.1-0.2
				c0.2,0,0.4,0,0.5,0C307.1,316.8,306.7,318.2,306.4,319.5z M308.1,259.8c-0.7,0-1.3,0.3-1.8,0.9c-7.7,9.4-15.9,18.7-23.9,27.6
				l-1.4,1.6c0.1-1,0.2-2,0.3-3c0.3,0.1,0.6,0.2,1,0.2c0.7,0,1.3-0.3,1.9-0.9c7-7.9,14.4-16.8,23.2-27.8
				C307.6,258.8,307.9,259.3,308.1,259.8C308.1,259.8,308.1,259.8,308.1,259.8z M310,272.2c0.4-0.6,0.9-1.2,1.3-1.8
				c0,0.2,0.1,0.5,0.1,0.7C310.9,271.5,310.4,271.8,310,272.2z M313.5,319.6c-0.5,0-1.1,0-1.6,0c0.4-1.3,0.8-2.7,1.4-4
				c0-0.1,0.1-0.2,0.1-0.3c0,0,0,0,0.1,0c0.5,0,1.1,0,1.6,0C314.4,316.6,313.9,318.1,313.5,319.6z M322.7,248.6c0,0,0.1,0,0.1,0
				c0,0.1-0.1,0.1-0.1,0.2C322.7,248.7,322.7,248.7,322.7,248.6z M321.5,319.7c-0.8,0-1.7,0-2.5,0c0.4-1.3,0.9-2.6,1.4-3.8
				c0.1-0.2,0.2-0.5,0.2-0.7c0.9,0,1.7,0,2.6,0C322.4,316.7,321.9,318.2,321.5,319.7z M325,237.1c1.1-2.2,3-4.5,5.1-5.7
				c-2.4,3.3-4.7,6.6-6.7,10C323.8,239.9,324.3,238.5,325,237.1z M330,319.7h-0.2c-0.9,0-1.8,0-2.7,0c0.5-1.5,1.2-3.1,1.9-4.6
				c0,0,0,0,0,0c0.5,0,0.9,0,1.4,0h0.9C330.6,316.7,330.2,318.2,330,319.7z M338.6,235.2c0.3,0.8,0.6,1.6,0.8,2.4
				c-0.4-0.2-0.8-0.3-1.2-0.3c-0.5,0-0.9,0.1-1.3,0.4C337.4,236.9,338,236.1,338.6,235.2z M333.7,219.6c2.3-3.7,4.3-6.9,6.4-9.9
				c0,0.1,0,0.2,0,0.2c0,3.4-0.7,7.8-2.9,9.8c-0.8,0.8-1.8,1.2-2.8,1.2c-0.6,0-1.1-0.2-1.6-0.5C333.2,220.2,333.5,219.9,333.7,219.6
				z M340.1,241.8c0.1,1.2,0.2,2.4,0.3,3.5l0.1,0.7c0,0.1,0,0.1,0,0.2c-2.4,2-4.8,4.1-7.1,6.2C335.7,248.9,337.9,245.4,340.1,241.8z
				 M339.3,319.7c-1.3,0-2.6,0-3.9,0c0-0.1,0.1-0.3,0.1-0.4c0.4-1.4,0.9-2.9,1.4-4.3c1.2,0,2.4,0,3.6,0
				C340.1,316.5,339.6,318.1,339.3,319.7z M347.8,319.7c-1,0-1.9,0-2.9,0c0.4-1.6,0.8-3.1,1-4.4c0-0.1,0-0.2,0-0.2
				c1.1,0,2.2,0,3.3,0C348.5,316.4,348.1,318,347.8,319.7z M356.2,319.6c-1,0-2,0-2.9,0c0.4-1.2,0.9-2.4,1.5-3.6
				c0.2-0.3,0.2-0.6,0.3-1c0.7,0,1.5,0,2.2,0C356.6,316.6,356.2,318.1,356.2,319.6z M366,319.6c-1.5,0-2.9,0-4.4,0
				c0.1-1.3,0.4-2.5,1-3.7c0.1-0.3,0.2-0.5,0.3-0.8c1.3,0,2.6,0,3.9,0C366.2,316.6,366,318.1,366,319.6z M374.5,319.5
				c-1.1,0-2.1,0-3.2,0c0.2-1.4,0.5-2.9,1.1-4.4c0,0,0,0,0-0.1c0.9,0,1.9,0,2.8,0C374.7,316.6,374.5,318.1,374.5,319.5z M379,234.5
				c0.1-0.1,0.1-0.3,0.1-0.4c0.9-2.1,2-3.8,3.2-5.2c0.5-0.5,1-1,1.5-1.5c-0.3,0.5-0.7,1-1,1.6c-1.4,2.2-2.9,4.5-4.3,6.8
				C378.7,235.4,378.8,234.9,379,234.5z M383.8,239.4c-0.4,0-0.8,0-1.2,0c0.3-0.4,0.7-0.9,1-1.3C383.6,238.6,383.6,239,383.8,239.4z
				 M386.9,319.3c0,0.1,0,0.1,0,0.2c-1.2,0-2.3,0-3.5,0c-1.2,0-2.4,0-3.6,0c0.2-1.6,0.5-3.1,1-4.5c0.9,0,1.8,0,2.7,0
				c1.3,0,2.6,0,3.8,0C386.9,316.4,386.8,317.9,386.9,319.3z M398.2,224.3c-0.3,0.5-0.6,0.9-0.9,1.4c0.1-0.5,0-1-0.2-1.5
				c-0.1-0.1-0.1-0.2-0.2-0.4C397.3,224,397.7,224.1,398.2,224.3z M392.5,223.5c0.1,0,0.2,0,0.3,0c0,0,0,0,0,0
				c-0.3,0.4-0.6,0.8-0.9,1.2C392.1,224.3,392.3,223.9,392.5,223.5z M394.3,319.4C394.3,319.4,394.3,319.5,394.3,319.4
				c-0.7,0-1.5,0-2.2,0c0-0.1,0-0.2,0-0.2c0.1-1.7,0.3-3,0.7-4.3c0.7,0,1.5,0,2.2,0C394.7,316.6,394.4,318.1,394.3,319.4z
				 M397,239.4c-0.7,0-1.3,0-2,0c2.1-3.2,4.2-6.5,6.1-9.8c0.5-0.8,1-1.6,1.5-2.4c0.2,0.2,0.4,0.4,0.6,0.6l-1.1,1.8
				c-1.6,2.5-3.3,5.1-4.8,7.7C396.8,238,396.8,238.7,397,239.4z M402.6,319.4c-1,0-2,0-3,0c0.4-1.5,0.7-3.1,0.9-4.5
				c0.8,0,1.6,0,2.4,0C402.4,316.4,402.3,317.9,402.6,319.4z M402.2,239.4c1.4-2.1,2.7-4.2,3.9-6.3c0.4,1.1,0.6,2.2,0.9,3.4
				c0.2,0.9,0.5,1.9,0.7,2.9C405.9,239.4,404,239.4,402.2,239.4z M411.6,319.4c-1.2,0-2.4,0-3.6,0c-0.3-1.7-0.1-2.9,0.4-4.3
				c0-0.1,0-0.1,0.1-0.2c1.3,0,2.6,0,3.9,0C412,316.4,411.7,317.9,411.6,319.4z M421.7,319.4c-1.6,0-3.1,0-4.7,0
				c0.2-1.7,0.5-3.2,1.1-4.5c1.1,0,2.2,0,3.2,0c0.4,0,0.8,0,1.2,0C421.9,316.4,421.6,317.9,421.7,319.4z M431,319.3
				c-1.3,0-2.6,0-3.9,0c0-1.3,0.2-2.4,0.7-3.4c0.2-0.3,0.2-0.7,0.2-1c1.3,0,2.5,0,3.8,0C431.3,316.4,431,317.9,431,319.3z
				 M454.3,203.5C454.3,203.5,454.3,203.5,454.3,203.5c-0.1,0.1-0.2,0.2-0.3,0.3C454.1,203.7,454.2,203.6,454.3,203.5z M454.9,214.4
				c-0.9,1.8-2,3.4-3.2,4.6c-0.7,0.7-1.6,1.3-2.5,1.6C451.2,218.5,453.1,216.4,454.9,214.4z M451.1,230.8l0.3,0
				c-1.5,1.3-3,2.7-4.4,4.1L451.1,230.8z M446.8,254c-0.2,0.2-0.3,0.4-0.4,0.6c0,0,0,0,0,0C446.5,254.4,446.7,254.2,446.8,254z
				 M446.1,230.9l0.2,0l-1.9,1.9C444.9,231.9,445.5,231.2,446.1,230.9z M440.1,240.3c0.2,0.1,0.3,0.1,0.5,0.1c0,0,0,0,0,0
				c0.4,0,0.8-0.2,1.1-0.5l2.8-2.7c-2.2,2.2-4.2,4.5-6.2,6.8C438.9,242.7,439.5,241.5,440.1,240.3z M440.5,319.3c-0.8,0-1.7,0-2.5,0
				c-0.5,0-1.1,0-1.6,0c0.2-1.7,0.5-3,1-4.2c0-0.1,0-0.1,0.1-0.2c1.3,0,2.5,0,3.8,0C440.7,316.5,440.5,317.9,440.5,319.3z
				 M441.9,249.9c0,0-0.1-0.1-0.1-0.1c1-1.1,2-2.2,3-3.3C443.8,247.6,442.9,248.7,441.9,249.9z M450,319.2c-1.4,0-2.7,0-4.1,0.1
				c0.1-1.5,0.2-2.9,0.6-4.2c1.4,0,2.7,0,4,0.1C450.3,316.4,450.1,317.8,450,319.2z M451.1,259.9c-0.2-0.2-0.4-0.4-0.5-0.6l1.3-1.6
				C451.6,258.5,451.3,259.3,451.1,259.9z M454.8,244.7c-0.2,0.1-0.4,0.2-0.5,0.4c-0.5,0.5-1,1.1-1.5,1.7c0.7-0.8,1.3-1.6,2-2.4
				C454.8,244.4,454.8,244.6,454.8,244.7z M487.4,282.7c-0.1,0-0.1,0-0.2,0c-0.7,0-1.3,0.3-1.8,0.8c-1.5,1.6-2.9,3.1-4.1,4.5
				c2.5-3.1,4.8-5.8,7.1-8.2C488.1,280.8,487.8,281.8,487.4,282.7z M489.8,263.5c-0.3-0.1-0.7-0.2-1-0.2c-0.6,0-1.3,0.2-1.8,0.7
				l-3.6,3.3c-4.7,4.3-9.6,8.8-14.3,13.3c-0.4-0.5-0.9-1-1.3-1.5c7.8-6.6,15.3-13.7,21.8-20C489.8,260.5,489.8,261.9,489.8,263.5z
				 M477.3,239.5l-7.9,7.2C471.3,243.1,473.6,240,477.3,239.5z M466.1,254.2l15.5-14.1c0.3,0.1,0.6,0.2,0.8,0.4
				c-5.7,4.7-11.3,9.6-16.7,14.6C465.8,254.8,465.9,254.5,466.1,254.2z M459.6,319c-1.3,0-2.6,0-4,0c0.2-1.3,0.3-2.6,0.5-3.9
				c1.3,0,2.7,0,4.1,0.1C459.8,316.6,459.6,317.8,459.6,319z M464,274.6c7.4-6.4,15.1-13.6,23.7-22.2c0.8-0.8,1-1.8,0.6-2.7
				c-0.4-1-1.4-1.7-2.5-1.7c-0.6,0-1.2,0.2-1.7,0.7c-8.9,7.7-16.4,14.7-23.1,21.4c0.4-1.5,0.7-2.9,1.2-4.3c0.1,0,0.2,0,0.3,0
				c0.6,0,1.2-0.2,1.7-0.6c5.3-4.3,10.5-8.8,15.6-13.2l2.6-2.2l0.3-0.2c2.2-1.8,3.6-3.3,4.3-4.5c0.9,1.5,1.4,3.2,1.8,4.9
				c0.3,1.5,0.6,3.2,0.8,4.9c-0.4-0.2-0.8-0.3-1.2-0.3c-0.6,0-1.2,0.2-1.7,0.6c-6.8,5.9-14.7,12.7-22.1,19.8
				C464.2,274.8,464.1,274.7,464,274.6z M468.4,319c-1.1,0-2.3,0-3.4,0c0.2-1.3,0.5-2.5,0.9-3.6c1.2,0,2.4,0,3.7,0
				C468.9,316.4,468.5,317.7,468.4,319z M472.7,284.6c5-4.4,9.8-9,14.5-13.5l2.5-2.4c-0.1,1.4-0.1,2.9-0.2,4.4
				c-0.2-0.1-0.5-0.1-0.8-0.1c-0.7,0-1.3,0.3-1.8,0.8c-4.7,4.6-8.6,9.1-11.9,13.6c-0.7-0.7-1.3-1.5-2-2.2
				C473,284.9,472.9,284.7,472.7,284.6z M477.3,319c-1.1,0-2.2,0-3.4,0c0.1-0.6,0.3-1.2,0.7-1.7c0.5-0.6,0.7-1.3,0.6-1.9
				c0.8,0,1.6,0,2.4,0C477.2,316.5,477.1,317.8,477.3,319z M478.7,291.2c0.3-0.4,0.6-0.8,1-1.2c-0.3,0.7-0.3,1.4,0,2.1
				c0.1,0.2,0.2,0.3,0.3,0.5C479.5,292.1,479.1,291.7,478.7,291.2z M482.1,294.7c0,0.1-0.1,0.1-0.1,0.2c-0.5-0.6-1.1-1.2-1.6-1.8
				c0.5,0.4,1.1,0.6,1.7,0.6c0,0,0,0,0,0c0.2,0,0.4,0,0.5-0.1C482.5,294,482.3,294.3,482.1,294.7z M485.4,319.3
				c-0.7,0-1.5-0.1-2.2-0.1c-0.6-1.5-0.7-2.3,0-3.1c0.2-0.3,0.4-0.6,0.5-0.9c0.7,0,1.4,0,2.1-0.1c-0.4,1.1-0.6,2.2-0.5,3.3
				C485.2,318.7,485.3,319,485.4,319.3z M490.6,319.5c-0.2,0-0.4,0-0.6,0c0.2-0.3,0.3-0.7,0.3-1.1c0-0.5,0.1-1,0.2-1.4
				C490.6,317.8,490.6,318.7,490.6,319.5z"/>
			<path class="st5" d="M479.5,230.5c3.8,0,8.1-2.3,10.7-5.8c3.1-4.1,6.4-11.1,5.6-17.1c-0.4-3-1.9-5.4-4.3-7.2c-1.8-1.3-3.8-2-6-2
				c-4.5,0-8.7,3-10.3,7.4c-3.6,5.6-6,13.7-3.3,19.5C473.4,228.7,476.1,230.5,479.5,230.5z"/>
			<path class="st5" d="M364,197.4c0,1,0.8,1.7,1.7,1.7c0,0,0,0,0,0c0.9,0,1.7-0.7,1.8-1.6c0.3-1.9,0.2-3.6-0.2-4.9
				c-0.2-0.7-0.9-1.2-1.6-1.2c-0.9,0-1.7,0.7-1.7,1.6c-0.1,1.1,0,2.2,0,3.3C363.9,196.7,364,197,364,197.4z"/>
			<path class="st5" d="M410.6,193.4c0.8,0,1.5-0.5,1.6-1.3c0.3-1.6,0.4-3.2,0.2-5.3c-0.1-0.9-0.8-1.6-1.8-1.6c-1,0-1.7,0.7-1.7,1.7
				c0,0.7,0,1.5-0.1,2.2c0,0.9-0.1,1.8-0.1,2.7C408.8,192.7,409.6,193.4,410.6,193.4z"/>
			<path class="st5" d="M419.1,190.8c0.9,0,1.6-0.7,1.7-1.6c0.1-1.7,0.1-3.5,0.1-5.2l0-0.7c0-1-0.8-1.7-1.8-1.7
				c-1,0-1.8,0.7-1.8,1.7l0,0.7c0,1.7,0,3.4,0.1,5.2C417.4,190.1,418.1,190.8,419.1,190.8z"/>
			<path class="st5" d="M419.3,191.9c-0.5,0-1,0.2-1.3,0.5c-0.3,0.3-0.5,0.8-0.5,1.3l0,0.7c0,1.1,0.1,2.2,0.3,3.3
				c0.1,0.8,0.8,1.4,1.6,1.4c1,0,1.8-0.7,1.8-1.7c0.1-1,0-2.1,0-3.1l0-0.8C421.1,192.7,420.3,191.9,419.3,191.9z"/>
			<path class="st5" d="M425.8,185.7C425.8,185.7,425.8,185.7,425.8,185.7c0.9,0,1.6-0.7,1.7-1.6c0.2-2.4,0.2-4.8,0.2-7
				c0-0.9-0.7-1.7-1.7-1.7c-0.9,0-1.7,0.7-1.7,1.6c-0.1,2.2-0.3,4.6-0.2,7C424.1,185,424.8,185.7,425.8,185.7z"/>
			<path class="st5" d="M425.8,194.3c0.9,0,1.6-0.7,1.7-1.6c0.2-1.5,0.1-2.9,0-4.3l0-0.6c-0.1-0.9-0.8-1.6-1.7-1.6s-1.6,0.7-1.7,1.6
				l0,0.5c-0.1,1.4-0.2,2.9,0,4.4C424.2,193.7,424.9,194.3,425.8,194.3z"/>
			<path class="st5" d="M379.6,199.1c1,0,1.8-0.7,1.8-1.7c0-1.1-0.1-2.1-0.2-3l0-0.1c-0.1-0.9-0.8-1.5-1.7-1.5
				c-0.9,0-1.6,0.7-1.6,1.6c0,1.1,0,2.2,0.1,3.3C378.1,198.5,378.8,199.1,379.6,199.1z"/>
		</g>
		<g>
			<g>
				<path class="st6" d="M296.6,213.9c0.3-0.2,0.7-0.4,1-0.5c-0.6-0.8-1.2-1.6-1.9-2.4c-2.9,3.2-5.1,7.2-6.7,11.2
					c-0.6,1.7,2.2,2.9,2.9,1.2c1.7-3.8,3.9-7.1,6.2-10.6c0.8-1.3-0.8-3-2.1-2.1c-0.3,0.2-0.6,0.4-0.9,0.6
					C293.4,212.3,294.9,214.8,296.6,213.9L296.6,213.9z"/>
			</g>
			<g>
				<path class="st6" d="M299.3,212.2c-2.6,4.4-5.4,8.8-7.8,13.4c-1,1.8,1.6,3.3,2.8,1.6c2.8-4.3,5.2-8.9,7.8-13.4
					C303,212.1,300.4,210.5,299.3,212.2L299.3,212.2z"/>
			</g>
			<g>
				<path class="st6" d="M302.3,216.4c-3,4.3-5.8,8.8-7.7,13.7c-0.7,1.7,2.1,2.9,2.9,1.2c2.3-4.6,4.6-9.1,7.4-13.4
					C306.1,216.3,303.5,214.8,302.3,216.4L302.3,216.4z"/>
			</g>
			<g>
				<path class="st6" d="M305.1,220c-2.4,3.7-4.8,7.3-6.8,11.2c-0.9,1.8,1.7,3.4,2.8,1.6c2.3-3.7,4.4-7.5,6.7-11.3
					C308.8,219.8,306.2,218.3,305.1,220L305.1,220z"/>
			</g>
			<g>
				<path class="st6" d="M306.6,224.4c-1.6,3.2-3.5,6.2-5.5,9c-1,1.5,1.4,3.3,2.5,1.9c2.4-2.9,4.2-6,5.7-9.4
					C310.1,224.2,307.5,222.6,306.6,224.4L306.6,224.4z"/>
			</g>
			<g>
				<path class="st6" d="M300,252.2c-3.8,3.8-7.4,7.8-10.8,11.9c-2.5,3-5.5,6-6.4,9.9c-0.5,2,2.5,2.8,3.1,0.9
					c1.3-4.1,5-7.6,7.7-10.9c2.8-3.3,5.7-6.4,8.5-9.6C303.5,252.9,301.4,250.8,300,252.2L300,252.2z"/>
			</g>
			<g>
				<path class="st6" d="M304.6,255.2c-8.2,9.1-16.2,18.4-23.6,28.1c-1.2,1.6,0.9,3.9,2.3,2.3c8.1-9.1,15.9-18.7,23.5-28.2
					C308,255.8,306,253.7,304.6,255.2L304.6,255.2z"/>
			</g>
			<g>
				<path class="st6" d="M307.1,261.3c-8.4,10.3-17.3,20.2-26.1,30.1c-1.5,1.7,0.9,4,2.4,2.4c9.4-9.5,18-19.9,26.1-30.6
					C310.6,261.8,308.2,259.9,307.1,261.3L307.1,261.3z"/>
			</g>
			<g>
				<path class="st6" d="M309.6,265.5c-4.1,5.9-8.8,11.4-13.7,16.6c-1.4,1.5,0.8,3.7,2.3,2.3c5.4-5.2,10-11.1,14.1-17.4
					C313.3,265.4,310.7,264,309.6,265.5L309.6,265.5z"/>
			</g>
			<g>
				<path class="st6" d="M336.4,201.1c-3.1,3.8-5.8,7.8-8,12.2c-0.9,1.8,1.6,3.3,2.7,1.6c2.4-4.1,4.9-8.1,7.7-11.9
					C339.8,201.6,337.5,199.8,336.4,201.1L336.4,201.1z"/>
			</g>
			<g>
				<path class="st6" d="M337.6,206.2c-2.8,3.6-5.3,7.3-7.5,11.3c-0.9,1.8,1.6,3.3,2.7,1.6c2.4-3.9,4.8-7.7,7.4-11.3
					C341.4,206.1,338.8,204.6,337.6,206.2L337.6,206.2z"/>
			</g>
			<g>
				<path class="st6" d="M334.2,227.9c-4.5,5.5-8.5,11.4-11.9,17.6c-1,1.8,1.6,3.3,2.7,1.6c3.7-5.9,7.5-11.7,11.6-17.4
					C337.7,228.3,335.3,226.5,334.2,227.9L334.2,227.9z"/>
			</g>
			<g>
				<path class="st6" d="M335.6,232.4c-6,7.1-11.3,14.9-15.3,23.2c-0.9,1.9,1.7,3.5,2.8,1.6c4.7-7.9,9.5-15.6,15-23
					C339,232.9,336.7,231.1,335.6,232.4L335.6,232.4z"/>
			</g>
			<g>
				<path class="st6" d="M336.8,239.1c-4.5,6.3-8.8,12.8-12.8,19.4c-1.1,1.9,1.7,3.4,2.9,1.7c4.4-6.3,8.7-12.9,12.6-19.5
					C340.6,238.9,337.9,237.4,336.8,239.1L336.8,239.1z"/>
			</g>
			<g>
				<path class="st6" d="M391.6,194.1c-3.8,4-6.9,8.5-9.1,13.6c-0.7,1.6,2.1,2.8,2.9,1.2c2.3-4.6,5-8.8,8.4-12.6
					C395,194.8,393,192.7,391.6,194.1L391.6,194.1z"/>
			</g>
			<g>
				<path class="st6" d="M395.5,196.5c-4.3,4.2-8.3,9.2-10.4,14.8c-0.6,1.7,2,2.8,2.9,1.2c2.8-5,5.6-9.7,9.7-13.9
					C399.1,197.2,397,195.1,395.5,196.5L395.5,196.5z"/>
			</g>
			<g>
				<path class="st6" d="M397.3,200.1c-3.6,5.2-7.5,10.3-10.7,15.8c-1.1,1.9,1.6,3.3,2.9,1.7c3.8-5.1,7.1-10.5,10.5-15.9
					C401.2,199.9,398.5,198.4,397.3,200.1L397.3,200.1z"/>
			</g>
			<g>
				<path class="st6" d="M389.9,219.5c-3.7,6.4-8,12.4-11.8,18.7c-0.9,1.5,1.4,3.5,2.6,2c4.7-5.8,8.4-12.5,11.9-19.1
					C393.6,219.3,390.9,217.8,389.9,219.5L389.9,219.5z"/>
			</g>
			<g>
				<path class="st6" d="M393.6,224.2c-3.3,4.2-6.5,8.7-8.8,13.5c-0.9,1.9,1.7,3.4,2.8,1.6c2.7-4.5,5.3-9,8.4-13.2
					C397.1,224.6,394.7,222.8,393.6,224.2L393.6,224.2z"/>
			</g>
			<g>
				<path class="st6" d="M399.3,224.4c-3.3,5.1-6.8,10.1-9.8,15.4c-1,1.9,1.6,3.3,2.8,1.6c3.5-5,6.6-10.3,9.8-15.4
					C403.2,224.3,400.4,222.7,399.3,224.4L399.3,224.4z"/>
			</g>
			<g>
				<path class="st6" d="M404.2,228.1c-2.1,3.2-4.2,6.4-6.1,9.8c-1,1.8,1.6,3.3,2.8,1.6c2.1-3.2,4.1-6.5,6.1-9.8
					C408,227.9,405.3,226.3,404.2,228.1L404.2,228.1z"/>
			</g>
			<g>
				<path class="st6" d="M483.8,244.6c-0.2-0.4-0.5-0.9-0.7-1.3c-0.4,0.4-0.9,0.7-1.3,1.1c-1.1,0.6-2.3,1.9-3.3,2.7
					c-1.9,1.6-3.9,3.3-5.8,4.9c-3.9,3.3-7.8,6.6-11.6,10c-1.6,1.4,0.7,3.6,2.3,2.3c6.2-5,12.1-10.2,18.1-15.4c0.9-0.8,8-6.3,3.1-7.2
					C482.8,241.4,481.9,244.2,483.8,244.6L483.8,244.6z"/>
			</g>
			<g>
				<path class="st6" d="M484.7,249.5c-8.3,7.2-16.5,14.7-24.2,22.5c-1.5,1.5,0.7,3.6,2.3,2.3c8.3-7.2,16.4-14.8,24.2-22.6
					C488.3,250.2,486.2,248.2,484.7,249.5L484.7,249.5z"/>
			</g>
			<g>
				<path class="st6" d="M487.1,255.9c-8,6.8-16,13.8-23.5,21.2c-1.5,1.5,0.7,3.6,2.3,2.3c8.1-6.7,15.8-14,23.4-21.3
					C490.7,256.7,488.6,254.7,487.1,255.9L487.1,255.9z"/>
			</g>
			<g>
				<path class="st6" d="M487.8,264.7c-6.8,6.2-13.7,12.4-20.2,18.9c-1.5,1.5,0.7,3.6,2.3,2.3c6.9-6.1,13.5-12.5,20.2-18.8
					C491.5,265.5,489.3,263.3,487.8,264.7L487.8,264.7z"/>
			</g>
			<g>
				<path class="st6" d="M487.7,274.4c-4.5,4.4-8.7,9.1-12.3,14.3c-1,1.4,1.4,3.3,2.5,1.9c3.8-4.8,7.8-9.5,12.1-13.9
					C491.4,275.2,489.2,273,487.7,274.4L487.7,274.4z"/>
			</g>
			<g>
				<path class="st6" d="M486.1,284.2c-1.8,1.9-3.5,3.8-5.3,5.7c-1.4,1.5,0.8,3.7,2.3,2.3c1.8-1.9,3.6-3.8,5.3-5.7
					C489.9,285,487.6,282.7,486.1,284.2L486.1,284.2z"/>
			</g>
			<g>
				<path class="st6" d="M279.7,313.5c-1.1,2.8-2.3,5.7-3.2,8.5c-0.5,1.6,2.1,2.8,2.8,1.2c1.3-2.9,2.3-5.9,3.3-8.9
					C283.3,312.4,280.4,311.7,279.7,313.5L279.7,313.5z"/>
			</g>
			<g>
				<path class="st6" d="M284.2,313.9c-0.8,2.1-1.5,4.2-1.9,6.4c-0.3,1.9,2.4,2.8,3,0.8c0.6-2.1,1.1-4.3,1.9-6.5
					C287.8,312.8,284.9,312.1,284.2,313.9L284.2,313.9z"/>
			</g>
			<g>
				<path class="st6" d="M290.1,313.5c-1,2.2-1.9,4.4-2.3,6.8c-0.3,1.9,2.5,2.8,3,0.8c0.6-2.1,1.1-4.1,1.9-6.1
					C293.5,313.3,291,311.7,290.1,313.5L290.1,313.5z"/>
			</g>
			<g>
				<path class="st6" d="M295.9,314c-1,2.3-1.9,4.7-2.2,7.1c-0.3,2,2.5,2.9,3,0.8c0.6-2.3,1.2-4.6,2-6.8
					C299.3,313.6,296.6,312.4,295.9,314L295.9,314z"/>
			</g>
			<g>
				<path class="st6" d="M303.5,313.6c-1.3,2.1-2.1,4.4-2.3,6.8c-0.2,1.7,2.7,2.1,3.1,0.4c0.4-2,0.9-3.9,1.9-5.7
					C307.2,313.4,304.6,311.8,303.5,313.6L303.5,313.6z"/>
			</g>
			<g>
				<path class="st6" d="M309.6,313.5c-1.1,2.3-2,4.7-2.4,7.2c-0.3,2,2.6,2.9,3.1,0.8c0.5-2.2,1.1-4.4,2-6.5
					C313.1,313.3,310.5,311.7,309.6,313.5L309.6,313.5z"/>
			</g>
			<g>
				<path class="st6" d="M316.8,313.9c-1.1,2.2-2.1,4.5-2.5,6.9c-0.4,2,2.3,2.7,3,0.8c0.7-2.1,1.3-4.2,2.2-6.2
					C320.3,313.7,317.7,312.1,316.8,313.9L316.8,313.9z"/>
			</g>
			<g>
				<path class="st6" d="M325.4,313.1c-1.4,2.4-2.5,5-3.1,7.7c-0.4,2,2.4,2.8,3,0.8c0.8-2.4,1.6-4.7,2.7-7
					C328.9,312.9,326.4,311.3,325.4,313.1L325.4,313.1z"/>
			</g>
			<g>
				<path class="st6" d="M333.1,313.5c-1.1,2.3-2,4.7-2.3,7.3c-0.2,1.8,2.6,2,3.1,0.4c0.7-2.2,1.3-4.4,2.1-6.5
					C336.6,313.1,333.9,311.9,333.1,313.5L333.1,313.5z"/>
			</g>
			<g>
				<path class="st6" d="M341.8,314.3c-0.7,2.1-1.3,4.3-1.7,6.5c-0.3,2,2.3,2.8,3,0.8c0.8-2.1,1.3-4.3,1.7-6.5
					C345.3,313.1,342.5,312.3,341.8,314.3L341.8,314.3z"/>
			</g>
			<g>
				<path class="st6" d="M351.1,314c-1.5,2-2.2,4.4-2.4,6.8c-0.2,1.7,2.7,2.1,3.1,0.4c0.4-2,1.1-3.8,2.1-5.6
					C354.7,313.7,352.3,312.4,351.1,314L351.1,314z"/>
			</g>
			<g>
				<path class="st6" d="M359,313.8c-1.4,2.5-2.2,5.4-1.6,8.2c0.4,1.8,3,1.3,3.1-0.4c0-2.2,0.2-4.2,1.2-6.2
					C362.6,313.6,360,312,359,313.8L359,313.8z"/>
			</g>
			<g>
				<path class="st6" d="M368.5,313.5c-1,2-1.6,4.2-1.5,6.5c0.1,1.7,2.8,2.3,3.1,0.4c0.3-2,0.6-3.8,1.3-5.7
					C372,313.1,369.3,311.9,368.5,313.5L368.5,313.5z"/>
			</g>
			<g>
				<path class="st6" d="M377,313.1c-1,2.3-1.7,4.7-1.5,7.3c0.1,2.1,3,2,3.2,0c0.2-2.1,0.5-4.1,1.2-6.1
					C380.6,312.6,377.8,311.4,377,313.1L377,313.1z"/>
			</g>
			<g>
				<path class="st6" d="M389.3,312.3c-1,2.2-1.6,4.4-1.4,6.8c0.2,2,3,2,3.1,0c0.1-2,0.4-3.8,1.2-5.6
					C392.9,311.9,390.1,310.7,389.3,312.3L389.3,312.3z"/>
			</g>
			<g>
				<path class="st6" d="M396.7,312.3c-0.6,2.4-1.2,4.8-1.4,7.2c-0.2,1.8,2.6,2.1,3.1,0.4c0.7-2.3,1-4.8,1.3-7.2
					C399.9,311,397.1,310.7,396.7,312.3L396.7,312.3z"/>
			</g>
			<g>
				<path class="st6" d="M404.7,313.5c-1.4,2.2-1.6,4.9-0.5,7.3c0.8,1.8,3.1,0.4,2.9-1.2c-0.3-1.8-0.2-3.2,0.5-4.9
					C408.2,313,405.5,312,404.7,313.5L404.7,313.5z"/>
			</g>
			<g>
				<path class="st6" d="M415,312c-1.8,2.9-2.7,6.2-2.2,9.7c0.2,1.8,3.1,1.3,3.1-0.4c0-2.7,0.4-5.3,1.8-7.7
					C418.7,311.8,416,310.3,415,312L415,312z"/>
			</g>
			<g>
				<path class="st6" d="M424.2,313.9c-1.4,2.4-1.9,5.1-1.2,7.8c0.5,1.7,3.4,1.4,3.2-0.4c-0.2-2-0.2-3.9,0.7-5.8
					C427.7,313.7,425.2,312.1,424.2,313.9L424.2,313.9z"/>
			</g>
			<g>
				<path class="st6" d="M433.5,313.5c-1,2.2-1.7,4.5-1.4,6.9c0.2,2,3,2,3.1,0c0.1-2,0.4-3.8,1.2-5.7
					C437.1,313.1,434.3,311.9,433.5,313.5L433.5,313.5z"/>
			</g>
			<g>
				<path class="st6" d="M442.6,313.8c-0.9,2.5-1.4,4.8-1,7.4c0.3,1.9,3,1.3,3.1-0.4c0.1-2.1,0.2-4.1,0.8-6.1
					C446.2,312.7,443.3,312,442.6,313.8L442.6,313.8z"/>
			</g>
			<g>
				<path class="st6" d="M452.2,313.5c-0.9,2.4-1.3,5.2-1.1,7.7c0.2,2.1,3,2,3.2,0c0.3-2.3,0.6-4.6,0.9-6.9
					C455.5,312.3,452.9,311.6,452.2,313.5L452.2,313.5z"/>
			</g>
			<g>
				<path class="st6" d="M462.5,312.7c-1.2,2-2.1,4.4-1.8,6.8c0.2,1.7,2.8,2.3,3.2,0.4c0.4-1.9,0.6-3.8,1.4-5.6
					C466.1,312.5,463.5,310.9,462.5,312.7L462.5,312.7z"/>
			</g>
			<g>
				<path class="st6" d="M471.6,314.4c-1.7,1.8-2.8,4.4-1.8,6.8c0.6,1.6,3.2,1.5,3.1-0.4c0-1.5-0.1-2.9,1-4.2
					C475.1,315.1,473.1,312.9,471.6,314.4L471.6,314.4z"/>
			</g>
			<g>
				<path class="st6" d="M480.1,313.1c-2,2.2-2.7,5.7-0.6,8.1c1.1,1.1,3.2,0,2.7-1.6c-0.5-1.5-1-2.9,0.1-4.2
					C483.7,313.9,481.5,311.6,480.1,313.1L480.1,313.1z"/>
			</g>
			<g>
				<path class="st6" d="M487.2,314.3c-0.7,1.3-1.1,2.6-1,4c0.1,2,3,2,3,0c0-0.9,0.2-1.7,0.6-2.5
					C490.8,314.1,488.1,312.5,487.2,314.3L487.2,314.3z"/>
			</g>
			<g>
				<path d="M453.2,201.4c-2.8,2.7-5.2,5.8-7.3,9.2c-0.4,0.7,0.7,1.3,1.1,0.6c2-3.3,4.3-6.3,7.1-8.9
					C454.6,201.7,453.7,200.9,453.2,201.4L453.2,201.4z"/>
			</g>
			<g>
				<path d="M455.3,204c-4.2,3.6-7.9,7.7-11.2,12.2c-0.5,0.6,0.6,1.3,1.1,0.6c3.2-4.4,6.9-8.3,11-11.9
					C456.8,204.3,455.9,203.4,455.3,204L455.3,204z"/>
			</g>
			<g>
				<path d="M456.6,206.1c-4.2,4.5-8.4,8.9-12.6,13.4c-0.5,0.6,0.3,1.5,0.9,0.9c4.2-4.5,8.4-8.9,12.6-13.4
					C458.1,206.4,457.2,205.5,456.6,206.1L456.6,206.1z"/>
			</g>
			<g>
				<path d="M455.1,210.8c-3.4,3.9-6.9,7.7-10.5,11.3c-0.6,0.6,0.3,1.4,0.9,0.9c3.6-3.7,7.1-7.5,10.5-11.3
					C456.5,211.1,455.7,210.2,455.1,210.8L455.1,210.8z"/>
			</g>
			<g>
				<path d="M450.2,228.5c-3.3,3.2-6.7,6.5-10,9.7c-0.6,0.6,0.3,1.4,0.9,0.9c3.3-3.2,6.7-6.5,10-9.7
					C451.6,228.8,450.8,228,450.2,228.5L450.2,228.5z"/>
			</g>
			<g>
				<path d="M453.1,230.6c-5.4,4.5-10.3,9.5-14.8,15c-0.5,0.6,0.4,1.5,0.9,0.9c4.5-5.4,9.4-10.4,14.8-15
					C454.6,231,453.7,230.1,453.1,230.6L453.1,230.6z"/>
			</g>
			<g>
				<path d="M454.1,233.7c-5.3,5.1-10.4,10.5-15.3,16c-0.5,0.6,0.3,1.5,0.9,0.9c4.9-5.5,10-10.9,15.3-16
					C455.6,234,454.7,233.1,454.1,233.7L454.1,233.7z"/>
			</g>
			<g>
				<path d="M454.5,237.4c-4.8,5-9.4,10.1-13.8,15.5c-0.5,0.6,0.4,1.5,0.9,0.9c4.3-5.4,8.9-10.6,13.8-15.5
					C455.9,237.7,455.1,236.8,454.5,237.4L454.5,237.4z"/>
			</g>
			<g>
				<path d="M455.9,239.6c-4.4,5.1-8.6,10.3-12.8,15.5c-0.4,0.5,0.1,1.3,0.7,1c0.4-0.2,0.8-0.4,1.3-0.6c0.7-0.3,0.1-1.4-0.6-1.1
					c-0.4,0.2-0.8,0.4-1.3,0.6c0.2,0.3,0.5,0.6,0.7,1c4.2-5.3,8.4-10.4,12.8-15.5C457.3,239.9,456.4,239,455.9,239.6L455.9,239.6z"
					/>
			</g>
			<g>
				<path d="M455.1,245.8c-3.4,3.6-6.5,7.5-9.4,11.5c-0.5,0.6,0.6,1.3,1.1,0.6c2.8-4,5.9-7.7,9.2-11.3
					C456.5,246,455.6,245.2,455.1,245.8L455.1,245.8z"/>
			</g>
			<g>
				<path d="M455.1,250.3c-2.7,3.3-5.5,6.6-8.2,9.9c-0.5,0.6,0.4,1.5,0.9,0.9c2.7-3.3,5.5-6.6,8.2-9.9
					C456.5,250.6,455.6,249.7,455.1,250.3L455.1,250.3z"/>
			</g>
			<g>
				<path d="M483.1,201.6c-2.6,2.6-5.2,5.2-7.9,7.8c-0.6,0.6,0.3,1.4,0.9,0.9c2.6-2.6,5.2-5.2,7.9-7.8
					C484.5,201.9,483.6,201.1,483.1,201.6L483.1,201.6z"/>
			</g>
			<g>
				<path d="M485.9,201.7c-4.1,3-7.8,6.5-10.9,10.4c-0.5,0.6,0.4,1.5,0.9,0.9c3.1-3.9,6.7-7.3,10.7-10.2
					C487.2,202.4,486.6,201.3,485.9,201.7L485.9,201.7z"/>
			</g>
			<g>
				<path d="M489,202.9c-4.9,3.5-9.4,7.4-13.5,11.8c-0.5,0.6,0.3,1.5,0.9,0.9c4.1-4.3,8.5-8.2,13.3-11.6
					C490.3,203.5,489.7,202.4,489,202.9L489,202.9z"/>
			</g>
			<g>
				<path d="M491.2,204.6c-6.7,5-12.8,10.6-18.5,16.7c-0.5,0.6,0.3,1.5,0.9,0.9c5.6-6.1,11.6-11.6,18.2-16.6
					C492.4,205.2,491.8,204.1,491.2,204.6L491.2,204.6z"/>
			</g>
			<g>
				<path d="M492.5,208.3c0.3-0.2,0.6-0.4,0.9-0.6c-0.2-0.3-0.5-0.6-0.7-1c-6.3,5.2-12.7,10.3-19,15.4c-0.6,0.5,0.3,1.4,0.9,0.9
					c6.4-5.1,12.7-10.2,19-15.4c0.5-0.4-0.2-1.4-0.7-1c-0.3,0.2-0.6,0.4-0.9,0.6C491.2,207.7,491.8,208.8,492.5,208.3L492.5,208.3z"
					/>
			</g>
			<g>
				<path d="M491.8,210c-4.8,4.8-9.9,9.2-15.3,13.3c-0.6,0.5,0,1.5,0.6,1.1c5.5-4.2,10.7-8.7,15.6-13.5
					C493.3,210.3,492.4,209.4,491.8,210L491.8,210z"/>
			</g>
			<g>
				<path d="M489.6,214.8c-4.3,4-8.6,7.9-12.9,11.9c-0.6,0.5,0.3,1.4,0.9,0.9c4.3-4,8.6-7.9,12.9-11.9
					C491.1,215.1,490.2,214.2,489.6,214.8L489.6,214.8z"/>
			</g>
			<g>
				<path d="M489.6,218.9c-3.4,2.9-6.9,5.8-10.3,8.7c-0.6,0.5,0.3,1.4,0.9,0.9c3.4-2.9,6.9-5.8,10.3-8.7
					C491.1,219.3,490.3,218.4,489.6,218.9L489.6,218.9z"/>
			</g>
			<g>
				<path d="M480.2,238.3c-5.6,5.1-11.2,10.2-16.8,15.3c-0.6,0.5,0.3,1.4,0.9,0.9c5.6-5.1,11.2-10.2,16.8-15.3
					C481.6,238.6,480.8,237.8,480.2,238.3L480.2,238.3z"/>
			</g>
			<g>
				<path d="M483.5,240.9c-7.7,6.4-15.2,13-22.4,20c-0.6,0.6,0.3,1.4,0.9,0.9c7.2-7,14.7-13.7,22.4-20
					C485,241.2,484.1,240.4,483.5,240.9L483.5,240.9z"/>
			</g>
			<g>
				<path d="M344.8,244c-7.8,6.1-14.8,13.3-22.5,19.6c-7.7,6.3-15.6,12.5-23.3,18.8c-7.6,6.2-15.4,12.5-22.1,19.7
					c-5.7,6.1-5.9,11.8-3.2,19.6c0.6,1.7,3.3,1,2.7-0.7c-2.3-6.5-2.7-11.4,2.4-16.9c2.6-2.9,5.6-5.5,8.5-8.1
					c6.6-6,13.6-11.7,20.5-17.3c6.7-5.4,13.5-10.8,20.1-16.4c6.2-5.3,13-10.8,18-17.4C346.5,244.1,345.4,243.5,344.8,244L344.8,244z
					"/>
			</g>
			<g>
				<path d="M433.4,244.5c9.9,12.6,20.8,24.4,31.2,36.5c5.1,5.8,10.2,11.6,15.3,17.5c6,6.9,13.3,13.4,11.4,23.4
					c-0.3,1.7,2.2,2.4,2.6,0.7c1.6-6.2-0.3-11.6-4-16.6c-5.3-7.1-11.7-13.5-17.6-20.2c-12.5-14.2-24.7-28.7-38-42.2
					C433.8,242.9,432.9,243.8,433.4,244.5L433.4,244.5z"/>
			</g>
			<g>
				<path d="M275.6,322.7c17.7,1.2,35.7,0.4,53.4,0.4c18.2,0,36.3,0.2,54.5,0.3c17.8,0,35.6,0.1,53.4,0.2
					c18.1,0.1,36.4,0.8,54.5-0.3c1.7-0.1,1.7-2.5,0-2.6c-17.7-1.1-35.6-0.4-53.4-0.3c-18.2,0.1-36.3,0.2-54.5,0.2
					c-17.8,0-35.6,0.2-53.4,0.3c-18.1,0-36.4-0.8-54.5,0.4C274.7,321.2,274.7,322.6,275.6,322.7L275.6,322.7z"/>
			</g>
			<g>
				<path d="M492.2,311.6c-18.3-1.8-37-1-55.3-1c-17.8,0-35.6,0-53.4,0.1c-17.7,0.1-35.4,0.3-53.1,0.5c-18.1,0.2-36.4-0.8-54.4,0.6
					c-1.4,0.1-1.4,2,0,2.1c18,1.3,36.4,0.2,54.4,0.2c17.7,0,35.4,0,53.1-0.1c17.8-0.1,35.6-0.1,53.4-0.1c18.4,0,37,1.1,55.3-0.1
					C493.6,313.7,493.6,311.7,492.2,311.6L492.2,311.6z"/>
			</g>
			<g>
				<path d="M345.5,245.6c3.1-2.2,7.3-1.7,11-1.8c3.7-0.1,7.4-0.2,11.1-0.2c7.8-0.2,15.5-0.2,23.3-0.3c7.4,0,14.8,0,22.2,0.1
					c7.2,0.1,14.4-0.2,21.2,2.5c1.5,0.6,2.6-2,1.1-2.6c-6.1-2.6-12.4-2.7-18.9-2.7c-9.3-0.1-18.5-0.1-27.8-0.1
					c-8.9,0.1-17.8,0.2-26.7,0.4c-5.4,0.1-13.7-1.2-17.6,3.4C343.8,244.9,344.6,246.2,345.5,245.6L345.5,245.6z"/>
			</g>
			<g>
				<path d="M376.4,240.6c-1,0.1,2-7.4,1.7-6.8c0.9-2,2-3.9,3.4-5.5c3-3.4,7.1-5.7,11.7-5.8c5-0.1,9.3,2.4,12,6.5
					c2.5,3.8,2.5,7.8,4,11.8c0.4,1,2,1.2,2.3,0c1.5-6-2.2-13.8-6.8-17.8c-5-4.2-12.1-4.6-18-2.2c-6,2.6-10.3,8.1-12,14.3
					c-0.4,1.4-1.9,8.8,1.9,6.6C377.3,241.5,377.1,240.5,376.4,240.6L376.4,240.6z"/>
			</g>
			<g>
				<path d="M389.4,194.7c-7.6-0.5-9.1,9.9-7.2,15.4c2.1,6.3,10.2,10.3,15.9,5.8c5.4-4.3,5.6-14.4,1.3-19.5
					c-3.9-4.6-13.5-5.1-15.5,1.6c-0.2,0.8,0.8,1.7,1.5,1.2c1.7-1.3,3.2-2.8,5.4-3.2c3.1-0.6,5.7,1.2,7.2,3.9
					c2.1,3.8,1.9,10.6-1.7,13.5c-10.1,8.1-17.9-15.3-6.7-17.2C390.4,196,390.1,194.8,389.4,194.7L389.4,194.7z"/>
			</g>
			<g>
				<path d="M332.6,201.8c-5.8,2.2-6.4,12.1-5,17.2c1.6,5.9,7.9,7.6,12.4,3.4c4.1-3.9,5.5-13.6,2.7-18.5c-2.9-5.1-10.8-4.9-13,0.6
					c-0.4,1,1,1.5,1.6,0.9c2.3-1.9,5.3-4.1,8.2-1.3c1.5,1.4,1.7,3.7,1.7,5.7c0,3.3-0.6,8.2-3.2,10.6c-2.2,2-5.3,2.1-7-0.5
					c-1.1-1.7-1.1-4.3-1.1-6.2c0-3.5,0.4-8.5,3.4-10.8C333.8,202.5,333.2,201.6,332.6,201.8L332.6,201.8z"/>
			</g>
			<g>
				<path d="M323.1,264.1c-1.1-8.6-3-19.4,1-27.5c2.1-4.3,7.8-9.8,12.6-5.8c4,3.3,4.4,10.4,4.7,15.1c0.2,2,3.3,2,3.1,0
					c-0.7-8.9-5.1-25.1-17.2-17.2c-10.9,7.1-8.9,25.1-5.8,35.6C321.8,265.1,323.2,265,323.1,264.1L323.1,264.1z"/>
			</g>
			<g>
				<path d="M294.9,210.7c-0.1-0.1-0.2-0.1-0.3-0.2c-0.3-0.2-0.5-0.3-0.9-0.1c-6.6,2.9-4.3,15.6-2.2,20.4c2.7,6,10.6,10.8,15.9,4.7
					c5.1-5.9,3.2-18.3-1.6-23.8c-4.6-5.3-13.2-5.8-14.4,2.5c-0.2,1.2,1.3,1.6,1.8,0.5c3.7-9.1,11.6-1.4,13.3,4.2
					c1.4,4.9,2.4,17.9-6.5,16.5c-4.9-0.8-6.9-7.2-7.6-11.4c-0.2-1.3-0.1-13.3,1.7-12.3C294.8,212.2,295.6,211.2,294.9,210.7
					L294.9,210.7z"/>
			</g>
			<g>
				<path d="M279.7,301.5c-0.1-12.7,0.6-25.3,7-36.7c3-5.2,8.1-13.4,15.1-11.5c7.8,2.1,9.5,10.9,10.5,17.7c0.3,2,3.3,1.1,3-0.8
					c-1.1-7-2.7-14.2-9.1-18.2c-5.9-3.6-11.1-2-15.7,2.8c-11.5,12-15.2,31-12.3,46.9C278.4,302.6,279.7,302.4,279.7,301.5
					L279.7,301.5z"/>
			</g>
			<g>
				<path d="M448.1,201.1c-4.6,5-7.7,14-5.1,20.6c2.7,6.9,9.8,1.9,12.8-2c3.3-4.3,6.8-13.9,2-18.5c-5.2-4.9-12.1,0.5-13.4,6
					c-0.2,0.9,1.1,1.5,1.6,0.7c1.4-2.2,3-5.1,5.8-5.7c3.8-0.9,5.4,2.4,5.7,5.6c0.4,4.2-2,9-4.9,11.9c-2,2-6.1,3.7-7.3-0.3
					c-0.5-1.8-0.2-4.3,0-6.1c0.5-4.1,2.1-7.7,4.1-11.3C449.6,201.3,448.7,200.5,448.1,201.1L448.1,201.1z"/>
			</g>
			<g>
				<path d="M436.4,245.7c1.6-3.5,3.1-6.9,5.1-10.2c1-1.7,2.5-4.8,4.3-5.6c2.4-0.1,4.8-0.1,7.1-0.2c1.3,1.4,2.2,3.1,2.4,4.9
					c1.9,8.8-1,20-4.3,28.1c-0.8,1.9,2.3,2.7,3.1,0.8c2.8-7.1,4.2-14.5,4.3-22.2c0.1-5.1-0.1-11.5-4.9-14.5
					c-9.6-6.1-17.2,11.2-18.7,18.1C434.6,245.9,436,246.6,436.4,245.7L436.4,245.7z"/>
			</g>
			<g>
				<path d="M482.1,200.3c-6.9,4-12.8,17.1-9.3,24.7c3.5,7.6,12.7,4.4,16.6-0.8c4.5-5.9,9-17.3,1.5-22.8c-6.4-4.7-15.1,0.5-15.3,8
					c0,1.1,1.6,1.3,1.9,0.3c0.9-3.1,2.4-6.2,5.9-7.1c4.7-1.3,8.4,2.6,8.7,7.1c0.2,4.8-2.7,10.6-5.9,14.1c-3.1,3.3-8.9,5.1-11.1-0.8
					c-0.9-2.5,0-5.7,0.6-8.1c1.3-4.9,3.3-9.9,7.2-13.4C483.5,200.8,482.7,199.9,482.1,200.3L482.1,200.3z"/>
			</g>
			<g>
				<path d="M459.6,271c1.9-7.8,4.5-15.6,7.9-22.9c2.2-4.8,5.3-10.1,11.4-9.6c6.1,0.4,9.5,5.8,10.6,11.2c1.5,7.4,1.5,16,1,23.5
					c-0.6,8.9-5,16.7-8.8,24.6c-0.9,1.8,1.8,3.4,2.7,1.6c5-10.1,9.5-18.9,9.4-30.4c0-8.9,1.2-21.8-5.5-28.8c-5.3-5.5-14.2-6-19.4,0
					c-6.6,7.8-9.3,20.6-11.2,30.3C457.6,271.7,459.3,272.2,459.6,271L459.6,271z"/>
			</g>
			<g>
				<path d="M365.4,271.7c-2.6,5-5.2,10-7.7,15.1c-2,3.9-4.5,7.9-5.6,12.2c-0.1,0.4,0.1,1,0.6,1.1c8.4,1.7,17.9,0.1,26.4,0
					c9.7-0.1,19.4,0,29.1,0c1.4,0,1.4-2.1,0-2.2c-13.8-0.3-27.7,0-41.5,0.5c-3.1,0.1-6.8,0.8-9.9,0.4c-3.1-0.4-2.8-1.1-1.6-3.5
					c0.7-1.6,1.6-3.2,2.4-4.7c3-6,6-12,8.9-18C367,271.6,365.8,270.9,365.4,271.7L365.4,271.7z"/>
			</g>
			<g>
				<path d="M403.6,273.5c1.7,8.6,3.7,17.1,5,25.7c0.3-0.4,0.6-0.8,0.9-1.2c-0.5,0-0.9,0-1.4,0c-0.9,0-1.1,1.4-0.2,1.5
					c0.4,0.1,0.9,0.2,1.3,0.3c0.7,0.1,1.2-0.4,1.1-1.1c-1.3-8.6-2.9-17.3-5.5-25.6C404.6,272.3,403.4,272.7,403.6,273.5L403.6,273.5
					z"/>
			</g>
			<g>
				<path d="M366.3,272.5c12.3,0.8,25.2,0.7,37.5,0.1c1,0,1-1.5,0-1.5c-12.3-0.6-25.2-0.7-37.5,0.1
					C365.4,271.2,365.4,272.5,366.3,272.5L366.3,272.5z"/>
			</g>
			<g>
				<path d="M403.3,272.2c0.4,0.8,0.6,1.6,0.7,2.5c0.1,0.8,1.2,0.5,1.3-0.2c0.1-1-0.2-2.2-0.8-3C404,270.8,402.9,271.4,403.3,272.2
					L403.3,272.2z"/>
			</g>
			<g>
				<path d="M364.7,291.4c11.3,0.4,23.2-3.1,32.2-10.1c0.6-0.5-0.2-1.5-0.8-1.1c-10,6.1-19.6,9.4-31.3,9.9
					C363.8,290.1,363.8,291.4,364.7,291.4L364.7,291.4z"/>
			</g>
			<g>
				<path d="M390.2,280.6c3.6,0.1,6.9-1,10.3-1.9c-0.3-0.4-0.6-0.7-0.8-1.1c-1.2,2.4-2.4,5-3.3,7.5c-0.3,0.8,1.1,1.4,1.4,0.6
					c1.2-2.4,2.3-5,3.3-7.5c0.2-0.5-0.4-1.1-0.9-0.9c-3.3,1-6.5,2.1-9.9,2.1C389.3,279.3,389.3,280.6,390.2,280.6L390.2,280.6z"/>
			</g>
			<g>
				<path d="M396.3,280.2c0,1.7,0,3.4,0.1,5.1c0.1,0.9,1.4,1,1.4,0c0-1.7-0.1-3.4-0.3-5.1C397.6,279.4,396.3,279.4,396.3,280.2
					L396.3,280.2z"/>
			</g>
			<g>
				<path d="M397.3,279.5c-2.3-0.2-4.6-0.6-6.9-0.6c-0.8,0-1,1.3-0.2,1.4c2.3,0.4,4.7,0.5,7.1,0.5
					C398.2,280.8,398.1,279.6,397.3,279.5L397.3,279.5z"/>
			</g>
			<g>
				<path d="M398.1,278.5c-0.4,0.6-0.7,1.4-0.7,2.1c0,0.3,0.3,0.6,0.6,0.7c0.4,0,0.6-0.2,0.7-0.5c0.3-0.6,0.4-1.3,0.3-1.9
					c0-0.7-0.9-0.9-1.3-0.4c-0.3,0.5-0.6,1.1-0.6,1.6c0,0.8,1.1,0.9,1.4,0.2c0.1-0.4,0.2-0.8,0.4-1.1c-0.4-0.1-0.9-0.2-1.3-0.4
					c0,0.6,0,1.1-0.2,1.6c0.4,0.1,0.9,0.1,1.3,0.2c0-0.5,0.2-1,0.5-1.5C399.7,278.5,398.6,277.9,398.1,278.5L398.1,278.5z"/>
			</g>
			<g>
				<path d="M365.4,291.6c0,0.2,0.1,0.4,0.2,0.5c0.3,0.6,1.4,0.6,1.3-0.2c0-0.2-0.1-0.5-0.1-0.7
					C366.5,290.4,365.1,290.7,365.4,291.6L365.4,291.6z"/>
			</g>
			<g>
				<path d="M365.4,293.4c-0.1,0.1-0.1,0.3-0.1,0.4c-0.2,0.8,1,1.1,1.2,0.3c0.1-0.1,0.1-0.3,0.1-0.4
					C366.9,292.9,365.7,292.7,365.4,293.4L365.4,293.4z"/>
			</g>
			<g>
				<path d="M364.8,295.8c0,0.1,0.1,0.2,0.1,0.3c0.4,0.7,1.4,0.1,1.1-0.7c0-0.1-0.1-0.2-0.1-0.3C365.6,294.4,364.3,295,364.8,295.8
					L364.8,295.8z"/>
			</g>
			<g>
				<path d="M364.8,297.2c0,0.1,0,0.2,0,0.3c0,0.8,1.3,0.8,1.3,0c0-0.1,0-0.2,0-0.3C366.1,296.4,364.8,296.4,364.8,297.2
					L364.8,297.2z"/>
			</g>
			<g>
				<path d="M369.8,291.6c0,0,0,0.1,0,0.1c0.1,0.8,1.3,0.8,1.3,0c0,0,0-0.1,0-0.1C371.2,290.7,369.7,290.7,369.8,291.6L369.8,291.6z
					"/>
			</g>
			<g>
				<path d="M370.2,294.9c0.8,0,0.8-1.2,0-1.2C369.4,293.6,369.4,294.9,370.2,294.9L370.2,294.9z"/>
			</g>
			<g>
				<path d="M369.4,295.5c0,0.1,0,0.2,0,0.3c0.1,0.8,1.3,0.8,1.3,0c0-0.1,0-0.2,0-0.3C370.8,294.6,369.3,294.6,369.4,295.5
					L369.4,295.5z"/>
			</g>
			<g>
				<path d="M369.4,297.1c0,0,0,0.1,0,0.1c0,0.8,1.2,0.8,1.2,0c0,0,0-0.1,0-0.1C370.7,296.3,369.4,296.3,369.4,297.1L369.4,297.1z"
					/>
			</g>
			<g>
				<path d="M370.1,298.7c0.8,0,0.8-1.2,0-1.2C369.3,297.4,369.3,298.7,370.1,298.7L370.1,298.7z"/>
			</g>
			<g>
				<path d="M375.7,290.7c0,0.1,0,0.2,0,0.3c0,0.8,1.2,0.8,1.3,0c0-0.1,0-0.2,0-0.3C377.1,289.9,375.7,289.9,375.7,290.7
					L375.7,290.7z"/>
			</g>
			<g>
				<path d="M375.7,292.9c0,0.1,0,0.2,0,0.3c0,0.8,1.3,0.8,1.3,0c0-0.1,0-0.2,0-0.3C377.1,292.1,375.7,292.1,375.7,292.9
					L375.7,292.9z"/>
			</g>
			<g>
				<path d="M375.8,295.2c0,0,0.1,0.1,0.1,0.1c0.6,0.6,1.5-0.3,0.9-0.9c0,0-0.1-0.1-0.1-0.1C376.1,293.7,375.2,294.7,375.8,295.2
					L375.8,295.2z"/>
			</g>
			<g>
				<path d="M375.5,296.9c0,0.1,0.1,0.2,0.1,0.3c0.4,0.7,1.5,0.1,1.1-0.6c0-0.1-0.1-0.2-0.1-0.3
					C376.2,295.5,375.1,296.1,375.5,296.9L375.5,296.9z"/>
			</g>
			<g>
				<path d="M382.5,289c0,0.1,0,0.2,0,0.3c0,0.8,1.2,0.8,1.3,0c0-0.1,0-0.2,0-0.3C383.9,288.1,382.4,288.1,382.5,289L382.5,289z"/>
			</g>
			<g>
				<path d="M382.6,291.6c0,0.1,0,0.3,0,0.4c0,0.8,1.3,0.8,1.3,0c0-0.1,0-0.3,0-0.4C383.9,290.7,382.6,290.7,382.6,291.6
					L382.6,291.6z"/>
			</g>
			<g>
				<path d="M382.7,294c0,0,0,0.1,0,0.1c0,0.8,1.3,0.8,1.3,0c0,0,0-0.1,0-0.1C383.9,293.2,382.7,293.2,382.7,294L382.7,294z"/>
			</g>
			<g>
				<path d="M382.7,296.5c0,0,0,0.1,0,0.1c0,0.8,1.3,0.8,1.3,0c0,0,0-0.1,0-0.1C383.9,295.7,382.7,295.7,382.7,296.5L382.7,296.5z"
					/>
			</g>
			<g>
				<path d="M391.4,285.3c0,0,0,0.1,0,0.1c0.1,0.8,1.2,0.8,1.3,0c0,0,0-0.1,0-0.1C392.8,284.5,391.3,284.5,391.4,285.3L391.4,285.3z
					"/>
			</g>
			<g>
				<path d="M391.3,289.1c0,0,0,0.1,0,0.1c0,0.8,1.2,0.8,1.3,0c0,0,0-0.1,0-0.1C392.6,288.3,391.3,288.3,391.3,289.1L391.3,289.1z"
					/>
			</g>
			<g>
				<path d="M391.5,292.6c0,0.2,0,0.4,0,0.5c0,0.8,1.3,0.8,1.3,0c0-0.2,0-0.4,0-0.5C392.8,291.8,391.5,291.8,391.5,292.6
					L391.5,292.6z"/>
			</g>
			<g>
				<path d="M391.3,295.1c0,0,0,0.1,0,0.1c0,0.8,1.3,0.8,1.3,0c0,0,0-0.1,0-0.1C392.6,294.2,391.3,294.2,391.3,295.1L391.3,295.1z"
					/>
			</g>
			<g>
				<path d="M391.9,297.7c0.8,0,0.8-1.3,0-1.3C391.1,296.5,391.1,297.7,391.9,297.7L391.9,297.7z"/>
			</g>
			<g>
				<path d="M354.8,277.2c0.9,2.9,1.6,6,2.9,8.7c0.4,0.8,1.5,0.2,1.4-0.6c-0.5-2.9-1.8-6-3-8.7C355.8,275.9,354.6,276.4,354.8,277.2
					L354.8,277.2z"/>
			</g>
			<g>
				<path d="M355.6,277.2c3.3,0.1,6.3-1.8,9.5-2.5c1.1-0.2,0.6-1.8-0.5-1.6c-3.2,0.4-6.1,2.1-9.2,2.8
					C354.6,276,354.8,277.2,355.6,277.2L355.6,277.2z"/>
			</g>
			<g>
				<path d="M362.9,300.1c0.7,2.3,1.2,4.8,2.1,6.9c0.4,0.9,1.6,0.6,1.4-0.4c-0.3-2.3-1.4-4.7-2.3-6.9
					C363.8,299,362.6,299.2,362.9,300.1L362.9,300.1z"/>
			</g>
			<g>
				<path d="M366.1,307.8c9.2-1.9,18.2-4.7,27.2-7.6c1-0.3,0.6-1.9-0.4-1.6c-9,2.8-18.1,5.2-27.1,8
					C364.9,306.8,365.3,307.9,366.1,307.8L366.1,307.8z"/>
			</g>
			<g>
				<path d="M348.9,153.2c-0.5,17.6,0.3,35.4,0.8,53.1c0,1.2,1.9,1.2,1.8,0c-0.5-17.7-0.4-35.4-1.4-53.1
					C350.2,152.4,349,152.4,348.9,153.2L348.9,153.2z"/>
			</g>
			<g>
				<path d="M441,153.3c-2.9,16.1-2.6,33.3-3.1,49.6c0,1.2,1.7,1.2,1.8,0c0.8-16.5,0.8-33,2.6-49.4
					C442.4,152.7,441.1,152.5,441,153.3L441,153.3z"/>
			</g>
			<g>
				<path d="M349.8,153.4c30.8-1.1,61.3-1.9,92,0.3c1.1,0.1,1.1-1.6,0-1.7c-30.5-2.2-61.6-3-92,0.1
					C349,152.2,348.9,153.5,349.8,153.4L349.8,153.4z"/>
			</g>
			<g>
				<path d="M350.4,207.1c10,0,20.1-0.4,30.1-0.7c1,0,1-1.5,0-1.6c-9.9-0.6-20.4-0.3-30.3,1C349.5,206,349.7,207.1,350.4,207.1
					L350.4,207.1z"/>
			</g>
			<g>
				<path d="M402.6,205.5c11.9,0.2,23.9-0.6,35.9-0.7c1.2,0,1.2-1.9,0-1.9c-11.9,0.1-24-0.1-35.9,1.2
					C401.8,204.3,401.7,205.5,402.6,205.5L402.6,205.5z"/>
			</g>
			<g>
				<path d="M432,158.1c-17.5,18-42.7,27.3-67.5,27.1c-1.1,0-1,1.5,0,1.6c13.3,1.7,26.4-1.1,38.6-6.5c11-4.9,22.5-11.6,30-21.4
					C433.6,158.3,432.6,157.6,432,158.1L432,158.1z"/>
			</g>
			<g>
				<path d="M432.1,157.6c-2.5,1.1-4.8,2.2-7.5,2.8c-1.3,0.3-0.7,2.2,0.5,2c2.8-0.6,5.5-1.6,8.1-2.9c-0.5-0.4-1-0.8-1.5-1.2
					c-1,2.8-2.3,6.4-2.2,9.4c0,1.2,1.7,1.7,2.3,0.6c1.5-2.7,1.9-6.7,2-9.7C433.8,157.8,432.9,157.4,432.1,157.6
					c-2.3,1.3-4.8,2.2-7.5,2.8c0.2,0.7,0.4,1.3,0.5,2c2.8-0.6,5.7-1.7,7.7-3.7C433.5,158.1,432.8,157.3,432.1,157.6L432.1,157.6z"/>
			</g>
			<g>
				<path d="M365,186c-0.2,1.2,0,2.4,0.2,3.6c0.1,0.8,1.3,0.6,1.4-0.2c0-1.1,0-2.4-0.3-3.4C366.1,185.4,365.1,185.3,365,186L365,186
					z"/>
			</g>
			<g>
				<path d="M364.9,193c-0.1,1.4,0,2.9,0.1,4.3c0,1,1.3,0.9,1.4,0c0.2-1.4,0.2-3.1-0.2-4.5C366,192.1,365,192.3,364.9,193L364.9,193
					z"/>
			</g>
			<g>
				<path d="M365.2,201c0,1.1,0,2.2,0,3.2c0,0.8,1.2,1,1.3,0.2c0.2-1.1,0.2-2.3,0.1-3.4C366.5,200.1,365.1,200.1,365.2,201
					L365.2,201z"/>
			</g>
			<g>
				<path d="M372.6,187c-0.2,1.5-0.2,2.9-0.1,4.4c0.1,0.9,1.4,0.9,1.4,0c0-1.4,0-2.8,0-4.2C373.9,186.5,372.7,186.3,372.6,187
					L372.6,187z"/>
			</g>
			<g>
				<path d="M372.8,194.1c0,0.9-0.1,1.7,0,2.6c0,0.9,1.3,0.9,1.4,0c0-0.9,0-1.7,0-2.6C374.1,193.2,372.8,193.2,372.8,194.1
					L372.8,194.1z"/>
			</g>
			<g>
				<path d="M372.9,200.5c-0.2,1.3-0.2,2.7,0.4,3.9c0.4,0.8,1.4,0.2,1.3-0.5c-0.2-1.1-0.4-2.1-0.4-3.2
					C374.2,200,373,199.8,372.9,200.5L372.9,200.5z"/>
			</g>
			<g>
				<path d="M401,180.3c-0.2,1.8-0.1,3.7,0,5.5c0,1,1.4,0.9,1.5,0c0.2-1.9,0.2-3.9-0.2-5.7C402.2,179.4,401.1,179.6,401,180.3
					L401,180.3z"/>
			</g>
			<g>
				<path d="M401.8,188.8c-0.1,1.2-0.2,2.3-0.2,3.5c0,0.7,1.3,1,1.4,0.2c0.2-1.2,0.2-2.5,0.2-3.7C403.1,187.9,401.9,188,401.8,188.8
					L401.8,188.8z"/>
			</g>
			<g>
				<path d="M402,196.4c0,1.3-0.1,2.7-0.1,4c0,0.8,1.3,1,1.4,0.2c0.2-1.4,0.3-2.8,0.2-4.2C403.3,195.5,402,195.5,402,196.4
					L402,196.4z"/>
			</g>
			<g>
				<path d="M409.9,176.8c-0.3,1.4-0.5,3.1-0.2,4.6c0.2,0.9,1.4,0.6,1.5-0.2c0.2-1.3,0.1-2.8,0-4.2C411.1,176.2,410,176,409.9,176.8
					L409.9,176.8z"/>
			</g>
			<g>
				<path d="M409.9,186.8c0,1.6-0.1,3.2-0.1,4.9c0,0.8,1.3,1,1.4,0.2c0.3-1.7,0.3-3.4,0.2-5C411.3,185.9,409.9,185.9,409.9,186.8
					L409.9,186.8z"/>
			</g>
			<g>
				<path d="M410,195.7c-0.1,1.3-0.2,2.5,0,3.8c0.1,0.9,1.3,0.9,1.4,0c0.1-1.3,0.1-2.5,0-3.8C411.3,194.9,410.1,194.9,410,195.7
					L410,195.7z"/>
			</g>
			<g>
				<path d="M410.2,202.6c-0.1,0.5-0.2,1.1-0.2,1.7c0,0.7,1.1,0.9,1.3,0.2c0.1-0.5,0.2-1.1,0.2-1.7
					C411.5,202,410.4,201.8,410.2,202.6L410.2,202.6z"/>
			</g>
			<g>
				<path d="M418.2,171.8c-0.3,1.9-0.1,4,0,6c0.1,0.9,1.4,1,1.5,0c0.1-1.9,0.2-4.1-0.3-6C419.3,171.2,418.3,171.2,418.2,171.8
					L418.2,171.8z"/>
			</g>
			<g>
				<path d="M418.3,183.3c0,1.9-0.1,3.9,0.1,5.8c0.1,0.9,1.3,0.9,1.4,0c0.1-1.9,0.1-3.9,0.1-5.8
					C419.8,182.4,418.3,182.4,418.3,183.3L418.3,183.3z"/>
			</g>
			<g>
				<path d="M418.5,193.7c0.1,1.3,0.1,2.7,0.3,4c0.1,0.8,1.3,0.6,1.4-0.2c0.1-1.3,0-2.5-0.1-3.8
					C420.1,192.7,418.5,192.7,418.5,193.7L418.5,193.7z"/>
			</g>
			<g>
				<path d="M418.9,201.1c-0.1,0.9-0.1,1.9,0,2.8c0.1,0.9,1.3,0.9,1.4,0c0.1-0.9,0-1.9,0-2.8C420.2,200.3,419,200.3,418.9,201.1
					L418.9,201.1z"/>
			</g>
			<g>
				<path d="M425.3,166.4c-0.1,1.8-0.2,3.5-0.1,5.3c0.1,0.9,1.4,0.9,1.5,0c0.1-1.8,0.1-3.5-0.1-5.3
					C426.5,165.6,425.3,165.6,425.3,166.4L425.3,166.4z"/>
			</g>
			<g>
				<path d="M425.3,177.1c-0.2,2.3-0.3,4.6-0.2,6.9c0,0.9,1.3,0.9,1.3,0c0.2-2.3,0.2-4.6,0.2-6.9
					C426.6,176.2,425.3,176.3,425.3,177.1L425.3,177.1z"/>
			</g>
			<g>
				<path d="M425.1,187.9c-0.1,1.6-0.2,3.2-0.1,4.7c0.1,0.9,1.3,0.9,1.4,0c0.2-1.6,0-3.2-0.1-4.7
					C426.4,187.1,425.2,187.1,425.1,187.9L425.1,187.9z"/>
			</g>
			<g>
				<path d="M425.2,197.2c-0.1,1.4-0.3,2.9,0.1,4.2c0.2,0.8,1.4,0.6,1.4-0.2c0.1-1.3-0.2-2.7-0.2-4
					C426.7,196.3,425.3,196.3,425.2,197.2L425.2,197.2z"/>
			</g>
			<g>
				<path d="M425.5,203.1c-0.1,0.5-0.1,1,0,1.5c0.1,0.7,1.2,0.7,1.4,0c0.1-0.5,0-1,0-1.5C426.8,202.4,425.6,202.4,425.5,203.1
					L425.5,203.1z"/>
			</g>
			<g>
				<path d="M392.2,182.9c-0.2,0.9-0.2,1.8-0.2,2.7c0,0.8,1.2,1,1.4,0.2c0.2-0.9,0.4-2,0.1-2.9C393.4,182.2,392.3,182.2,392.2,182.9
					L392.2,182.9z"/>
			</g>
			<g>
				<path d="M392.3,189.1c0,0.7,0,1.4-0.1,2c-0.1,0.8,1.2,0.9,1.4,0.2c0.2-0.8,0.2-1.6,0.1-2.4C393.5,188.2,392.3,188.3,392.3,189.1
					L392.3,189.1z"/>
			</g>
			<g>
				<path d="M383.2,185.6c0.1,1.1,0.1,2.2,0.2,3.2c0.1,0.9,1.3,0.9,1.4,0c0.1-1.2-0.1-2.3-0.3-3.4
					C384.3,184.7,383.1,184.8,383.2,185.6L383.2,185.6z"/>
			</g>
			<g>
				<path d="M383.4,191.7c-0.1,0.9,0,1.8,0.1,2.7c0,0.4,0.2,0.6,0.6,0.7c0.3,0,0.7-0.2,0.8-0.5c0.1-1,0.1-2.1-0.2-3.1
					C384.5,190.8,383.5,190.9,383.4,191.7L383.4,191.7z"/>
			</g>
			<g>
				<path d="M378.4,186.7c0,1,0,2,0.3,2.9c0.2,0.7,1.4,0.6,1.4-0.2c0-0.9-0.2-1.8-0.3-2.7C379.7,185.8,378.5,185.8,378.4,186.7
					L378.4,186.7z"/>
			</g>
			<g>
				<path d="M378.9,194.4c0,1.1,0,2.1,0.1,3.2c0.1,0.8,1.4,0.6,1.4-0.2c0-1-0.1-2-0.2-3C380.1,193.6,378.9,193.5,378.9,194.4
					L378.9,194.4z"/>
			</g>
			<g>
				<path d="M378.8,201.5c0,0.9-0.1,1.9,0,2.8c0.1,0.9,1.3,0.9,1.4,0c0.1-0.9,0-1.9,0-2.8C380.2,200.6,378.8,200.6,378.8,201.5
					L378.8,201.5z"/>
			</g>
		</g>
	</g>
	<g>
		<g>
			<g>
				<path d="M139.5,214.7c-7.4,1.5-14.5,7.8-20.5,12.2c-6.4,4.7-12.6,9.5-18.6,14.8c-6.1,5.5-12.5,10.7-18.2,16.6
					c-4.6,4.7-10.2,10.6-12.7,16.8c-0.2,0.6,1,1.4,1.5,1.2c0.1,0,0.2,0,0.2-0.1c0.7-0.2-0.7-1.6-1.3-1.4c-0.1,0-0.2,0-0.2,0.1
					c0.5,0.4,1,0.8,1.5,1.2c1.3-3.2,3.9-6.3,6-9.1c2.3-3.1,5-5.9,7.8-8.6c5.5-5.4,11.3-10.3,17-15.4c6.3-5.6,12.9-10.7,19.8-15.6
					c5.6-4.1,12.2-9.8,19.1-11.2C141.5,216,140.2,214.6,139.5,214.7L139.5,214.7z"/>
			</g>
		</g>
		<g>
			<g>
				<path d="M115.4,231.1c2.3-4.8,4.5-9.6,6.9-14.3c2.6-5.1,5.8-8.2,10.2-11.8c2-1.7,3.9-3.3,6-4.8c3.3-2.3,6-2.2,9.8-2
					c5.4,0.2,10.5-1.2,15.8-1.8c-0.4-0.4-0.9-0.8-1.4-1.2c-1.8,4.6-3.8,8.8-5.2,13.6c-2,6.9-5.6,11.1-11.6,14.8
					c-4.6,2.8-9.8,3.9-14.9,5.6c-5.4,1.8-11.7,2.9-17.4,2.1c0.4,0.4,0.7,0.9,1.1,1.3c0.1-0.1,0.1-0.1,0.2-0.2
					c0.4-0.5-1.1-1.8-1.6-1.3c-0.1,0.1-0.1,0.1-0.2,0.2c-0.4,0.5,0.7,1.3,1.1,1.3c5,0.7,10.6,0.2,15.4-1.2
					c5.9-1.7,12.3-3.4,17.5-6.6c5.2-3.1,8.8-6.4,11-12.2c2.1-5.6,4-11.1,6.2-16.6c0.2-0.5-0.9-1.3-1.4-1.2c-5.8,0.6-11.3,2-17.1,1.7
					c-5.6-0.2-8.5,1.6-12.7,5.1c-4.6,3.7-9,7.1-11.8,12.4c-2.7,5.2-5,10.5-7.6,15.7C113.5,230.6,115.1,231.7,115.4,231.1
					L115.4,231.1z"/>
			</g>
		</g>
		<g>
			<g>
				<path d="M109.3,235.3c-2.9-4-6.5-7.4-9.3-11.4c-2.4-3.4-5.4-9.2-6.1-13.4c-0.8-5,1.6-8.3,5-11.4c1.5-1.4,2.8-2.9,4-4.5
					c1.1-1.5,1.7-3.9,3.6-2.6c1,0.7,2,2.6,2.9,3.6c1.5,1.8,3.2,3.4,4.8,5.1c3.1,3.5,2.1,9,0.8,13.2c-1.3,4.2-3.2,8.1-4.3,12.4
					c-0.7,2.7-2.4,6.5-2,9.3c0.1,0.6,1.8,1.6,1.7,0.7c-0.4-2.3,1.2-5.3,1.7-7.4c0.6-2.5,1.2-4.9,2.1-7.4c1.9-5.1,4.4-10.7,3.8-16.3
					c-0.4-3.6-4.3-6.5-6.5-8.9c-1.9-2.1-4-6-7-6.7c-0.1,0-0.3,0-0.4,0.1c-1.3,1.4-2.2,3.3-3.4,4.8c-1.6,1.9-3.5,3.3-5.2,5.1
					c-2.6,2.6-3.8,6.7-3.1,10.4c1.9,10.4,9.8,17.4,15.7,25.5C108.4,236,110.1,236.4,109.3,235.3L109.3,235.3z"/>
			</g>
		</g>
		<g>
			<g>
				<path d="M107.6,238.7c4.1,1.4,8.3,1.5,12.6,1c4.7-0.5,9.5-2.3,14.3-0.6c6.8,2.4,10,9.7,12.7,15.7c0.8,1.7,2.5,3.8,3,5.6
					c0.4,1.7,0.5,0.7-1.1,0.9c-3.8,0.5-7.2,2.2-11.1,2c-7-0.2-11.2-4.4-15.5-9.4c-4.9-5.8-9.7-11.6-15.6-16.4
					c-0.9-0.8-1.6,0-0.6,0.8c8,6.5,13.2,15.7,21.2,22.3c3.5,2.9,6.8,4.3,11.4,4.3c4.6,0.1,8.9-2.5,13.4-1.6c0.2,0,0.5,0,0.5-0.2
					c0-1.2-0.7-2.2-1.3-3.3c-1.3-2.4-2.6-4.8-3.7-7.4c-2.2-4.9-5.2-9.4-9.6-12.6c-9.3-6.7-20.3,1.1-30.5-2.4
					C106.1,237,106.9,238.4,107.6,238.7L107.6,238.7z"/>
			</g>
		</g>
		<g>
			<g>
				<path d="M106.7,236.9c-4.7-3.5-8.7-7.4-13-11.4c-3-2.8-6-5.6-10.2-6.2c-4.1-0.6-8.7,0.5-12.3,2.2c-2.1,1-8,2.3-7.6,5.3
					c0.3,2.2,2.9,4.6,4.3,6.2c2.6,2.9,5.5,5.5,9.2,6.8c5.1,1.8,9,1.2,14.2,1c5-0.1,10.4-1.3,15.2-2.8c-0.4-0.2-0.8-0.3-1.2-0.5
					c0.1,0.1,0.1,0.1,0.2,0.2c0.7,0.6,2,0.5,1-0.4c-0.1-0.1-0.1-0.1-0.2-0.2c-0.3-0.3-0.7-0.6-1.2-0.5c-3.7,1.2-7.6,1.7-11.4,2.5
					c-3,0.6-7.1,0.9-10.2,0.9c-5-0.1-9.8-2.5-13.3-5.9c-1.9-1.8-6.4-5.7-3.8-8.3c1.7-1.7,5.6-3,7.9-3.9c5-1.9,10.4-2,14.9,1.1
					c3.3,2.3,6,5.6,8.9,8.4c2.4,2.4,5.1,4.2,7.8,6.2C107.1,238.4,107.7,237.6,106.7,236.9L106.7,236.9z"/>
			</g>
		</g>
		<g>
			<g>
				<path d="M106,238.1c0.2,3.2,2.5,6.1,3.5,9.1c1.5,4,3.6,8.4,4.6,12.5c1,4.1-0.5,7.7-2.2,11.5c-0.8,1.7-1.6,3.6-2.9,5
					c-0.7,0.8-3.2,3.6-4.2,3.7c-1.6,0.2-4.5-5.4-5.6-6.9c-1.3-1.8-3.7-4.1-4.2-6.3c-0.5-2.1,0.4-5.1,1.2-7.1
					c1.4-3.8,2.8-7.9,4.7-11.5c1.5-2.9,3.8-5.1,5.7-7.7c-0.4-0.1-0.9-0.3-1.3-0.4c0.1,0.1,0.2,0.1,0.2,0.2c0.7,0.6,2,0.5,1-0.4
					c-0.1-0.1-0.2-0.1-0.2-0.2c-0.2-0.2-1-0.8-1.3-0.4c-2.4,3.2-4.8,5.8-6.5,9.5c-2,4.4-4.5,9.5-5.1,14.3c-0.6,4.6,2.4,7.3,5,10.8
					c1.6,2.2,3,5.2,4.8,7.2c0.4,0.4,0.9,1,1.4,1.1c1.8,0.4,5-3.4,6-4.5c2.4-2.7,4.5-7.5,5.3-11c0.9-4.1-0.6-7.3-2.1-11
					c-1.1-2.8-2-5.7-3.1-8.5c-1-2.5-3-5.2-3.2-8C107.6,238.2,105.9,237.2,106,238.1L106,238.1z"/>
			</g>
		</g>
		<g>
			<g>
				<path d="M105.7,239c0.8,1.7-0.5,4.2-0.6,6c-0.1,2.4,0.1,4.9,0.1,7.3c0,2.4,0,4.8,0.2,7.2c0.1,1.7,0.7,4.2,0.4,5.8
					c-0.2,0.6,1.5,1.7,1.7,1c0.4-1.6-0.3-4.3-0.3-5.9c-0.1-2.5-0.2-4.9-0.2-7.3c0-3.2-0.4-6.4,0.2-9.5c0.3-1.6,0.9-2.7,0.2-4.2
					C107,238.8,105.2,238,105.7,239L105.7,239z"/>
			</g>
		</g>
		<g>
			<g>
				<path d="M103.4,235.7c-4.8,0.8-12.1-1.1-16.5-3.1c-2.2-1-5.5-3.8-8.1-3c-0.7,0.2,0.7,1.6,1.3,1.4c1.5-0.4,4.6,1.7,5.8,2.3
					c1.7,0.8,3.3,1.4,5.1,1.8c4,1.1,9.2,2.7,13.3,2C105.4,237,104.1,235.5,103.4,235.7L103.4,235.7z"/>
			</g>
		</g>
		<g>
			<g>
				<path d="M103.9,209.2c-0.8,2-0.4,4-0.2,6.1c0.4,3.2,0.7,6.4,1.1,9.6c0.7,5.7,3.3,10.5,6.2,15.4c0.4,0.6,2,1.1,1.3,0
					c-3.1-5.2-5.4-10.2-6.1-16.3c-0.4-4-2.3-10-0.8-13.8C105.8,209.6,104.2,208.4,103.9,209.2L103.9,209.2z"/>
			</g>
		</g>
		<g>
			<g>
				<path d="M109.3,240c1-0.1,2.5,1.4,3.4,1.8c2.5,1.3,5.3,2,7.8,3.2c6.1,2.7,13.4,5.3,18,10.3c0.6,0.7,1.9,0.6,1-0.4
					c-4.4-4.9-11.2-7.6-17.1-10.3c-3.5-1.6-7.3-2.8-10.7-4.6c-1-0.5-2.3-1.7-3.5-1.6C107.4,238.7,108.7,240.1,109.3,240L109.3,240z"
					/>
			</g>
		</g>
	</g>
</g>
</svg>
