<?xml version="1.0" encoding="utf-8"?>
<!-- Generator: Adobe Illustrator 24.0.1, SVG Export Plug-In . SVG Version: 6.00 Build 0)  -->
<svg version="1.1" xmlns="http://www.w3.org/2000/svg" xmlns:xlink="http://www.w3.org/1999/xlink" x="0px" y="0px"
	 viewBox="0 0 501 341" style="enable-background:new 0 0 501 341;" xml:space="preserve">
<style type="text/css">
	.st0{fill:#92D7E7;}
	.st1{fill:#FFFFFF;}
	.st2{fill:#231F20;}
	.st3{font-family:'Bender-Bold';}
	.st4{font-size:42.658px;}
	.st5{fill:none;stroke:#231F20;stroke-width:4.4671;stroke-miterlimit:10;}
	.st6{fill:#C6C6C6;}
</style>
<g id="Layer_1">
</g>
<g id="Layer_37">
	<path class="st0" d="M31.4,263h373.2c13.3,0,24.1-10.8,24.1-24.1V31.6c0-13.3-10.8-24.1-24.1-24.1H31.4C18.1,7.5,7.3,18.3,7.3,31.6
		v207.3C7.3,252.2,18.1,263,31.4,263z"/>
	<polygon class="st1" points="265.1,266.2 258.7,258.3 285.8,245.8 286.6,202 322,187.7 342.3,203.3 343.8,229.2 360.3,220.4 
		359.9,184 392.2,169.7 416.9,183.4 416.1,129.3 431,124.1 437.2,249.1 429.5,268.8 282.2,273.4 	"/>
	<g>
		<g>
			<text transform="matrix(1 0 0 1 176.1514 79.0933)" class="st2 st3 st4">1</text>
		</g>
		<circle class="st5" cx="187.1" cy="65.8" r="27.3"/>
	</g>
	<g>
		<g>
			<path class="st6" d="M355.2,172.8c-1.3,2.2-2.6,4.4-3.9,6.6c-0.9,1.5-2,3.4-1.1,5.1c1.4,2.7,5.8,1.3,5-1.7
				c-0.6-2.4-4.1-1.4-3.7,1c0,0.1,0,0.2,0.1,0.3c0.1-0.5,0.1-1,0.2-1.5c1.3,0.6,2.1,0.4,2.4-0.5c0.2-0.4,0.4-0.8,0.7-1.2
				c0.4-0.7,0.7-1.3,1.1-2c0.8-1.4,1.5-2.9,2.3-4.4C359.5,172.6,356.4,170.8,355.2,172.8L355.2,172.8z"/>
		</g>
		<g>
			<path class="st6" d="M368.3,167.7c-6.2,6.2-11.9,13.4-15.8,21.3c-1.1,2.2,2,4.1,3.3,1.9c4.5-7.3,9.2-14.2,15-20.6
				C372.5,168.6,370,166,368.3,167.7L368.3,167.7z"/>
		</g>
		<g>
			<path class="st6" d="M377.4,166c-4.9,5.9-9.7,11.8-14.5,17.8c-3.4,4.2-7,7.9-7.6,13.4c-0.3,2.2,3.4,2.7,3.9,0.5
				c1.3-6,6.5-10.8,10.2-15.5c3.6-4.5,7.1-9,10.6-13.6C381.4,166.7,378.9,164.1,377.4,166L377.4,166z"/>
		</g>
		<g>
			<path class="st6" d="M382.4,168.9c-7.3,8.6-14.4,17.4-21.5,26.1c-1.9,2.4-6.7,8.6-1.1,10c2.4,0.6,3.4-3,1-3.7
				c1.5,0.5,11.1-13.4,12.4-15c3.9-4.9,7.9-9.8,11.7-14.8C386.4,169.7,384,167.1,382.4,168.9L382.4,168.9z"/>
		</g>
		<g>
			<path class="st6" d="M389.9,169.8c-12.6,13.5-24,28.4-33.4,44.4c-1.3,2.2,1.5,4,3.3,2.6c1-0.9,2.1-1.8,3.1-2.6
				c1.7-1.4-0.6-4.4-2.4-3.1c-1.1,0.8-2.2,1.6-3.3,2.4c1,1,1.9,1.9,2.9,2.9c9.9-15.4,20.5-29.9,32.4-43.9
				C394.1,170.6,391.6,168,389.9,169.8L389.9,169.8z"/>
		</g>
		<g>
			<path class="st6" d="M397.7,170.7c-14.3,16.7-28.3,34.6-38.7,54.1c-1.2,2.3,2,4.1,3.4,2c12.2-18.3,23.9-36.5,37.9-53.5
				C401.9,171.6,399.3,168.9,397.7,170.7L397.7,170.7z"/>
		</g>
		<g>
			<path class="st6" d="M399.9,177.5c-6.9,10-13.9,20-20.7,30c-5.1,7.4-14,16.5-16.3,25.2c-0.2,0.9,0.1,1.9,0.9,2.3
				c0.2,0.1,0.5,0.3,0.7,0.4c0.8,0.5,1.7,0.3,2.4-0.3c0.2-0.1,0.4-0.3,0.5-0.5c1.7-1.4-0.6-4.5-2.4-3.1c5.4-3.9,7.9-7.3,11.8-13
				c2.8-4.1,5.6-8.3,8.4-12.4c6-8.9,11.9-17.8,17.9-26.7C404.5,177.4,401.2,175.5,399.9,177.5L399.9,177.5z"/>
		</g>
		<g>
			<path class="st6" d="M405.2,184c-6.8,9.5-13.6,19.1-20.3,28.8c-5.6,8.1-12.5,16-15,25.6c-0.7,2.5,3,3.4,3.8,1.1
				c3.6-10.2,11.1-19.1,17.2-27.9c5.8-8.5,11.7-17,17.5-25.6C409.8,183.9,406.6,182,405.2,184L405.2,184z"/>
		</g>
		<g>
			<path class="st6" d="M403.8,195.1c-9.2,13.8-18.1,28-25.7,42.7c-1.2,2.3,2.1,4.2,3.4,2c8.7-14.2,16.9-28.6,25.6-42.8
				C408.3,194.9,405.1,193.1,403.8,195.1L403.8,195.1z"/>
		</g>
		<g>
			<path class="st6" d="M406.7,203.9c-6,9.9-12.5,19.7-17.9,30c-1.2,2.3,2,4.1,3.4,2c6.4-9.7,12-20,17.8-30.1
				C411.3,203.7,408,201.7,406.7,203.9L406.7,203.9z"/>
		</g>
		<g>
			<path class="st6" d="M410.9,212.3c-6.1,6.5-11.4,14.3-14,23c-0.6,2,2.6,3.5,3.5,1.5c3.5-8,7.3-15.2,13.3-21.7
				C415.4,213.2,412.7,210.4,410.9,212.3L410.9,212.3z"/>
		</g>
		<g>
			<path class="st6" d="M411.5,221.4c-2.2,3.3-4.6,6.5-6.7,9.8c-1.4,2.2,1.9,4,3.4,2c2.4-3.2,4.5-6.5,6.7-9.8
				C416.4,221.3,413,219.3,411.5,221.4L411.5,221.4z"/>
		</g>
		<g>
			<path class="st6" d="M282,191.6c-1.9,1.7-3.8,3.5-5.5,5.4c-1.6,1.7-3.5,3.4-4.6,5.4c-1.9,3.2,2.4,6.5,4.4,3.3
				c1.4-2.2-1.9-3.9-3.3-2c-0.1,0.1-0.1,0.2-0.2,0.3c0.6-0.3,1.1-0.6,1.7-1c0.3,0.5,0.7,1,1,1.4c0.2-0.2,0.4-0.5,0.6-0.7
				c0.4-0.3,0.8-0.9,1.1-1.3c0.8-1,1.7-1.9,2.5-2.9c1.6-1.8,3.3-3.5,5-5.3C286.3,192.4,283.8,190,282,191.6L282,191.6z"/>
		</g>
		<g>
			<path class="st6" d="M297.2,184.4c-8.8,8.5-17.3,18.8-22.9,29.8c-1.2,2.3,2,4.1,3.5,2c7.1-10.1,13.9-19.9,22.1-29.1
				C301.5,185.2,299,182.7,297.2,184.4L297.2,184.4z"/>
		</g>
		<g>
			<path class="st6" d="M306.5,183.9c-11.7,12.9-22.1,27.3-30.3,42.7c-1,1.9,1,4.1,3,3c1.8-1.1,3.7-2.2,5.5-3.2
				c2.2-1.3,0.3-4.5-2-3.4c-1.9,1-3.8,1.9-5.7,2.9c1,1,2,2,3,3c8.7-14.9,18.2-28.9,29.3-42.2C310.8,184.8,308.2,182.1,306.5,183.9
				L306.5,183.9z"/>
		</g>
		<g>
			<path class="st6" d="M314.9,185.4c-14,15.9-26.3,33.7-34.9,53.1c-1,2.4,2.3,4.5,3.6,2.1c10-18.6,20.7-36.1,34.1-52.5
				C319.1,186.3,316.6,183.6,314.9,185.4L314.9,185.4z"/>
		</g>
		<g>
			<path class="st6" d="M321.2,193.8c-14.5,15.9-28.3,33.9-37.2,53.6c-1.1,2.3,2.1,4.3,3.5,2c11.2-18.6,22.2-36.4,36.5-52.9
				C325.6,194.6,322.9,191.9,321.2,193.8L321.2,193.8z"/>
		</g>
		<g>
			<path class="st6" d="M324.7,204.1c-13.5,15.7-26.8,32.3-37.5,50.1c-1.4,2.3,2,4.2,3.5,2.1c12-16.8,23.6-33.5,36.7-49.5
				C329,205,326.4,202.2,324.7,204.1L324.7,204.1z"/>
		</g>
		<g>
			<path class="st6" d="M325.1,215.2c-6.8,8.5-13.6,17.1-20.3,25.8c-3.4,4.5-6.8,9-10.2,13.6c-1.7,2.3-4,4.3-3.8,7.3
				c0.1,0.9,0.6,2,1.6,2.1c0.3,0.1,0.6,0.1,0.9,0.2c1.1,0.2,2.4-0.3,2.7-1.5c0.1-0.2,0.1-0.5,0.2-0.7c0.5-2.2-2.5-3.6-3.7-1.6
				c2.5,1.5,4.2,0.8,5.1-2.1c1.3-1.8,2.7-3.7,4-5.5c2.7-3.6,5.4-7.3,8.1-10.9c6-8,12.1-16,18.2-23.9
				C329.5,216,326.7,213.2,325.1,215.2L325.1,215.2z"/>
		</g>
		<g>
			<path class="st6" d="M328.1,226c-10.4,11.6-20.9,23.8-29.2,37.1c-1.2,2,1.8,4.5,3.3,2.5c9.6-12.3,18.5-25,28.6-36.8
				C332.4,226.8,329.8,224.1,328.1,226L328.1,226z"/>
		</g>
		<g>
			<path class="st6" d="M330.2,236.9c-9.5,9.1-18.3,19.2-25.2,30.4c-0.9,1.5,0.3,3.1,1.9,3.2c0.7,0.1,1.3,0.1,2,0.2
				c2.2,0.2,2.7-3.4,0.5-3.9c-0.7-0.2-1.3-0.3-2-0.5c0.4,1.1,0.9,2.1,1.3,3.2c7.4-10.6,15.2-20.6,24.4-29.7
				C334.9,237.9,332.1,235.1,330.2,236.9L330.2,236.9z"/>
		</g>
		<g>
			<path class="st6" d="M329.8,248.9c-4.7,6.3-9.8,12.5-14,19.2c-1.2,1.9,1.7,4.2,3.2,2.4c5.2-6.2,9.7-13,14.4-19.6
				C334.9,248.8,331.4,246.8,329.8,248.9L329.8,248.9z"/>
		</g>
		<g>
			<path class="st6" d="M335.6,250.7c-3,5.8-6.1,11.6-8.9,17.5c-1.1,2.3,2.2,4.3,3.4,2c3.2-5.7,6-11.6,8.9-17.5
				C340.2,250.4,336.8,248.4,335.6,250.7L335.6,250.7z"/>
		</g>
		<g>
			<path class="st6" d="M391.5,291.3c-1.6,1.8-2.5,3.8-2.6,6.2c-0.1,2.4,3.5,2.3,3.7,0c0.1-1.4,0.6-2.5,1.5-3.6
				C395.7,292.2,393.1,289.6,391.5,291.3L391.5,291.3z"/>
		</g>
		<g>
			<path class="st6" d="M397.8,287.3c-0.7,3.6-1.6,7.1-2.1,10.7c-0.4,2.3,3.1,3.4,3.6,1c0.8-3.5,1.4-7.1,2-10.7
				C401.8,285.9,398.3,284.9,397.8,287.3L397.8,287.3z"/>
		</g>
		<g>
			<path class="st6" d="M406.3,283.5c-1.5,5.4-3,10.8-4.1,16.3c-0.5,2.4,3,3.4,3.7,1c1.6-5.4,2.8-10.9,3.9-16.3
				C410.3,282.2,407,281.2,406.3,283.5L406.3,283.5z"/>
		</g>
		<g>
			<path class="st6" d="M417.4,278.9c-3.7,6.9-7.1,14.3-9,21.9c-0.6,2.4,2.9,3.3,3.7,1c2.4-7.3,4.9-14.3,8.5-21.1
				C421.7,278.7,418.5,276.8,417.4,278.9L417.4,278.9z"/>
		</g>
		<g>
			<path class="st6" d="M426.6,273.3c-3.9,8.3-7.5,16.8-10.3,25.6c-0.8,2.3,2.8,3.3,3.6,1c3.1-8.4,6.2-16.6,9.9-24.8
				C430.8,273,427.6,271.1,426.6,273.3L426.6,273.3z"/>
		</g>
		<g>
			<path class="st6" d="M432.9,275.6c-3.2,7.8-6.5,15.6-9.6,23.5c-0.8,2,2.6,3.4,3.5,1.5c3.4-7.9,6.5-15.9,9.8-23.9
				C437.5,274.3,433.8,273.3,432.9,275.6L432.9,275.6z"/>
		</g>
		<g>
			<path class="st6" d="M440.8,274.6c-3.2,8.1-6.5,16.3-9.5,24.5c-0.9,2.3,2.7,3.2,3.6,1c3.3-8.1,6.4-16.3,9.5-24.5
				C445.3,273.3,441.7,272.4,440.8,274.6L440.8,274.6z"/>
		</g>
		<g>
			<path class="st6" d="M461.1,259.3c2.3,0,2.3-3.6,0-3.6C458.7,255.7,458.7,259.3,461.1,259.3L461.1,259.3z"/>
		</g>
		<g>
			<path class="st6" d="M465.3,253.6c-0.4,4-1.6,7.8-3.2,11.6c-0.9,2.2,2.1,4.1,3.2,1.9c2.1-4.2,3.2-8.8,3.6-13.5
				C469.1,251.3,465.5,251.3,465.3,253.6L465.3,253.6z"/>
		</g>
		<g>
			<path class="st6" d="M472,252.2c-0.8,3.9-1.6,7.7-2.3,11.6c-0.4,2.3,3,3.3,3.6,1c0.9-3.9,1.6-7.8,2.3-11.6
				C476,250.8,472.5,249.8,472,252.2L472,252.2z"/>
		</g>
		<g>
			<path class="st6" d="M458.7,256.1c-2.7,2.2-4.7,5.3-5.3,8.7c-0.4,2.3,3,3.4,3.6,1c0.7-2.9,2-5.2,4.3-7.1
				C463.2,257.2,460.5,254.6,458.7,256.1L458.7,256.1z"/>
		</g>
		<g>
			<path d="M275.1,247c6.9,7.8,14.2,15.1,21.9,22.1c0.7,0.7,1.9-0.4,1.1-1.1c-7.7-7-15-14.3-21.9-22.1
				C275.6,245.1,274.5,246.2,275.1,247L275.1,247z"/>
		</g>
		<g>
			<path d="M274.7,242c7.4,7.8,15,15.4,22.8,22.8c0.7,0.7,1.8-0.4,1.1-1.1c-7.8-7.4-15.4-15-22.8-22.8
				C275.2,240.2,274,241.3,274.7,242L274.7,242z"/>
		</g>
		<g>
			<path d="M274.9,238.3c7.3,7.2,14.8,14.3,22.3,21.3c0.7,0.7,1.8-0.4,1.1-1.1c-7.5-7-14.9-14.1-22.3-21.3
				C275.3,236.4,274.2,237.6,274.9,238.3L274.9,238.3z"/>
		</g>
		<g>
			<path d="M274.9,231.7c7.6,6.7,15,13.7,22.1,21c0.7,0.7,1.8-0.4,1.1-1.1c-7.2-7.2-14.5-14.2-22.1-21
				C275.2,230,274.1,231.1,274.9,231.7L274.9,231.7z"/>
		</g>
		<g>
			<path d="M275,227.5c6.8,7.3,14.1,14.1,22,20.3c0.8,0.6,1.9-0.5,1.1-1.1c-7.8-6.2-15.2-13-22-20.3
				C275.4,225.6,274.3,226.7,275,227.5L275,227.5z"/>
		</g>
		<g>
			<path d="M275.1,223.1c7.2,7.3,14.7,14.3,22.5,21.1c0.8,0.7,1.9-0.4,1.1-1.1c-7.7-6.8-15.2-13.8-22.5-21.1
				C275.5,221.3,274.3,222.4,275.1,223.1L275.1,223.1z"/>
		</g>
		<g>
			<path d="M274.9,219.5c7.2,7.1,14.6,13.8,22.4,20.2c0.8,0.6,1.9-0.5,1.1-1.1c-7.8-6.4-15.2-13.1-22.4-20.2
				C275.3,217.6,274.2,218.7,274.9,219.5L274.9,219.5z"/>
		</g>
		<g>
			<path d="M274.9,214.3c7.3,6.9,14.9,13.7,22.6,20.2c0.8,0.6,1.9-0.5,1.1-1.1c-7.7-6.5-15.3-13.2-22.6-20.2
				C275.2,212.5,274.1,213.6,274.9,214.3L274.9,214.3z"/>
		</g>
		<g>
			<path d="M275.3,209.4c7,6.7,14.2,13.2,21.6,19.3c0.8,0.6,1.9-0.5,1.1-1.1c-7.5-6.2-14.7-12.6-21.6-19.3
				C275.7,207.6,274.5,208.7,275.3,209.4L275.3,209.4z"/>
		</g>
		<g>
			<path d="M275.2,204.2c7.2,6.6,14.4,13,21.8,19.3c0.8,0.7,1.9-0.4,1.1-1.1c-7.4-6.3-14.6-12.8-21.8-19.3
				C275.6,202.4,274.5,203.5,275.2,204.2L275.2,204.2z"/>
		</g>
		<g>
			<path d="M352.1,222.6c9,7.6,18.3,14.9,27.8,21.8c0.8,0.6,1.6-0.8,0.8-1.4c-9.4-6.8-18.6-14-27.5-21.5
				C352.4,220.9,351.3,222,352.1,222.6L352.1,222.6z"/>
		</g>
		<g>
			<path d="M351.3,213c8.9,9.1,18.3,17.5,28.3,25.3c0.8,0.6,1.9-0.5,1.1-1.1c-10-7.8-19.5-16.2-28.3-25.3
				C351.7,211.2,350.6,212.3,351.3,213L351.3,213z"/>
		</g>
		<g>
			<path d="M351.9,209.6c8.9,8.4,18.2,16.4,27.9,23.9c0.8,0.6,1.9-0.5,1.1-1.1c-9.6-7.6-18.9-15.5-27.9-23.9
				C352.2,207.8,351.1,208.9,351.9,209.6L351.9,209.6z"/>
		</g>
		<g>
			<path d="M351.6,205.8c9.1,7.8,18.5,15.2,28.3,22c0.8,0.6,1.6-0.8,0.8-1.4c-9.7-6.8-19.1-14-28-21.7
				C351.9,204,350.8,205.1,351.6,205.8L351.6,205.8z"/>
		</g>
		<g>
			<path d="M352.1,200.5c8.9,7.5,18,14.6,27.4,21.5c0.8,0.6,1.6-0.8,0.8-1.4c-9.2-6.8-18.3-13.9-27.1-21.3
				C352.4,198.7,351.3,199.8,352.1,200.5L352.1,200.5z"/>
		</g>
		<g>
			<path d="M351.7,196.6c9.2,7.4,18.6,14.4,28.3,21.1c0.8,0.6,1.6-0.8,0.8-1.4c-9.6-6.6-18.9-13.6-27.9-20.8
				C352,194.8,350.9,196,351.7,196.6L351.7,196.6z"/>
		</g>
		<g>
			<path d="M351.8,189.3c9.3,7.4,18.8,14.7,28.4,21.8c0.8,0.6,1.6-0.8,0.8-1.4c-9.5-7-18.8-14.2-28.1-21.6
				C352.1,187.6,351,188.7,351.8,189.3L351.8,189.3z"/>
		</g>
		<g>
			<path d="M351.7,185.1c9.6,6,18.1,13.8,27.9,19.6c0.9,0.5,1.7-0.8,0.8-1.4c-9.8-5.8-18.3-13.5-27.9-19.6
				C351.7,183.2,350.9,184.6,351.7,185.1L351.7,185.1z"/>
		</g>
		<g>
			<path d="M351.6,177.7c9.2,7.8,18.7,15.4,28.4,22.7c0.8,0.6,1.6-0.8,0.8-1.4c-9.6-7.2-18.9-14.7-28.1-22.4
				C351.9,175.9,350.8,177,351.6,177.7L351.6,177.7z"/>
		</g>
		<g>
			<path d="M415.1,205.1c1.3,0.8,2.6,1.6,3.8,2.5c0-0.5,0-0.9,0-1.4c1-0.5,0.6,0.1,0-0.5c-0.3-0.3-0.8-0.5-1.1-0.7
				c-0.6-0.4-1.3-0.8-1.9-1.3C415.6,204.2,415.3,204.7,415.1,205.1c8.5,5.5,17.1,10.7,26,15.5c0.9,0.5,1.7-0.9,0.8-1.4
				c-8.9-4.9-17.5-10-26-15.5C415,203.2,414.3,204.5,415.1,205.1c0.9,0.7,3.5,3,4.6,2.5c0.6-0.3,0.4-1.1,0-1.4
				c-1.3-0.9-2.5-1.7-3.8-2.5C415,203.2,414.2,204.6,415.1,205.1L415.1,205.1z"/>
		</g>
		<g>
			<path d="M412.8,195.6c9.5,6.6,18.9,13.2,28.4,19.9c0.8,0.6,1.6-0.8,0.8-1.4c-9.5-6.6-18.9-13.2-28.4-19.9
				C412.8,193.7,412,195,412.8,195.6L412.8,195.6z"/>
		</g>
		<g>
			<path d="M412.5,189.4c9.3,7,18.9,13.7,28.6,20.1c0.8,0.6,1.6-0.8,0.8-1.4c-9.8-6.4-19.3-13.1-28.6-20.1
				C412.5,187.4,411.7,188.8,412.5,189.4L412.5,189.4z"/>
		</g>
		<g>
			<path d="M412.6,183.9c9.4,6.1,18.8,12.2,28.2,18.2c0.9,0.5,1.6-0.8,0.8-1.4c-9.4-6-18.8-12.1-28.2-18.2
				C412.6,182,411.8,183.3,412.6,183.9L412.6,183.9z"/>
		</g>
		<g>
			<path d="M412.5,176.5c9.5,6.4,19,12.9,28.5,19.3c0.8,0.6,1.6-0.8,0.8-1.4c-9.5-6.4-19-12.9-28.5-19.3
				C412.4,174.5,411.6,175.9,412.5,176.5L412.5,176.5z"/>
		</g>
		<g>
			<path d="M412.9,170c8.9,7.2,18.1,13.9,27.7,20c0.9,0.5,1.6-0.8,0.8-1.4c-9.5-6.1-18.6-12.7-27.4-19.8
				C413.3,168.2,412.1,169.3,412.9,170L412.9,170z"/>
		</g>
		<g>
			<path d="M412.8,159.9c9.1,7.5,18.4,14.6,28,21.4c0.8,0.6,1.6-0.8,0.8-1.4c-9.5-6.7-18.7-13.8-27.6-21.2
				C413.1,158.2,412,159.3,412.8,159.9L412.8,159.9z"/>
		</g>
		<g>
			<path d="M412.9,152.7c9.3,6.9,18.5,13.8,27.8,20.7c0.8,0.6,1.6-0.8,0.8-1.4c-9.3-6.9-18.5-13.8-27.8-20.7
				C412.9,150.7,412.1,152.1,412.9,152.7L412.9,152.7z"/>
		</g>
		<g>
			<path d="M412.8,147.1c9.5,6,18.8,12.5,27.8,19.4c0.8,0.6,1.6-0.7,0.8-1.4c-9-6.9-18.2-13.3-27.8-19.4
				C412.7,145.2,411.9,146.5,412.8,147.1L412.8,147.1z"/>
		</g>
		<g>
			<path d="M412.3,138.5c9.1,7.4,18.5,14.4,28.3,20.8c0.8,0.6,1.6-0.8,0.8-1.4c-9.7-6.3-19-13.2-28-20.5
				C412.7,136.7,411.5,137.8,412.3,138.5L412.3,138.5z"/>
		</g>
		<g>
			<path d="M413.1,133.4c10,5.7,17.9,14.2,27.4,20.6c0.8,0.6,1.6-0.8,0.8-1.4c-9.5-6.3-17.5-14.9-27.4-20.6
				C413,131.5,412.2,132.9,413.1,133.4L413.1,133.4z"/>
		</g>
		<g>
			<path d="M412.7,129.6c9.5,6.9,19,13.8,28.4,20.9c0.8,0.6,1.6-0.8,0.8-1.4c-9.4-7.1-18.8-14-28.4-20.9
				C412.7,127.7,411.9,129,412.7,129.6L412.7,129.6z"/>
		</g>
		<g>
			<path d="M412.4,122.4c9.3,7.4,18.7,14.5,28.3,21.3c0.8,0.6,1.6-0.8,0.8-1.4c-9.5-6.8-18.9-13.8-28-21.1
				C412.8,120.7,411.6,121.8,412.4,122.4L412.4,122.4z"/>
		</g>
		<g>
			<path d="M297.5,214.4c-0.5,21.1,0.1,42.4,0.7,63.5c0.1,1.8,2.8,1.8,2.8,0c0.1-21.1,0-42.5-1.7-63.5
				C299.2,213.3,297.5,213.2,297.5,214.4L297.5,214.4z"/>
		</g>
		<g>
			<path d="M298.6,215.2c12-3.2,24.7-10,34.7-17.2c1.3-0.9,0.2-2.8-1.2-2.1c-5.7,2.9-11.2,6.3-16.9,9.2c-5.7,2.9-11.7,5.3-17.3,8.5
				C297.1,214.2,297.7,215.5,298.6,215.2L298.6,215.2z"/>
		</g>
		<g>
			<path d="M333.6,196.2c-1.3,21.5-0.3,43.4,0.1,64.9c0,2,3.1,2,3,0c-0.1-21.5,0.3-43.4-1.5-64.9
				C335.2,195.1,333.7,195.1,333.6,196.2L333.6,196.2z"/>
		</g>
		<g>
			<path d="M301.1,277.9c0,0-0.1,0-0.1-0.1c-0.4-0.2-0.9-0.1-1.2,0.3c0,0.1-0.1,0.1-0.1,0.2c-0.3,0.6,0,1.2,0.6,1.4
				c3.3,1.1,11-4.4,13.8-5.8c7.1-3.5,14-7.3,20.9-11.2c1.5-0.9,0.2-3.1-1.3-2.3c-5.8,3.3-11.6,6.5-17.5,9.5c-3,1.5-5.9,3-8.9,4.5
				c-1.5,0.7-3,1.5-4.5,2.2c-2.2,0.2-2.8,1.2-1.7,2.7C301.5,279.3,301.8,278.3,301.1,277.9L301.1,277.9z"/>
		</g>
		<g>
			<path d="M274.6,195.5c13.1-4.4,25.8-10.3,38.6-15.5c1.4-0.6,0.8-2.9-0.6-2.3c-12.9,5.3-26.1,10.1-38.6,16.2
				C273,194.4,273.6,195.9,274.6,195.5L274.6,195.5z"/>
		</g>
		<g>
			<path d="M273.8,195.7c6.9,7.4,14.9,14.7,23.5,20.1c1.3,0.8,2.5-1.2,1.2-2.1c-8.5-5.7-15.3-13.1-23.3-19.4
				C274.2,193.5,272.8,194.7,273.8,195.7L273.8,195.7z"/>
		</g>
		<g>
			<path d="M312.2,179.6c7.2,5.8,14,11.9,21.1,17.8c0.9,0.7,2-0.2,1.6-1.2c-0.9-1.9-2.8-2.8-4.3-4.1c-2.1-1.8-4.1-3.7-6.1-5.5
				c-3.4-3.2-7-6.7-11.4-8.3C312.3,178,311.6,179.1,312.2,179.6L312.2,179.6z"/>
		</g>
		<g>
			<path d="M273.1,194.8c-0.9,18.4-0.3,37-0.3,55.4c0,1.7,2.7,1.7,2.7,0c-0.1-18.4,0.3-37-0.7-55.4
				C274.7,193.7,273.2,193.7,273.1,194.8L273.1,194.8z"/>
		</g>
		<g>
			<path d="M273.2,251.7c8.2,9.7,17.4,18.5,25.5,28.3c1,1.2,2.7-0.5,1.7-1.7c-7.8-9.7-16.2-20.1-25.9-27.9
				C273.6,249.6,272.4,250.8,273.2,251.7L273.2,251.7z"/>
		</g>
		<g>
			<path d="M351.5,175.1c-1.2,16.5-1.8,34.3-0.3,50.8c0.1,1.5,2.2,1.5,2.3,0c1.4-16.5,0.9-34.3-0.3-50.8
				C353,174.1,351.6,174.1,351.5,175.1L351.5,175.1z"/>
		</g>
		<g>
			<path d="M379.7,194.5c-1,8.7-0.5,17.6-0.5,26.3c0,8.7-0.4,17.6,0.2,26.3c0.1,1.4,2.1,1.4,2.2,0c0.6-8.7,0.2-17.6,0.2-26.3
				c0-8.7,0.5-17.7-0.5-26.3C381.2,193.5,379.8,193.5,379.7,194.5L379.7,194.5z"/>
		</g>
		<g>
			<path d="M380.8,248.9c11.7-4.9,22.7-11.6,33.5-18c1.3-0.8,0.1-2.9-1.2-2.1c-10.8,6.4-22.2,12-33,18.5
				C379.4,247.8,379.9,249.2,380.8,248.9L380.8,248.9z"/>
		</g>
		<g>
			<path d="M413.6,175.8c-1.2,8.2-0.6,16.8-0.6,25.1c0,9.1-0.5,18.5,0.2,27.6c0.1,1.5,2.3,1.5,2.4,0c0.7-9.1,0.2-18.4,0.2-27.6
				c0-8.3,0.7-16.9-0.6-25.1C415.2,175,413.7,175,413.6,175.8L413.6,175.8z"/>
		</g>
		<g>
			<path d="M380.9,195c11.6-4.5,22.5-10.7,33-17.3c1.2-0.8,0.1-2.8-1.2-2c-10.5,6.6-21.5,11.9-32.5,17.7
				C379.4,193.9,380,195.4,380.9,195L380.9,195z"/>
		</g>
		<g>
			<path d="M352,226.7c7.6,8.6,18.5,15.5,27.9,21.9c1.3,0.9,2.6-1.2,1.3-2.2c-9.6-6.7-18.3-14.9-28.2-21
				C352.1,225,351.4,226.1,352,226.7L352,226.7z"/>
		</g>
		<g>
			<path d="M352.2,175.7c5,3.7,10.4,7,15.3,11c3.9,3.1,7.3,6.7,11.7,9.1c1.4,0.8,2.6-1.3,1.2-2.1c-9.8-5.6-16.8-14.7-27.4-19.4
				C352.1,173.8,351.4,175.1,352.2,175.7L352.2,175.7z"/>
		</g>
		<g>
			<path d="M352.8,175.8c11.8-4.2,23.1-9.8,34.6-14.7c1.3-0.6,0.2-2.5-1.1-1.9c-11.4,5-23.1,9.5-34.1,15.2
				C351.4,174.8,351.9,176.2,352.8,175.8L352.8,175.8z"/>
		</g>
		<g>
			<path d="M386.4,160.7c8.3,6.1,17.7,11,26.6,16.3c1.2,0.7,2.4-1.2,1.1-1.9c-8.9-5.2-17.6-11.2-26.9-15.8
				C386.3,158.7,385.5,160,386.4,160.7L386.4,160.7z"/>
		</g>
		<g>
			<path d="M441.2,136.1c-1.2,14.4-0.4,29.1-0.4,43.5c0,14.5-0.6,29.1,0.2,43.5c0.1,1.5,2.2,1.5,2.3,0c0.7-14.5,0.2-29.1,0.2-43.5
				c0-14.4,0.8-29.2-0.4-43.5C443,134.9,441.3,134.9,441.2,136.1L441.2,136.1z"/>
		</g>
		<g>
			<path d="M471.6,119.7c-0.9,14.3-0.5,28.8-0.5,43.2c0,14.3-0.7,28.9,0.2,43.2c0.1,1.5,2.3,1.5,2.4,0c0.9-14.3,0.2-28.9,0.2-43.2
				c0-14.4,0.3-28.8-0.5-43.2C473.1,118.7,471.6,118.7,471.6,119.7L471.6,119.7z"/>
		</g>
		<g>
			<path d="M411.5,118.1c-0.8,9.3-0.5,18.8-0.5,28.2c0,9.4-0.4,18.8,0.2,28.2c0.1,1.4,2.1,1.4,2.2,0c0.6-9.4,0.2-18.8,0.2-28.2
				c0-9.4,0.4-18.8-0.5-28.2C413.1,117,411.6,117,411.5,118.1L411.5,118.1z"/>
		</g>
		<g>
			<path d="M415.6,208.6c7.5,6.5,16,12,24.1,17.9c1.2,0.9,2.4-1.1,1.2-2c-8-5.8-15.8-12.1-24.2-17.2
				C415.9,206.7,414.9,207.9,415.6,208.6L415.6,208.6z"/>
		</g>
		<g>
			<path d="M471.7,205.5c-10.1,7.1-20.1,13.8-31.2,19.2c-1.4,0.7-0.2,2.7,1.2,2.1c11-5.4,21.8-11.8,31.1-19.8
				C473.6,206.3,472.6,204.9,471.7,205.5L471.7,205.5z"/>
		</g>
		<g>
			<path d="M442.6,136.8c10.2-3.8,19.9-9.3,29.2-14.9c1.4-0.8,0.1-3-1.3-2.2c-9.4,5.4-19.2,10.2-28.5,15.6
				C441.3,135.8,441.8,137.1,442.6,136.8L442.6,136.8z"/>
		</g>
		<g>
			<path d="M412.6,118.9c10.4,5,17.9,13.9,27.9,19.4c1.3,0.7,2.5-1.2,1.2-2c-9.8-5.8-17.4-15.3-28.4-19.1
				C412.4,116.9,411.7,118.5,412.6,118.9L412.6,118.9z"/>
		</g>
		<g>
			<path d="M412.3,119.4c11.5-3.6,22.7-9,33.4-14.3c1.4-0.7,0.2-2.8-1.2-2.1c-10.9,5-22.1,9.5-32.8,15
				C410.8,118.4,411.4,119.7,412.3,119.4L412.3,119.4z"/>
		</g>
		<g>
			<path d="M444.4,104.6c9.8,4.6,18.7,11.5,28,17.1c1.3,0.8,2.4-1.2,1.1-2c-5.2-3.4-10.5-6.7-15.8-10c-4.1-2.5-8.1-5.3-12.7-6.8
				C444.2,102.7,443.5,104.2,444.4,104.6L444.4,104.6z"/>
		</g>
		<g>
			<path d="M494.4,237.8c-29.9,14-59,29.8-88.4,44.9c-29.4,15.1-59,29.8-88.1,45.3c-1.8,1-0.2,3.7,1.6,2.8
				c29.5-14.8,58.7-30.3,88-45.5c29.3-15.2,59-29.7,87.8-46C496.3,238.8,495.4,237.3,494.4,237.8L494.4,237.8z"/>
		</g>
		<g>
			<path d="M244.2,255.3c21.6,27.1,46.8,51.8,72.3,75.2c1.6,1.5,4-0.9,2.4-2.4c-25.7-23.6-49.4-48.9-73.5-74
				C244.6,253.4,243.6,254.5,244.2,255.3L244.2,255.3z"/>
		</g>
		<g>
			<path d="M243.9,255.7c9.6-3.4,18.9-7.9,28.1-12.1c1.7-0.8,0.2-3.3-1.5-2.5c-9.2,4.1-18.6,8.1-27.3,13
				C242.3,254.6,242.9,256,243.9,255.7L243.9,255.7z"/>
		</g>
		<g>
			<path d="M335.3,223.5c5.8-2.6,12.4-5.4,17.3-9.3c0.8-0.6-0.1-2-1-1.7c-6,2.1-11.9,6.1-17.2,9.6
				C333.5,222.7,334.3,223.9,335.3,223.5L335.3,223.5z"/>
		</g>
		<g>
			<path d="M467.6,210.9c-0.5,0.2,10.5,12.2,11.7,13.4c4.2,4.4,8.3,9.2,13.1,13.1c1.2,1,2.6-0.5,1.7-1.7c-4.8-6.1-10.9-11.5-16.4-17
				c-2.3-2.3-6.6-9-10.4-8.5c-0.3,0-0.5,0.3-0.6,0.6c-0.2,0.7-0.1,0.9,0.4,1.5c0.2,0.3,0.7,0.3,1,0.1c0.1,0,0.2-0.1,0.3-0.1
				C469,211.9,468.4,210.5,467.6,210.9L467.6,210.9z"/>
		</g>
		<g>
			<path d="M481.9,244.6c-0.5,5.8,0.5,13.1,2.9,18.5c0.7,1.6,2.8,0.4,2.6-1.1c-0.5-3-1.5-5.8-2.1-8.8c-0.6-2.9-0.9-5.9-1.5-8.8
				C483.6,243.2,482,243.6,481.9,244.6L481.9,244.6z"/>
		</g>
		<g>
			<path d="M487.2,262.1c-10.2,0.3-20.5,2.3-30.5,4.2c-10.9,2-21.9,4-32.5,7c-1.7,0.5-1,2.9,0.7,2.6c10.4-2,20.7-4.6,31.2-6.6
				c10.4-2,21-3.1,31.3-5.6C488.3,263.6,488.1,262.1,487.2,262.1L487.2,262.1z"/>
		</g>
		<g>
			<path d="M376.8,300.6c10.4,0.7,20.9,0.8,31.4,0.7c10.3,0,21.1,0.4,31.3-0.9c1.5-0.2,1.6-2.3,0-2.4c-10.4-0.6-21,0.5-31.3,0.6
				c-10.5,0.1-20.9,0-31.4,0.3C375.7,299,375.7,300.5,376.8,300.6L376.8,300.6z"/>
		</g>
		<g>
			<path d="M449.4,269.8c-5,8.9-8.3,19.1-11,29c1.1,0.1,2.2,0.3,3.2,0.4c-0.1-0.6-0.2-1.3-0.2-1.9c-0.2-1.3-2-1.8-2.5-0.3
				c-0.2,0.6-0.4,1.2-0.5,1.8c-0.6,2,2.6,2.9,3.2,0.9c2.7-9.9,6.3-19.4,9.3-29.2C451.2,269.6,449.9,269,449.4,269.8L449.4,269.8z"/>
		</g>
		<g>
			<path d="M308.8,286.6c13.9-6.5,28-13.1,41.3-20.6c1.1-0.6,0.1-2.2-1-1.7c-14,6.2-27.7,13.6-41.2,20.9
				C307,285.7,307.8,287.1,308.8,286.6L308.8,286.6z"/>
		</g>
		<g>
			<path d="M315.1,291.2c4.8-4.3,11-5.5,16.9-7.7c5.1-2,10.1-4.3,14.6-7.4c1.2-0.8,0.1-2.7-1.2-2c-6.4,3.7-12.7,6.8-19.7,9.2
				c-4.5,1.5-8.6,3.1-11.9,6.7C313.2,290.8,314.3,291.9,315.1,291.2L315.1,291.2z"/>
		</g>
		<g>
			<path d="M317.6,293c-1.4,0.1-1.4,0.1-2.4,1c-0.7,0.7,0.2,1.7,1,1.3c3.8-1.8,7.4-3.8,11.2-5.6c3.8-1.8,7.8-3.1,11.4-5
				c1.1-0.6,0.3-2.3-0.8-2c-7.8,2-16.2,6.5-22.6,11.2c0.3,0.4,0.7,0.9,1,1.3c0.4-0.2,0.8-0.4,1.2-0.6
				C318.6,294.5,318.7,293,317.6,293L317.6,293z"/>
		</g>
		<g>
			<path d="M383.9,255.5c2-0.2,2.7-0.7,4.1-2.2c2.2-2.3,1.2-2.7,5.3-3.4c2.3-0.4,1.9,0.3,4.4-0.4c3.7-1,6.7-4,9.9-6
				c4-2.6,8.4-4.4,12.7-6.4c1.4-0.7,0.4-2.7-1-2.4c-3.7,0.8-7.1,2.1-10.4,4c-4,2.2-7.8,6.3-12.1,7.6c-2.5,0.7-5.4-0.1-7.7,1.3
				c-2.4,1.5-2.8,5.3-5.5,6.3C382.8,254.1,382.9,255.6,383.9,255.5L383.9,255.5z"/>
		</g>
		<g>
			<path d="M390.3,257.7c2.3-1.4,4.3-3.1,6.6-4.4c2.5-1.4,5.2-2.4,8-3.4c1.3-0.4,0.8-2.2-0.6-2c-5.5,1-11.8,4.1-15.1,8.7
				C388.7,257.3,389.6,258.1,390.3,257.7L390.3,257.7z"/>
		</g>
		<g>
			<path d="M393,261.9c5.1-3.3,10.2-6.4,15.7-9.1c1-0.5,0.3-2.3-0.8-1.9c-5.8,2.1-11.5,5.4-16,9.6
				C391.2,261.2,392.1,262.4,393,261.9L393,261.9z"/>
		</g>
		<g>
			<path d="M445.5,230.9c3.4-1.9,6.6-3.9,10-5.8c3.3-1.8,7.1-3.2,10.2-5.3c1-0.7,0.4-2.3-0.8-2c-7.1,1.9-14.8,7-20.4,11.7
				C443.7,230.2,444.7,231.4,445.5,230.9L445.5,230.9z"/>
		</g>
		<g>
			<path d="M338.1,294.3c-3.9-2.6-7.8,1.8-7.7,5.7c0.1,4.7,4.2,8.2,8.8,7.9c4.6-0.2,9.5-4.1,9.7-9c0.3-6.6-7.3-7.5-12.1-6.9
				c-1.3,0.2-1.4,2.2,0,2.1c2.9-0.2,7.3-0.2,8.9,2.7c1.8,3.2-1.6,6.7-4.4,7.7c-2.5,1-5.5,0.6-7.2-1.6c-0.7-1-1.2-2.2-1.2-3.4
				c-0.1-2,1.5-5.2,4.3-3.9C338.3,296.2,339,294.9,338.1,294.3L338.1,294.3z"/>
		</g>
		<g>
			<path d="M412.6,262.4c-0.1-0.6-0.1-1.1-0.1-1.7c0-0.5-0.4-0.9-0.9-0.9c-3.9,0.1-6.7,4.2-5.6,8c1.1,3.9,5.6,5.9,9.3,4.8
				c4-1.1,6.8-5.4,6.3-9.5c-0.4-3.8-3.9-7.5-7.9-6.3c-1.1,0.3-0.9,2.1,0.3,2c6.2-0.7,6,8.4,1.7,10.8c-2.2,1.2-5.4,0.7-6.8-1.5
				c-1.7-2.6,0.2-5.8,3-6.4c-0.4-0.2-0.8-0.4-1.1-0.6c0.1,0.6,0.2,1.1,0.3,1.7C411.2,263.6,412.7,263.4,412.6,262.4L412.6,262.4z"/>
		</g>
		<g>
			<path d="M462.7,233.4c-4.6-1.8-7.6,3.5-6,7.4c1.7,4.1,6.5,5.6,10.6,4.5c4.3-1.2,7.5-5.6,6.2-10.2c-1.2-4.3-6.7-6.1-9.7-2.5
				c-0.8,1,0.5,2.4,1.5,1.5c3-2.8,6.3,1.1,5.6,4.3c-0.5,2.2-2.2,3.7-4.3,4.3c-1.8,0.5-3.9,0.4-5.6-0.7c-2.7-1.8-3.6-8.1,1.2-7
				C463.4,235.3,463.7,233.8,462.7,233.4L462.7,233.4z"/>
		</g>
	</g>
	<g>
		<g>
			<g>
				<path d="M124.2,214.3c4.3-2.6,8-3.1,13-3.5c1.9-0.1,9.4-1.8,9.9-0.2c0.9,2.6-1.8,8.6-2.9,10.9c-1.7,3.6-3.3,7.4-6.3,10.1
					c-0.3,0.3,0,0.9,0.1,1.1c3.1,4.8,10.4,2.9,15,5.6c-0.5-0.6-1-1.2-1.5-1.8c1.1,5-6.7,9.8-10.1,12c-2.3,1.5-4.5,3-7.2,3.6
					c-1.1,0.2-3.6,0-4.4,0.9c-2.4,2.7,2.7,4.7,4.7,5.5c0.6,0.2,2.1,0.1,2.2,0.9c0.1,0.7-5.2,3.4-6,3.7c-4.7,2-10.8,1.5-15.7,0.2
					c-6.5-1.8-11.9-6.9-15.3-12.7c-1.6-2.7-1.7-5.1-3.7-7.4c-3.8-4.2-7.7-7.9-9.3-13.6c-1.6-5.5-1.5-12.1-0.4-17.7
					c0.6-3,2.4-10.8,5.4-12.5c3.3-1.8,3.9,2.1,6,4.3c1.2,1.2,2.3,1.7,3.9,1.2c1.5-0.5,2.3-2.4,3.3-3.5c1.7-1.9,3.8-3.2,6-4.5
					c2.1-1.3,4.2-2.4,6.5-3.2c3.9-1.3,5,0,5.7,4.2c0.6,3.4,0.4,10.3-1.1,13.4c-0.5,1,2.1,3.2,2.8,1.9c2.3-4.5,1.6-10.9,1-15.9
					c-0.4-3-1.2-6.7-4.7-7.3c-5-1-11.3,3.5-15.1,6c-1.9,1.3-3.1,2.6-4.7,4.3c-0.3,0.4-0.7,0.8-1,1.2c-0.8,1.5-1.4,1.5-1.7,0.1
					c-0.1-0.1-1.9-2.3-2-2.4c-1.7-2-3.5-4.8-6.4-3.1c-3.4,2-5.5,8.5-6.3,12c-2.8,12.4-0.5,23.6,7.7,33.2c5.9,6.8,8.6,15.9,17,21.1
					c8.6,5.2,21,7.1,29.3,0.3c2-1.6,2.9-3.3,0.9-5.2c-1.4-1.3-3-0.9-4.7-1.4c-3.9-1.2,0.1-1,2.2-1.4c4.9-1.1,23.6-12.2,16.8-18.4
					c-1.8-1.6-5.1-2.1-7.3-2.6c0.5,0.1-3.1-0.6-3.1-0.6c-2.3-1-0.8,0.7-0.1-1.3c2.3-6.8,7.2-12.1,7.3-19.8c0-3.3-1.3-4.7-4.7-4.9
					c-3.8-0.3-8.1,0.9-11.9,1.2c-4.4,0.4-7.5,1.1-11.3,3.4C120.9,212.4,123.3,214.8,124.2,214.3L124.2,214.3z"/>
			</g>
		</g>
		<g>
			<g>
				<path d="M128.4,221.6c-2.9,0.5-4.8,2.4-7.2,3.9c-2.9,1.8-5.9,3.2-8.9,4.9c-6,3.5-11.8,7.4-16.9,12.1
					c-10.7,9.8-20.3,20.7-30.4,31.1c-0.8,0.9,1.7,3.2,2.6,2.4c9.6-9.9,18.7-20.1,28.7-29.6c5.5-5.3,11.6-9.5,18.2-13.4
					c2.9-1.7,6-3.2,8.9-4.9c2.3-1.4,4.5-3.4,7.2-3.9C131.6,224,129.5,221.4,128.4,221.6L128.4,221.6z"/>
			</g>
		</g>
		<g>
			<g>
				<path d="M112.9,208.2c-2.7,4.4-5.2,8.9-7.3,13.6c-1.9,4.3-3.9,8-3.5,12.9c0.1,1.1,2.9,2.9,2.8,1.4c-0.4-4.6,1.6-8.2,3.5-12.3
					c2-4.6,4.5-9,7.1-13.2C116.2,209.4,113.5,207.2,112.9,208.2L112.9,208.2z"/>
			</g>
		</g>
		<g>
			<g>
				<path d="M100.2,241.4c-0.1,0.1-0.3,0.2-0.4,0.3c-0.3,0.3,0,0.9,0.1,1.1c1.6,2.8,5.3,3.7,8.2,4.2c4.2,0.7,8.1-1.3,12.3-0.7
					c1.4,0.2-0.5-2.5-1.6-2.7c-3.1-0.4-6,1-9.1,1c-1.6,0-6.6-0.2-7.4-1.7c0,0.4,0.1,0.8,0.1,1.1c0.1-0.1,0.3-0.2,0.4-0.3
					C103.6,243,101.2,240.6,100.2,241.4L100.2,241.4z"/>
			</g>
		</g>
	</g>
</g>
</svg>
